Pretension2VF-BlackItalic.ufo
<glyph name="seven" format="2">
  <advance width="1226"/>
  <unicode hex="0037"/>
  <outline>
    <contour>
      <point x="65" y="0" type="line"/>
      <point x="841" y="1158" type="line"/>
      <point x="842" y="1166" type="line"/>
      <point x="164" y="1166" type="line"/>
      <point x="218" y="1490" type="line"/>
      <point x="1324" y="1490" type="line"/>
      <point x="1270" y="1166" type="line"/>
      <point x="489" y="0" type="line"/>
    </contour>
  </outline>
</glyph>
<glyph name="at" format="2">
  <advance width="2168"/>
  <unicode hex="0040"/>
  <outline>
    <contour>
      <point x="935" y="-450" type="qcurve" smooth="yes"/>
      <point x="699" y="-450"/>
      <point x="340" y="-321"/>
      <point x="110" y="-73"/>
      <point x="25" y="285"/>
      <point x="63" y="514" type="qcurve" smooth="yes"/>
      <point x="99" y="732"/>
      <point x="283" y="1099"/>
      <point x="575" y="1370"/>
      <point x="974" y="1520"/>
      <point x="1224" y="1520" type="qcurve" smooth="yes"/>
      <point x="1450" y="1520"/>
      <point x="1808" y="1395"/>
      <point x="2045" y="1158"/>
      <point x="2142" y="822"/>
      <point x="2107" y="611" type="qcurve" smooth="yes"/>
      <point x="2084" y="470"/>
      <point x="1982" y="254"/>
      <point x="1833" y="106"/>
      <point x="1645" y="30"/>
      <point x="1537" y="30" type="qcurve" smooth="yes"/>
      <point x="1461" y="30"/>
      <point x="1356" y="68"/>
      <point x="1303" y="143"/>
      <point x="1302" y="197" type="qcurve"/>
      <point x="1294" y="197" type="line"/>
      <point x="1252" y="113"/>
      <point x="1068" y="22"/>
      <point x="946" y="22" type="qcurve" smooth="yes"/>
      <point x="806" y="22"/>
      <point x="620" y="143"/>
      <point x="544" y="368"/>
      <point x="569" y="524" type="qcurve"/>
      <point x="596" y="683"/>
      <point x="747" y="919"/>
      <point x="973" y="1049"/>
      <point x="1110" y="1049" type="qcurve" smooth="yes"/>
      <point x="1210" y="1049"/>
      <point x="1350" y="978"/>
      <point x="1370" y="909" type="qcurve"/>
      <point x="1381" y="909" type="line"/>
      <point x="1400" y="1027" type="line"/>
      <point x="1648" y="1027" type="line"/>
      <point x="1535" y="339" type="line" smooth="yes"/>
      <point x="1528" y="300"/>
      <point x="1547" y="273"/>
      <point x="1578" y="273" type="qcurve" smooth="yes"/>
      <point x="1633" y="273"/>
      <point x="1714" y="338"/>
      <point x="1770" y="471"/>
      <point x="1786" y="572" type="qcurve" smooth="yes"/>
      <point x="1813" y="737"/>
      <point x="1771" y="981"/>
      <point x="1632" y="1141"/>
      <point x="1399" y="1220"/>
      <point x="1236" y="1220" type="qcurve" smooth="yes"/>
      <point x="1054" y="1220"/>
      <point x="765" y="1126"/>
      <point x="552" y="948"/>
      <point x="418" y="692"/>
      <point x="391" y="530" type="qcurve" smooth="yes"/>
      <point x="364" y="364"/>
      <point x="412" y="111"/>
      <point x="562" y="-61"/>
      <point x="813" y="-148"/>
      <point x="989" y="-148" type="qcurve" smooth="yes"/>
      <point x="1073" y="-148"/>
      <point x="1228" y="-129"/>
      <point x="1365" y="-94"/>
      <point x="1420" y="-71" type="qcurve"/>
      <point x="1486" y="-336" type="line"/>
      <point x="1428" y="-364"/>
      <point x="1267" y="-417"/>
      <point x="1062" y="-450"/>
    </contour>
    <contour>
      <point x="1021" y="286" type="qcurve" smooth="yes"/>
      <point x="1091" y="286"/>
      <point x="1202" y="343"/>
      <point x="1276" y="450"/>
      <point x="1288" y="525" type="qcurve" smooth="yes"/>
      <point x="1301" y="601"/>
      <point x="1271" y="704"/>
      <point x="1186" y="757"/>
      <point x="1115" y="757" type="qcurve" smooth="yes"/>
      <point x="1045" y="757"/>
      <point x="934" y="704"/>
      <point x="862" y="602"/>
      <point x="849" y="526" type="qcurve" smooth="yes"/>
      <point x="836" y="450"/>
      <point x="865" y="343"/>
      <point x="951" y="286"/>
    </contour>
  </outline>
</glyph>
<glyph name="S" format="2">
  <advance width="1364"/>
  <unicode hex="0053"/>
  <anchor x="668" y="0" name="m.uni0326"/>
  <anchor x="914" y="1490" name="m.uni030F_1"/>
  <anchor x="661" y="0" name="m.uni0327_3"/>
  <outline>
    <contour>
      <point x="630" y="-18" type="qcurve" smooth="yes"/>
      <point x="436" y="-18"/>
      <point x="154" y="97"/>
      <point x="22" y="337"/>
      <point x="52" y="524" type="qcurve"/>
      <point x="436" y="524" type="line"/>
      <point x="428" y="456"/>
      <point x="474" y="362"/>
      <point x="577" y="314"/>
      <point x="655" y="314" type="qcurve" smooth="yes"/>
      <point x="720" y="314"/>
      <point x="813" y="346"/>
      <point x="868" y="403"/>
      <point x="874" y="440" type="qcurve" smooth="yes"/>
      <point x="880" y="474"/>
      <point x="845" y="525"/>
      <point x="754" y="567"/>
      <point x="674" y="584" type="qcurve" smooth="yes"/>
      <point x="529" y="616" type="line" smooth="yes"/>
      <point x="339" y="658"/>
      <point x="146" y="861"/>
      <point x="175" y="1036" type="qcurve" smooth="yes"/>
      <point x="198" y="1178"/>
      <point x="375" y="1391"/>
      <point x="654" y="1510"/>
      <point x="831" y="1510" type="qcurve" smooth="yes"/>
      <point x="1012" y="1510"/>
      <point x="1267" y="1389"/>
      <point x="1386" y="1170"/>
      <point x="1363" y="1024" type="qcurve"/>
      <point x="975" y="1024" type="line"/>
      <point x="982" y="1097"/>
      <point x="898" y="1178"/>
      <point x="800" y="1178" type="qcurve" smooth="yes"/>
      <point x="738" y="1178"/>
      <point x="653" y="1149"/>
      <point x="607" y="1097"/>
      <point x="601" y="1064" type="qcurve" smooth="yes"/>
      <point x="595" y="1029"/>
      <point x="628" y="976"/>
      <point x="710" y="937"/>
      <point x="778" y="922" type="qcurve" smooth="yes"/>
      <point x="895" y="896" type="line" smooth="yes"/>
      <point x="1014" y="869"/>
      <point x="1177" y="784"/>
      <point x="1270" y="668"/>
      <point x="1300" y="525"/>
      <point x="1286" y="440" type="qcurve" smooth="yes"/>
      <point x="1262" y="293"/>
      <point x="1095" y="88"/>
      <point x="819" y="-18"/>
    </contour>
  </outline>
</glyph>
<glyph name="T" format="2">
  <advance width="1406"/>
  <unicode hex="0054"/>
  <anchor x="655" y="0" name="m.uni0326"/>
  <anchor x="904" y="1490" name="m.uni030F_1"/>
  <anchor x="642" y="0" name="m.uni0327_3"/>
  <outline>
    <contour>
      <point x="156" y="1164" type="line"/>
      <point x="210" y="1490" type="line"/>
      <point x="1504" y="1490" type="line"/>
      <point x="1450" y="1164" type="line"/>
      <point x="1005" y="1164" type="line"/>
      <point x="812" y="0" type="line"/>
      <point x="408" y="0" type="line"/>
      <point x="601" y="1164" type="line"/>
    </contour>
  </outline>
</glyph>
<glyph name="h" format="2">
  <advance width="1330"/>
  <unicode hex="0068"/>
  <anchor x="644" y="0" name="m.uni0326"/>
  <anchor x="524" y="1490" name="m.uni030F_1"/>
  <anchor x="290" y="0" name="m.uni0327_3"/>
  <outline>
    <contour>
      <point x="515" y="628" type="qcurve" smooth="yes"/>
      <point x="411" y="0" type="line"/>
      <point x="9" y="0" type="line"/>
      <point x="256" y="1490" type="line"/>
      <point x="648" y="1490" type="line"/>
      <point x="539" y="832" type="line"/>
      <point x="520" y="832" type="line"/>
      <point x="560" y="917"/>
      <point x="666" y="1052"/>
      <point x="814" y="1132"/>
      <point x="916" y="1132" type="qcurve" smooth="yes"/>
      <point x="1035" y="1132"/>
      <point x="1200" y="1024"/>
      <point x="1273" y="834"/>
      <point x="1253" y="712" type="qcurve" smooth="yes"/>
      <point x="1135" y="0" type="line"/>
      <point x="733" y="0" type="line"/>
      <point x="837" y="628" type="line" smooth="yes"/>
      <point x="851" y="711"/>
      <point x="782" y="806"/>
      <point x="706" y="806" type="qcurve" smooth="yes"/>
      <point x="657" y="806"/>
      <point x="577" y="763"/>
      <point x="524" y="684"/>
    </contour>
  </outline>
</glyph>
<glyph name="t" format="2">
  <advance width="820"/>
  <unicode hex="0074"/>
  <anchor x="463" y="0" name="m.uni0326"/>
  <anchor x="612" y="1384" name="m.uni030F_1"/>
  <anchor x="544" y="0" name="m.uni0327_3"/>
  <outline>
    <contour>
      <point x="849" y="1118" type="line"/>
      <point x="801" y="826" type="line"/>
      <point x="65" y="826" type="line"/>
      <point x="113" y="1118" type="line"/>
    </contour>
    <contour>
      <point x="300" y="1384" type="line"/>
      <point x="702" y="1384" type="line"/>
      <point x="532" y="359" type="line"/>
      <point x="527" y="324"/>
      <point x="557" y="289"/>
      <point x="597" y="289" type="qcurve" smooth="yes"/>
      <point x="615" y="289"/>
      <point x="685" y="298"/>
      <point x="697" y="302" type="qcurve"/>
      <point x="697" y="15" type="line"/>
      <point x="625" y="-4"/>
      <point x="501" y="-17"/>
      <point x="447" y="-17" type="qcurve" smooth="yes"/>
      <point x="259" y="-17"/>
      <point x="96" y="155"/>
      <point x="124" y="322" type="qcurve" smooth="yes"/>
    </contour>
  </outline>
</glyph>
<glyph name="braceleft" format="2">
  <advance width="1035"/>
  <unicode hex="007B"/>
  <outline>
    <contour>
      <point x="148" y="627" type="qcurve"/>
      <point x="181" y="825" type="line"/>
      <point x="308" y="825"/>
      <point x="424" y="926"/>
      <point x="441" y="1033" type="qcurve"/>
      <point x="463" y="1161" type="line" smooth="yes"/>
      <point x="489" y="1318"/>
      <point x="615" y="1491"/>
      <point x="795" y="1565"/>
      <point x="1008" y="1581"/>
      <point x="1120" y="1581" type="qcurve"/>
      <point x="1072" y="1289" type="line"/>
      <point x="941" y="1289"/>
      <point x="843" y="1201"/>
      <point x="828" y="1109" type="qcurve" smooth="yes"/>
      <point x="802" y="949" type="line" smooth="yes"/>
      <point x="793" y="895"/>
      <point x="730" y="781"/>
      <point x="589" y="686"/>
      <point x="342" y="627"/>
    </contour>
    <contour>
      <point x="812" y="-279" type="line"/>
      <point x="700" y="-279"/>
      <point x="492" y="-263"/>
      <point x="337" y="-189"/>
      <point x="268" y="-16"/>
      <point x="294" y="141" type="qcurve" smooth="yes"/>
      <point x="315" y="269" type="line" smooth="yes"/>
      <point x="333" y="376"/>
      <point x="250" y="477"/>
      <point x="123" y="477" type="qcurve"/>
      <point x="156" y="675" type="line"/>
      <point x="350" y="675"/>
      <point x="578" y="616"/>
      <point x="686" y="521"/>
      <point x="712" y="407"/>
      <point x="703" y="353" type="qcurve" smooth="yes"/>
      <point x="676" y="193" type="line" smooth="yes"/>
      <point x="661" y="102"/>
      <point x="730" y="13"/>
      <point x="861" y="13" type="qcurve"/>
    </contour>
    <contour>
      <point x="123" y="477" type="line"/>
      <point x="181" y="825" type="line"/>
      <point x="521" y="825" type="line"/>
      <point x="463" y="477" type="line"/>
    </contour>
  </outline>
</glyph>
<glyph name="braceright" format="2">
  <advance width="1035"/>
  <unicode hex="007D"/>
  <outline>
    <contour>
      <point x="908" y="627" type="line"/>
      <point x="715" y="627"/>
      <point x="487" y="686"/>
      <point x="379" y="781"/>
      <point x="354" y="895"/>
      <point x="363" y="949" type="qcurve" smooth="yes"/>
      <point x="389" y="1109" type="line" smooth="yes"/>
      <point x="404" y="1201"/>
      <point x="336" y="1289"/>
      <point x="205" y="1289" type="qcurve"/>
      <point x="253" y="1581" type="line"/>
      <point x="366" y="1581"/>
      <point x="574" y="1565"/>
      <point x="730" y="1491"/>
      <point x="799" y="1318"/>
      <point x="772" y="1161" type="qcurve" smooth="yes"/>
      <point x="750" y="1033" type="line" smooth="yes"/>
      <point x="731" y="926"/>
      <point x="815" y="825"/>
      <point x="942" y="825" type="qcurve"/>
    </contour>
    <contour>
      <point x="-55" y="-279" type="qcurve"/>
      <point x="-6" y="13" type="line"/>
      <point x="125" y="13"/>
      <point x="221" y="102"/>
      <point x="237" y="193" type="qcurve" smooth="yes"/>
      <point x="264" y="353" type="line" smooth="yes"/>
      <point x="273" y="407"/>
      <point x="336" y="521"/>
      <point x="475" y="616"/>
      <point x="723" y="675"/>
      <point x="916" y="675" type="qcurve"/>
      <point x="884" y="477" type="line"/>
      <point x="757" y="477"/>
      <point x="641" y="376"/>
      <point x="624" y="269" type="qcurve" smooth="yes"/>
      <point x="603" y="141" type="line" smooth="yes"/>
      <point x="577" y="-16"/>
      <point x="450" y="-189"/>
      <point x="271" y="-263"/>
      <point x="58" y="-279"/>
    </contour>
    <contour>
      <point x="884" y="477" type="line"/>
      <point x="544" y="477" type="line"/>
      <point x="602" y="825" type="line"/>
      <point x="942" y="825" type="line"/>
    </contour>
  </outline>
</glyph>
<glyph name="exclamdown" format="2">
  <advance width="780"/>
  <unicode hex="00A1"/>
  <outline>
    <contour>
      <point x="588" y="652" type="line"/>
      <point x="448" y="-372" type="line"/>
      <point x="24" y="-372" type="line"/>
      <point x="224" y="652" type="line"/>
    </contour>
    <contour>
      <point x="487" y="1142" type="qcurve" smooth="yes"/>
      <point x="585" y="1142"/>
      <point x="683" y="1035"/>
      <point x="668" y="943" type="qcurve" smooth="yes"/>
      <point x="653" y="851"/>
      <point x="519" y="744"/>
      <point x="421" y="744" type="qcurve" smooth="yes"/>
      <point x="324" y="744"/>
      <point x="225" y="851"/>
      <point x="240" y="943" type="qcurve" smooth="yes"/>
      <point x="255" y="1035"/>
      <point x="390" y="1142"/>
    </contour>
  </outline>
</glyph>
<glyph name="ordfeminine" format="2">
  <advance width="1050"/>
  <unicode hex="00AA"/>
  <outline>
    <contour>
      <point x="702" y="862" type="qcurve" smooth="yes"/>
      <point x="760" y="1202" type="line"/>
      <point x="768" y="1261"/>
      <point x="721" y="1329"/>
      <point x="658" y="1330" type="qcurve"/>
      <point x="590" y="1329"/>
      <point x="506" y="1279"/>
      <point x="498" y="1230" type="qcurve"/>
      <point x="318" y="1242" type="line"/>
      <point x="335" y="1345"/>
      <point x="535" y="1478"/>
      <point x="680" y="1478" type="qcurve" smooth="yes"/>
      <point x="818" y="1478"/>
      <point x="965" y="1339"/>
      <point x="942" y="1202" type="qcurve" smooth="yes"/>
      <point x="890" y="888" type="line" smooth="yes"/>
      <point x="883" y="848"/>
      <point x="877" y="754"/>
      <point x="888" y="704" type="qcurve"/>
      <point x="702" y="704" type="line"/>
      <point x="697" y="737"/>
      <point x="695" y="818"/>
    </contour>
    <contour>
      <point x="798" y="1150" type="line"/>
      <point x="776" y="1032" type="line"/>
      <point x="626" y="1032" type="line"/>
      <point x="536" y="1033"/>
      <point x="440" y="966"/>
      <point x="434" y="922" type="qcurve"/>
      <point x="427" y="883"/>
      <point x="478" y="835"/>
      <point x="542" y="834" type="qcurve"/>
      <point x="584" y="835"/>
      <point x="677" y="873"/>
      <point x="745" y="927"/>
      <point x="748" y="952" type="qcurve"/>
      <point x="748" y="832" type="line"/>
      <point x="715" y="782"/>
      <point x="579" y="692"/>
      <point x="472" y="692" type="qcurve" smooth="yes"/>
      <point x="347" y="692"/>
      <point x="233" y="817"/>
      <point x="250" y="920" type="qcurve"/>
      <point x="267" y="1031"/>
      <point x="465" y="1149"/>
      <point x="646" y="1150" type="qcurve"/>
    </contour>
  </outline>
</glyph>
<glyph name="paragraph" format="2">
  <advance width="1224"/>
  <unicode hex="00B6"/>
  <outline>
    <contour>
      <point x="1197" y="1198" type="line"/>
      <point x="761" y="1198" type="line"/>
      <point x="657" y="552" type="line"/>
      <point x="569" y="552" type="line" smooth="yes"/>
      <point x="402" y="552"/>
      <point x="191" y="674"/>
      <point x="108" y="887"/>
      <point x="129" y="1022" type="qcurve"/>
      <point x="153" y="1156"/>
      <point x="306" y="1367"/>
      <point x="556" y="1490"/>
      <point x="723" y="1490" type="qcurve" smooth="yes"/>
      <point x="1247" y="1490" type="line"/>
    </contour>
    <contour>
      <point x="743" y="0" type="line"/>
      <point x="991" y="1490" type="line"/>
      <point x="1281" y="1490" type="line"/>
      <point x="1035" y="0" type="line"/>
    </contour>
  </outline>
</glyph>
<glyph name="questiondown" format="2">
  <advance width="1228"/>
  <unicode hex="00BF"/>
  <outline>
    <contour>
      <point x="844" y="628" type="line"/>
      <point x="838" y="594" type="line" smooth="yes"/>
      <point x="817" y="474"/>
      <point x="756" y="331"/>
      <point x="669" y="245"/>
      <point x="609" y="210" type="qcurve" smooth="yes"/>
      <point x="533" y="164"/>
      <point x="425" y="79"/>
      <point x="415" y="18" type="qcurve" smooth="yes"/>
      <point x="409" y="-18"/>
      <point x="435" y="-73"/>
      <point x="489" y="-104"/>
      <point x="525" y="-104" type="qcurve" smooth="yes"/>
      <point x="565" y="-104"/>
      <point x="637" y="-68"/>
      <point x="687" y="-4"/>
      <point x="694" y="38" type="qcurve"/>
      <point x="1066" y="38" type="line"/>
      <point x="1040" y="-122"/>
      <point x="882" y="-322"/>
      <point x="649" y="-416"/>
      <point x="507" y="-416" type="qcurve" smooth="yes"/>
      <point x="352" y="-416"/>
      <point x="104" y="-325"/>
      <point x="-25" y="-142"/>
      <point x="-3" y="-6" type="qcurve" smooth="yes"/>
      <point x="19" y="127"/>
      <point x="179" y="296"/>
      <point x="297" y="358" type="qcurve" smooth="yes"/>
      <point x="355" y="389"/>
      <point x="436" y="453"/>
      <point x="486" y="536"/>
      <point x="496" y="594" type="qcurve" smooth="yes"/>
      <point x="502" y="628" type="line"/>
    </contour>
    <contour>
      <point x="754" y="1118" type="qcurve" smooth="yes"/>
      <point x="852" y="1118"/>
      <point x="950" y="1011"/>
      <point x="935" y="919" type="qcurve" smooth="yes"/>
      <point x="920" y="827"/>
      <point x="786" y="720"/>
      <point x="688" y="720" type="qcurve" smooth="yes"/>
      <point x="591" y="720"/>
      <point x="492" y="827"/>
      <point x="507" y="919" type="qcurve" smooth="yes"/>
      <point x="522" y="1011"/>
      <point x="657" y="1118"/>
    </contour>
  </outline>
</glyph>
<glyph name="Thorn" format="2">
  <advance width="1428"/>
  <unicode hex="00DE"/>
  <outline>
    <contour>
      <point x="254" y="1490" type="line"/>
      <point x="658" y="1490" type="line"/>
      <point x="410" y="0" type="line"/>
      <point x="6" y="0" type="line"/>
    </contour>
    <contour>
      <point x="398" y="1240" type="line"/>
      <point x="788" y="1240" type="line" smooth="yes"/>
      <point x="982" y="1240"/>
      <point x="1229" y="1118"/>
      <point x="1333" y="905"/>
      <point x="1310" y="766" type="qcurve" smooth="yes"/>
      <point x="1287" y="626"/>
      <point x="1112" y="413"/>
      <point x="825" y="294"/>
      <point x="632" y="294" type="qcurve" smooth="yes"/>
      <point x="242" y="294" type="line"/>
      <point x="290" y="590" type="line"/>
      <point x="680" y="590" type="line"/>
      <point x="761" y="591"/>
      <point x="862" y="644"/>
      <point x="915" y="723"/>
      <point x="922" y="762" type="qcurve"/>
      <point x="928" y="803"/>
      <point x="902" y="885"/>
      <point x="819" y="940"/>
      <point x="738" y="940" type="qcurve" smooth="yes"/>
      <point x="350" y="940" type="line"/>
    </contour>
  </outline>
</glyph>
<glyph name="germandbls" format="2">
  <advance width="1418"/>
  <unicode hex="00DF"/>
  <outline>
    <contour>
      <point x="3" y="0" type="line"/>
      <point x="184" y="1088" type="line" smooth="yes"/>
      <point x="206" y="1220"/>
      <point x="375" y="1409"/>
      <point x="647" y="1510"/>
      <point x="821" y="1510" type="qcurve" smooth="yes"/>
      <point x="980" y="1510"/>
      <point x="1236" y="1420"/>
      <point x="1372" y="1236"/>
      <point x="1349" y="1094" type="qcurve" smooth="yes"/>
      <point x="1331" y="987"/>
      <point x="1200" y="829"/>
      <point x="1099" y="806" type="qcurve"/>
      <point x="1096" y="788" type="line"/>
      <point x="1242" y="781"/>
      <point x="1371" y="568"/>
      <point x="1345" y="410" type="qcurve" smooth="yes"/>
      <point x="1322" y="271"/>
      <point x="1161" y="89"/>
      <point x="917" y="0"/>
      <point x="769" y="0" type="qcurve" smooth="yes"/>
      <point x="549" y="0" type="line"/>
      <point x="601" y="314" type="line"/>
      <point x="735" y="314" type="line" smooth="yes"/>
      <point x="792" y="314"/>
      <point x="882" y="349"/>
      <point x="939" y="415"/>
      <point x="946" y="460" type="qcurve" smooth="yes"/>
      <point x="957" y="529"/>
      <point x="858" y="606"/>
      <point x="762" y="606" type="qcurve" smooth="yes"/>
      <point x="656" y="606" type="line"/>
      <point x="704" y="898" type="line"/>
      <point x="772" y="898" type="line" smooth="yes"/>
      <point x="811" y="898"/>
      <point x="875" y="934"/>
      <point x="919" y="996"/>
      <point x="925" y="1036" type="qcurve" smooth="yes"/>
      <point x="936" y="1102"/>
      <point x="861" y="1184"/>
      <point x="781" y="1184" type="qcurve" smooth="yes"/>
      <point x="697" y="1184"/>
      <point x="587" y="1092"/>
      <point x="573" y="1012" type="qcurve"/>
      <point x="405" y="0" type="line"/>
    </contour>
  </outline>
</glyph>
<glyph name="divide" format="2">
  <advance width="1420"/>
  <unicode hex="00F7"/>
  <outline>
    <contour>
      <point x="1280" y="756" type="line"/>
      <point x="1230" y="454" type="line"/>
      <point x="154" y="454" type="line"/>
      <point x="204" y="756" type="line"/>
    </contour>
    <contour>
      <point x="634" y="-24" type="qcurve"/>
      <point x="540" y="-23"/>
      <point x="430" y="112"/>
      <point x="446" y="206" type="qcurve" smooth="yes"/>
      <point x="455" y="257"/>
      <point x="518" y="339"/>
      <point x="610" y="387"/>
      <point x="660" y="386" type="qcurve"/>
      <point x="754" y="387"/>
      <point x="863" y="254"/>
      <point x="846" y="160" type="qcurve" smooth="yes"/>
      <point x="833" y="84"/>
      <point x="711" y="-23"/>
    </contour>
    <contour>
      <point x="776" y="824" type="qcurve"/>
      <point x="714" y="824"/>
      <point x="620" y="886"/>
      <point x="574" y="991"/>
      <point x="584" y="1054" type="qcurve"/>
      <point x="598" y="1130"/>
      <point x="724" y="1233"/>
      <point x="800" y="1234" type="qcurve"/>
      <point x="894" y="1233"/>
      <point x="1000" y="1101"/>
      <point x="986" y="1006" type="qcurve"/>
      <point x="976" y="930"/>
      <point x="853" y="823"/>
    </contour>
  </outline>
</glyph>
<glyph name="OE" format="2">
  <advance width="2154"/>
  <unicode hex="0152"/>
  <anchor x="1489" y="0" name="m.uni0326"/>
  <anchor x="1736" y="1490" name="m.uni030F_1"/>
  <anchor x="1478" y="0" name="m.uni0327_3"/>
  <anchor x="2114" y="0" name="m.uni0328_4"/>
  <outline>
    <contour>
      <point x="668" y="0" type="line" smooth="yes"/>
      <point x="475" y="0"/>
      <point x="188" y="160"/>
      <point x="58" y="489"/>
      <point x="100" y="742" type="qcurve"/>
      <point x="141" y="997"/>
      <point x="381" y="1328"/>
      <point x="722" y="1490"/>
      <point x="914" y="1490" type="qcurve" smooth="yes"/>
      <point x="1282" y="1490" type="line"/>
      <point x="1226" y="1164" type="line"/>
      <point x="860" y="1164" type="line" smooth="yes"/>
      <point x="779" y="1164"/>
      <point x="639" y="1089"/>
      <point x="537" y="905"/>
      <point x="510" y="742" type="qcurve" smooth="yes"/>
      <point x="483" y="578"/>
      <point x="526" y="397"/>
      <point x="642" y="326"/>
      <point x="722" y="326" type="qcurve" smooth="yes"/>
      <point x="1090" y="326" type="line"/>
      <point x="1034" y="0" type="line"/>
    </contour>
    <contour>
      <point x="883" y="0" type="line"/>
      <point x="1130" y="1490" type="line"/>
      <point x="2204" y="1490" type="line"/>
      <point x="2150" y="1164" type="line"/>
      <point x="1480" y="1164" type="line"/>
      <point x="1438" y="912" type="line"/>
      <point x="2052" y="912" type="line"/>
      <point x="1999" y="594" type="line"/>
      <point x="1385" y="594" type="line"/>
      <point x="1341" y="326" type="line"/>
      <point x="2007" y="326" type="line"/>
      <point x="1953" y="0" type="line"/>
    </contour>
  </outline>
</glyph>
<glyph name="uni0186" format="2">
  <advance width="1532"/>
  <unicode hex="0186"/>
  <anchor x="680" y="0" name="m.uni030F_1"/>
  <anchor x="941" y="1478" name="m.uni0327_3"/>
  <outline>
    <contour>
      <point x="880" y="1510" type="qcurve" smooth="yes"/>
      <point x="1065" y="1510"/>
      <point x="1345" y="1368"/>
      <point x="1503" y="1095"/>
      <point x="1503" y="896" type="qcurve" smooth="yes"/>
      <point x="1503" y="709"/>
      <point x="1386" y="378"/>
      <point x="1166" y="124"/>
      <point x="859" y="-20"/>
      <point x="668" y="-20" type="qcurve" smooth="yes"/>
      <point x="528" y="-20"/>
      <point x="299" y="54"/>
      <point x="137" y="197"/>
      <point x="57" y="408"/>
      <point x="65" y="544" type="qcurve"/>
      <point x="475" y="544" type="line"/>
      <point x="473" y="496"/>
      <point x="495" y="418"/>
      <point x="545" y="362"/>
      <point x="621" y="332"/>
      <point x="673" y="332" type="qcurve" smooth="yes"/>
      <point x="780" y="332"/>
      <point x="938" y="434"/>
      <point x="1041" y="601"/>
      <point x="1092" y="799"/>
      <point x="1092" y="895" type="qcurve" smooth="yes"/>
      <point x="1092" y="984"/>
      <point x="1037" y="1100"/>
      <point x="931" y="1158"/>
      <point x="853" y="1158" type="qcurve" smooth="yes"/>
      <point x="794" y="1158"/>
      <point x="693" y="1128"/>
      <point x="612" y="1072"/>
      <point x="554" y="994"/>
      <point x="539" y="946" type="qcurve"/>
      <point x="129" y="946" type="line"/>
      <point x="152" y="1041"/>
      <point x="273" y="1239"/>
      <point x="463" y="1407"/>
      <point x="720" y="1510"/>
    </contour>
  </outline>
</glyph>
<glyph name="uni018F" format="2">
  <advance width="1545"/>
  <unicode hex="018F"/>
  <outline>
    <contour>
      <point x="657" y="-20" type="qcurve" smooth="yes"/>
      <point x="462" y="-20"/>
      <point x="181" y="133"/>
      <point x="52" y="422"/>
      <point x="86" y="626" type="qcurve" smooth="yes"/>
      <point x="120" y="832" type="line"/>
      <point x="1194" y="832" type="line"/>
      <point x="1146" y="544" type="line"/>
      <point x="392" y="544" type="line"/>
      <point x="463" y="552" type="line"/>
      <point x="452" y="485"/>
      <point x="501" y="386"/>
      <point x="619" y="332"/>
      <point x="711" y="332" type="qcurve" smooth="yes"/>
      <point x="816" y="332"/>
      <point x="970" y="431"/>
      <point x="1068" y="617"/>
      <point x="1090" y="748" type="qcurve" smooth="yes"/>
      <point x="1112" y="877"/>
      <point x="1070" y="1061"/>
      <point x="948" y="1158"/>
      <point x="846" y="1158" type="qcurve" smooth="yes"/>
      <point x="798" y="1158"/>
      <point x="713" y="1137"/>
      <point x="642" y="1096"/>
      <point x="589" y="1036"/>
      <point x="573" y="998" type="qcurve"/>
      <point x="165" y="998" type="line"/>
      <point x="195" y="1110"/>
      <point x="334" y="1297"/>
      <point x="532" y="1435"/>
      <point x="772" y="1510"/>
      <point x="904" y="1510" type="qcurve" smooth="yes"/>
      <point x="1105" y="1510"/>
      <point x="1406" y="1331"/>
      <point x="1546" y="988"/>
      <point x="1505" y="742" type="qcurve" smooth="yes"/>
      <point x="1476" y="565"/>
      <point x="1327" y="284"/>
      <point x="1103" y="85"/>
      <point x="820" y="-20"/>
    </contour>
  </outline>
</glyph>
<glyph name="florin" format="2">
  <advance width="1074"/>
  <unicode hex="0192"/>
  <outline>
    <contour>
      <point x="1016" y="1082" type="line"/>
      <point x="972" y="814" type="line"/>
      <point x="744" y="814" type="line"/>
      <point x="610" y="6" type="line"/>
      <point x="588" y="-132"/>
      <point x="456" y="-322"/>
      <point x="252" y="-418"/>
      <point x="120" y="-418" type="qcurve"/>
      <point x="77" y="-419"/>
      <point x="-3" y="-413"/>
      <point x="-52" y="-404" type="qcurve"/>
      <point x="12" y="-108" type="line"/>
      <point x="30" y="-112"/>
      <point x="79" y="-119"/>
      <point x="102" y="-120" type="qcurve"/>
      <point x="177" y="-119"/>
      <point x="220" y="-51"/>
      <point x="230" y="6" type="qcurve" smooth="yes"/>
      <point x="364" y="814" type="line"/>
      <point x="204" y="814" type="line"/>
      <point x="248" y="1082" type="line"/>
      <point x="408" y="1082" type="line"/>
      <point x="418" y="1160" type="line"/>
      <point x="441" y="1290"/>
      <point x="583" y="1466"/>
      <point x="809" y="1556"/>
      <point x="958" y="1556" type="qcurve" smooth="yes"/>
      <point x="1008" y="1556"/>
      <point x="1086" y="1546"/>
      <point x="1128" y="1538" type="qcurve"/>
      <point x="1062" y="1254" type="line"/>
      <point x="1039" y="1259"/>
      <point x="991" y="1263"/>
      <point x="948" y="1262" type="qcurve"/>
      <point x="890" y="1263"/>
      <point x="810" y="1211"/>
      <point x="800" y="1160" type="qcurve"/>
      <point x="788" y="1082" type="line"/>
    </contour>
  </outline>
</glyph>
<glyph name="uni0198" format="2">
  <advance width="1570"/>
  <unicode hex="0198"/>
  <outline>
    <contour>
      <point x="2" y="0" type="line"/>
      <point x="250" y="1490" type="line"/>
      <point x="654" y="1490" type="line"/>
      <point x="558" y="914" type="line"/>
      <point x="578" y="914" type="line"/>
      <point x="1074" y="1342" type="line" smooth="yes"/>
      <point x="1178" y="1431"/>
      <point x="1387" y="1516"/>
      <point x="1598" y="1498"/>
      <point x="1704" y="1434" type="qcurve"/>
      <point x="1538" y="1152" type="line"/>
      <point x="1474" y="1185"/>
      <point x="1385" y="1141"/>
      <point x="1332" y="1096" type="qcurve" smooth="yes"/>
      <point x="978" y="792" type="line"/>
      <point x="1454" y="0" type="line"/>
      <point x="972" y="0" type="line"/>
      <point x="670" y="504" type="line"/>
      <point x="460" y="320" type="line"/>
      <point x="408" y="0" type="line"/>
    </contour>
  </outline>
</glyph>
<glyph name="Ohorn" format="2">
  <advance width="1628"/>
  <unicode hex="01A0"/>
  <anchor x="700" y="0" name="m.uni0326"/>
  <anchor x="947" y="1490" name="m.uni030F_1"/>
  <anchor x="1603" y="888" name="m.uni0328_4"/>
  <outline>
    <contour>
      <point x="931" y="1270" type="qcurve"/>
      <point x="971" y="1510" type="line"/>
      <point x="1006" y="1510"/>
      <point x="1063" y="1506"/>
      <point x="1120" y="1500"/>
      <point x="1183" y="1494"/>
      <point x="1261" y="1490"/>
      <point x="1312" y="1490" type="qcurve" smooth="yes"/>
      <point x="1343" y="1490"/>
      <point x="1349" y="1522" type="qcurve"/>
      <point x="1378" y="1698" type="line"/>
      <point x="1726" y="1698" type="line"/>
      <point x="1692" y="1490" type="line" smooth="yes"/>
      <point x="1671" y="1366"/>
      <point x="1505" y="1266"/>
      <point x="1397" y="1266" type="qcurve" smooth="yes"/>
      <point x="1339" y="1266"/>
      <point x="1222" y="1267"/>
      <point x="1106" y="1269"/>
      <point x="989" y="1270"/>
    </contour>
    <contour>
      <point x="720" y="-20" type="qcurve" smooth="yes"/>
      <point x="536" y="-20"/>
      <point x="252" y="123"/>
      <point x="91" y="398"/>
      <point x="91" y="597" type="qcurve" smooth="yes"/>
      <point x="91" y="784"/>
      <point x="209" y="1115"/>
      <point x="430" y="1367"/>
      <point x="740" y="1510"/>
      <point x="932" y="1510" type="qcurve" smooth="yes"/>
      <point x="1115" y="1510"/>
      <point x="1398" y="1368"/>
      <point x="1560" y="1092"/>
      <point x="1560" y="892" type="qcurve" smooth="yes"/>
      <point x="1560" y="705"/>
      <point x="1441" y="375"/>
      <point x="1220" y="123"/>
      <point x="911" y="-20"/>
    </contour>
    <contour>
      <point x="737" y="332" type="qcurve" smooth="yes"/>
      <point x="846" y="332"/>
      <point x="1002" y="435"/>
      <point x="1102" y="604"/>
      <point x="1149" y="802"/>
      <point x="1149" y="896" type="qcurve" smooth="yes"/>
      <point x="1149" y="983"/>
      <point x="1097" y="1099"/>
      <point x="993" y="1158"/>
      <point x="915" y="1158" type="qcurve" smooth="yes"/>
      <point x="806" y="1158"/>
      <point x="649" y="1054"/>
      <point x="549" y="885"/>
      <point x="502" y="688"/>
      <point x="502" y="594" type="qcurve" smooth="yes"/>
      <point x="502" y="508"/>
      <point x="555" y="391"/>
      <point x="659" y="332"/>
    </contour>
  </outline>
</glyph>
<glyph name="uni01AB" format="2">
  <advance width="820"/>
  <unicode hex="01AB"/>
  <anchor x="463" y="0" name="m.uni0326"/>
  <anchor x="612" y="1384" name="m.uni030F_1"/>
  <anchor x="544" y="0" name="m.uni0327_3"/>
  <outline>
    <contour>
      <point x="5" y="-420" type="qcurve"/>
      <point x="50" y="-147" type="line"/>
      <point x="79" y="-151"/>
      <point x="135" y="-156"/>
      <point x="164" y="-156" type="qcurve" smooth="yes"/>
      <point x="230" y="-156"/>
      <point x="295" y="-103"/>
      <point x="295" y="-50" type="qcurve" smooth="yes"/>
      <point x="295" y="15" type="line"/>
      <point x="697" y="15" type="line"/>
      <point x="698" y="-25" type="line" smooth="yes"/>
      <point x="703" y="-153"/>
      <point x="584" y="-342"/>
      <point x="357" y="-444"/>
      <point x="199" y="-444" type="qcurve" smooth="yes"/>
      <point x="144" y="-444"/>
      <point x="47" y="-432"/>
    </contour>
    <contour>
      <point x="300" y="1384" type="line"/>
      <point x="702" y="1384" type="line"/>
      <point x="532" y="359" type="line"/>
      <point x="527" y="324"/>
      <point x="557" y="289"/>
      <point x="597" y="289" type="qcurve" smooth="yes"/>
      <point x="615" y="289"/>
      <point x="685" y="298"/>
      <point x="697" y="302" type="qcurve"/>
      <point x="697" y="15" type="line"/>
      <point x="625" y="-4"/>
      <point x="501" y="-17"/>
      <point x="447" y="-17" type="qcurve" smooth="yes"/>
      <point x="259" y="-17"/>
      <point x="96" y="155"/>
      <point x="124" y="322" type="qcurve" smooth="yes"/>
    </contour>
    <contour>
      <point x="849" y="1118" type="line"/>
      <point x="801" y="826" type="line"/>
      <point x="65" y="826" type="line"/>
      <point x="113" y="1118" type="line"/>
    </contour>
  </outline>
</glyph>
<glyph name="uni01B9" format="2">
  <advance width="1383"/>
  <unicode hex="01B9"/>
  <anchor x="893" y="1304" name="m.uni030F_1"/>
  <outline>
    <contour>
      <point x="541" y="-392" type="qcurve" smooth="yes"/>
      <point x="368" y="-392"/>
      <point x="107" y="-281"/>
      <point x="-23" y="-80"/>
      <point x="-1" y="56" type="qcurve" smooth="yes"/>
      <point x="13" y="139"/>
      <point x="119" y="310"/>
      <point x="335" y="441"/>
      <point x="514" y="462" type="qcurve"/>
      <point x="516" y="474" type="line"/>
      <point x="173" y="826" type="line"/>
      <point x="221" y="1118" type="line"/>
      <point x="1323" y="1118" type="line"/>
      <point x="1269" y="794" type="line"/>
      <point x="647" y="794" type="line"/>
      <point x="646" y="786" type="line"/>
      <point x="903" y="512" type="line"/>
      <point x="858" y="244" type="line"/>
      <point x="670" y="244" type="line" smooth="yes"/>
      <point x="608" y="244"/>
      <point x="507" y="208"/>
      <point x="441" y="139"/>
      <point x="433" y="90" type="qcurve" smooth="yes"/>
      <point x="426" y="46"/>
      <point x="459" y="-25"/>
      <point x="537" y="-66"/>
      <point x="595" y="-66" type="qcurve" smooth="yes"/>
      <point x="651" y="-66"/>
      <point x="747" y="-28"/>
      <point x="813" y="39"/>
      <point x="822" y="82" type="qcurve"/>
      <point x="1228" y="82" type="line"/>
      <point x="1203" y="-56"/>
      <point x="1017" y="-270"/>
      <point x="725" y="-392"/>
    </contour>
  </outline>
</glyph>
<glyph name="eturn" format="2">
  <advance width="1232"/>
  <unicode hex="01DD"/>
  <anchor x="567" y="14" name="m.uni0326"/>
  <anchor x="744" y="1118" name="m.uni030F_1"/>
  <anchor x="746" y="1118" name="m.uni0327_3"/>
  <anchor x="61" y="739" name="m.uni0328_4"/>
  <outline>
    <contour>
      <point x="666" y="1142" type="qcurve" smooth="yes"/>
      <point x="825" y="1142"/>
      <point x="1056" y="1032"/>
      <point x="1181" y="827"/>
      <point x="1181" y="682" type="qcurve" smooth="yes"/>
      <point x="1181" y="546"/>
      <point x="1088" y="295"/>
      <point x="913" y="100"/>
      <point x="665" y="-14"/>
      <point x="510" y="-14" type="qcurve" smooth="yes"/>
      <point x="383" y="-14"/>
      <point x="173" y="67"/>
      <point x="48" y="221"/>
      <point x="48" y="329" type="qcurve" smooth="yes"/>
      <point x="48" y="442"/>
      <point x="191" y="578"/>
      <point x="458" y="646"/>
      <point x="831" y="668"/>
      <point x="1062" y="668" type="qcurve"/>
      <point x="1025" y="448" type="line"/>
      <point x="826" y="448"/>
      <point x="583" y="442"/>
      <point x="456" y="423"/>
      <point x="411" y="389"/>
      <point x="411" y="360" type="qcurve" smooth="yes"/>
      <point x="411" y="316"/>
      <point x="484" y="268"/>
      <point x="552" y="268" type="qcurve" smooth="yes"/>
      <point x="637" y="268"/>
      <point x="735" y="363"/>
      <point x="780" y="503"/>
      <point x="793" y="645"/>
      <point x="793" y="692" type="qcurve" smooth="yes"/>
      <point x="793" y="741"/>
      <point x="766" y="816"/>
      <point x="698" y="859"/>
      <point x="635" y="859" type="qcurve" smooth="yes"/>
      <point x="568" y="859"/>
      <point x="467" y="807"/>
      <point x="451" y="758" type="qcurve"/>
      <point x="94" y="784" type="line"/>
      <point x="144" y="943"/>
      <point x="443" y="1142"/>
    </contour>
  </outline>
</glyph>
<glyph name="uni0222" format="2">
  <advance width="1428"/>
  <unicode hex="0222"/>
  <outline>
    <contour>
      <point x="770" y="954" type="qcurve" smooth="yes"/>
      <point x="792" y="954" type="line" smooth="yes"/>
      <point x="975" y="954"/>
      <point x="1216" y="843"/>
      <point x="1319" y="634"/>
      <point x="1294" y="486" type="qcurve" smooth="yes"/>
      <point x="1268" y="332"/>
      <point x="1086" y="105"/>
      <point x="806" y="-20"/>
      <point x="630" y="-20" type="qcurve" smooth="yes"/>
      <point x="610" y="-20" type="line" smooth="yes"/>
      <point x="433" y="-20"/>
      <point x="190" y="104"/>
      <point x="83" y="330"/>
      <point x="108" y="482" type="qcurve" smooth="yes"/>
      <point x="132" y="632"/>
      <point x="304" y="843"/>
      <point x="585" y="954"/>
    </contour>
    <contour>
      <point x="746" y="684" type="qcurve" smooth="yes"/>
      <point x="726" y="684" type="line" smooth="yes"/>
      <point x="641" y="684"/>
      <point x="522" y="574"/>
      <point x="506" y="482" type="qcurve" smooth="yes"/>
      <point x="491" y="394"/>
      <point x="575" y="285"/>
      <point x="660" y="286" type="qcurve"/>
      <point x="680" y="286" type="line"/>
      <point x="763" y="285"/>
      <point x="880" y="392"/>
      <point x="894" y="486" type="qcurve" smooth="yes"/>
      <point x="908" y="578"/>
      <point x="829" y="684"/>
    </contour>
    <contour>
      <point x="776" y="998" type="qcurve" smooth="yes"/>
      <point x="796" y="998" type="line" smooth="yes"/>
      <point x="862" y="998"/>
      <point x="949" y="1017"/>
      <point x="997" y="1068"/>
      <point x="1004" y="1114" type="qcurve" smooth="yes"/>
      <point x="1010" y="1155"/>
      <point x="983" y="1200"/>
      <point x="944" y="1208" type="qcurve"/>
      <point x="994" y="1510" type="line"/>
      <point x="1145" y="1513"/>
      <point x="1341" y="1418"/>
      <point x="1423" y="1239"/>
      <point x="1402" y="1114" type="qcurve" smooth="yes"/>
      <point x="1382" y="988"/>
      <point x="1215" y="817"/>
      <point x="937" y="730"/>
      <point x="750" y="730" type="qcurve" smooth="yes"/>
      <point x="730" y="730" type="line" smooth="yes"/>
      <point x="590" y="730"/>
      <point x="382" y="778"/>
      <point x="250" y="874"/>
      <point x="197" y="1018"/>
      <point x="212" y="1114" type="qcurve" smooth="yes"/>
      <point x="233" y="1240"/>
      <point x="372" y="1419"/>
      <point x="599" y="1513"/>
      <point x="750" y="1510" type="qcurve"/>
      <point x="700" y="1208" type="line"/>
      <point x="657" y="1201"/>
      <point x="618" y="1156"/>
      <point x="610" y="1114" type="qcurve"/>
      <point x="603" y="1066"/>
      <point x="632" y="1016"/>
      <point x="710" y="998"/>
    </contour>
  </outline>
</glyph>
<glyph name="uni0240" format="2">
  <advance width="1208"/>
  <unicode hex="0240"/>
  <outline>
    <contour>
      <point x="21" y="0" type="line"/>
      <point x="58" y="222" type="line"/>
      <point x="642" y="806" type="line"/>
      <point x="643" y="812" type="line"/>
      <point x="171" y="812" type="line"/>
      <point x="222" y="1118" type="line"/>
      <point x="1168" y="1118" type="line"/>
      <point x="1127" y="872" type="line"/>
      <point x="591" y="312" type="line"/>
      <point x="539" y="0" type="line"/>
    </contour>
    <contour>
      <point x="1052" y="-420" type="qcurve" smooth="yes"/>
      <point x="926" y="-420"/>
      <point x="756" y="-344"/>
      <point x="651" y="-181"/>
      <point x="620" y="-53" type="qcurve" smooth="yes"/>
      <point x="616" y="-34"/>
      <point x="601" y="-11"/>
      <point x="579" y="0"/>
      <point x="564" y="0" type="qcurve" smooth="yes"/>
      <point x="475" y="0" type="line"/>
      <point x="526" y="306" type="line"/>
      <point x="680" y="306" type="line" smooth="yes"/>
      <point x="735" y="306"/>
      <point x="842" y="257"/>
      <point x="919" y="158"/>
      <point x="928" y="83" type="qcurve" smooth="yes"/>
      <point x="936" y="13"/>
      <point x="978" y="-75"/>
      <point x="1050" y="-116"/>
      <point x="1103" y="-116" type="qcurve" smooth="yes"/>
      <point x="1138" y="-116"/>
      <point x="1243" y="-81"/>
      <point x="1290" y="-58" type="qcurve"/>
      <point x="1378" y="-335" type="line"/>
      <point x="1297" y="-375"/>
      <point x="1138" y="-420"/>
    </contour>
  </outline>
</glyph>
<glyph name="erev" format="2">
  <advance width="1222"/>
  <unicode hex="0258"/>
  <outline>
    <contour>
      <point x="460" y="-20" type="qcurve" smooth="yes"/>
      <point x="351" y="-20"/>
      <point x="183" y="34"/>
      <point x="68" y="118"/>
      <point x="38" y="162" type="qcurve"/>
      <point x="244" y="378" type="line"/>
      <point x="284" y="322"/>
      <point x="412" y="282"/>
      <point x="470" y="282" type="qcurve" smooth="yes"/>
      <point x="553" y="282"/>
      <point x="677" y="342"/>
      <point x="755" y="449"/>
      <point x="766" y="520" type="qcurve"/>
      <point x="770" y="558" type="line"/>
      <point x="775" y="588"/>
      <point x="781" y="680"/>
      <point x="762" y="770"/>
      <point x="695" y="832"/>
      <point x="626" y="832" type="qcurve" smooth="yes"/>
      <point x="582" y="832"/>
      <point x="514" y="802"/>
      <point x="471" y="746"/>
      <point x="462" y="706" type="qcurve"/>
      <point x="450" y="664" type="line"/>
      <point x="1026" y="664" type="line"/>
      <point x="990" y="434" type="line"/>
      <point x="50" y="434" type="line"/>
      <point x="76" y="590" type="line" smooth="yes"/>
      <point x="105" y="762"/>
      <point x="271" y="1004"/>
      <point x="527" y="1132"/>
      <point x="690" y="1132" type="qcurve" smooth="yes"/>
      <point x="877" y="1132"/>
      <point x="1095" y="975"/>
      <point x="1174" y="715"/>
      <point x="1150" y="558" type="qcurve" smooth="yes"/>
      <point x="1144" y="520" type="line" smooth="yes"/>
      <point x="1128" y="418"/>
      <point x="1017" y="225"/>
      <point x="839" y="71"/>
      <point x="602" y="-20"/>
    </contour>
  </outline>
</glyph>
<glyph name="epsilon1revhook" format="2">
  <advance width="1648"/>
  <unicode hex="025D"/>
  <anchor x="744" y="1118" name="m.uni030F_1"/>
  <outline>
    <contour>
      <point x="998" y="646" type="line"/>
      <point x="1038" y="888" type="line"/>
      <point x="1440" y="972" type="line"/>
      <point x="1439" y="862"/>
      <point x="1435" y="708"/>
      <point x="1473" y="628"/>
      <point x="1533" y="628" type="qcurve" smooth="yes"/>
      <point x="1547" y="628"/>
      <point x="1574" y="626"/>
      <point x="1591" y="628" type="qcurve"/>
      <point x="1600" y="392" type="line"/>
      <point x="1557" y="371"/>
      <point x="1456" y="350"/>
      <point x="1411" y="350" type="qcurve" smooth="yes"/>
      <point x="1303" y="350"/>
      <point x="1203" y="440"/>
      <point x="1172" y="594"/>
      <point x="1165" y="690" type="qcurve"/>
    </contour>
    <contour>
      <point x="480" y="-20" type="qcurve" smooth="yes"/>
      <point x="320" y="-20"/>
      <point x="117" y="56"/>
      <point x="19" y="211"/>
      <point x="14" y="328" type="qcurve"/>
      <point x="363" y="380" type="line"/>
      <point x="362" y="336"/>
      <point x="394" y="280"/>
      <point x="468" y="254"/>
      <point x="529" y="254" type="qcurve" smooth="yes"/>
      <point x="625" y="254"/>
      <point x="713" y="309"/>
      <point x="720" y="354" type="qcurve" smooth="yes"/>
      <point x="726" y="388"/>
      <point x="694" y="436"/>
      <point x="618" y="462"/>
      <point x="557" y="462" type="qcurve" smooth="yes"/>
      <point x="383" y="462" type="line"/>
      <point x="404" y="588" type="line"/>
      <point x="678" y="588" type="line" smooth="yes"/>
      <point x="783" y="588"/>
      <point x="944" y="551"/>
      <point x="1050" y="480"/>
      <point x="1095" y="375"/>
      <point x="1084" y="306" type="qcurve" smooth="yes"/>
      <point x="1066" y="199"/>
      <point x="898" y="54"/>
      <point x="638" y="-20"/>
    </contour>
    <contour>
      <point x="671" y="546" type="qcurve" smooth="yes"/>
      <point x="397" y="546" type="line"/>
      <point x="419" y="676" type="line"/>
      <point x="593" y="676" type="line" smooth="yes"/>
      <point x="662" y="676"/>
      <point x="759" y="727"/>
      <point x="766" y="766" type="qcurve"/>
      <point x="771" y="801"/>
      <point x="704" y="858"/>
      <point x="627" y="858" type="qcurve" smooth="yes"/>
      <point x="558" y="858"/>
      <point x="466" y="806"/>
      <point x="449" y="762" type="qcurve"/>
      <point x="109" y="814" type="line"/>
      <point x="147" y="922"/>
      <point x="302" y="1063"/>
      <point x="527" y="1132"/>
      <point x="670" y="1132" type="qcurve" smooth="yes"/>
      <point x="820" y="1132"/>
      <point x="1050" y="1059"/>
      <point x="1169" y="918"/>
      <point x="1152" y="814" type="qcurve" smooth="yes"/>
      <point x="1140" y="745"/>
      <point x="1058" y="644"/>
      <point x="930" y="578"/>
      <point x="765" y="546"/>
    </contour>
  </outline>
</glyph>
<glyph name="epsilon1revclosed" format="2">
  <advance width="1226"/>
  <unicode hex="025E"/>
  <outline>
    <contour>
      <point x="544" y="-20" type="qcurve" smooth="yes"/>
      <point x="351" y="-20"/>
      <point x="115" y="109"/>
      <point x="29" y="366"/>
      <point x="61" y="559" type="qcurve"/>
      <point x="425" y="559" type="line"/>
      <point x="406" y="446"/>
      <point x="422" y="312"/>
      <point x="501" y="254"/>
      <point x="577" y="254" type="qcurve" smooth="yes"/>
      <point x="673" y="254"/>
      <point x="761" y="309"/>
      <point x="768" y="354" type="qcurve" smooth="yes"/>
      <point x="776" y="405"/>
      <point x="696" y="462"/>
      <point x="605" y="462" type="qcurve" smooth="yes"/>
      <point x="545" y="462" type="line"/>
      <point x="566" y="588" type="line"/>
      <point x="726" y="588" type="line" smooth="yes"/>
      <point x="831" y="588"/>
      <point x="992" y="551"/>
      <point x="1098" y="480"/>
      <point x="1143" y="375"/>
      <point x="1132" y="306" type="qcurve" smooth="yes"/>
      <point x="1114" y="199"/>
      <point x="948" y="54"/>
      <point x="694" y="-20"/>
    </contour>
    <contour>
      <point x="719" y="546" type="qcurve" smooth="yes"/>
      <point x="559" y="546" type="line"/>
      <point x="581" y="676" type="line"/>
      <point x="641" y="676" type="line" smooth="yes"/>
      <point x="710" y="676"/>
      <point x="807" y="727"/>
      <point x="814" y="766" type="qcurve"/>
      <point x="819" y="801"/>
      <point x="752" y="858"/>
      <point x="675" y="858" type="qcurve" smooth="yes"/>
      <point x="608" y="858"/>
      <point x="508" y="792"/>
      <point x="442" y="659"/>
      <point x="425" y="559" type="qcurve"/>
      <point x="61" y="559" type="line"/>
      <point x="84" y="700"/>
      <point x="194" y="914"/>
      <point x="364" y="1059"/>
      <point x="592" y="1132"/>
      <point x="734" y="1132" type="qcurve" smooth="yes"/>
      <point x="876" y="1132"/>
      <point x="1099" y="1059"/>
      <point x="1217" y="918"/>
      <point x="1200" y="814" type="qcurve" smooth="yes"/>
      <point x="1185" y="723"/>
      <point x="1051" y="604"/>
      <point x="845" y="546"/>
    </contour>
  </outline>
</glyph>
<glyph name="uni027E" format="2">
  <advance width="812"/>
  <unicode hex="027E"/>
  <outline>
    <contour>
      <point x="9" y="0" type="line"/>
      <point x="127" y="712" type="line" smooth="yes"/>
      <point x="151" y="854"/>
      <point x="309" y="1040"/>
      <point x="564" y="1132"/>
      <point x="731" y="1132" type="qcurve" smooth="yes"/>
      <point x="763" y="1132"/>
      <point x="814" y="1128"/>
      <point x="856" y="1123"/>
      <point x="874" y="1119" type="qcurve"/>
      <point x="821" y="796" type="line"/>
      <point x="793" y="802"/>
      <point x="733" y="806"/>
      <point x="704" y="806" type="qcurve" smooth="yes"/>
      <point x="654" y="806"/>
      <point x="575" y="763"/>
      <point x="524" y="684"/>
      <point x="515" y="628" type="qcurve" smooth="yes"/>
      <point x="411" y="0" type="line"/>
    </contour>
  </outline>
</glyph>
<glyph name="rfishhookrev" format="2">
  <advance width="812"/>
  <unicode hex="027F"/>
  <outline>
    <contour>
      <point x="215" y="0" type="line"/>
      <point x="319" y="628" type="line"/>
      <point x="329" y="684"/>
      <point x="304" y="763"/>
      <point x="240" y="806"/>
      <point x="189" y="806" type="qcurve" smooth="yes"/>
      <point x="160" y="806"/>
      <point x="99" y="802"/>
      <point x="69" y="796" type="qcurve"/>
      <point x="123" y="1119" type="line"/>
      <point x="142" y="1123"/>
      <point x="186" y="1128"/>
      <point x="238" y="1132"/>
      <point x="270" y="1132" type="qcurve" smooth="yes"/>
      <point x="395" y="1132"/>
      <point x="585" y="1081"/>
      <point x="706" y="976"/>
      <point x="753" y="819"/>
      <point x="735" y="712" type="qcurve" smooth="yes"/>
      <point x="617" y="0" type="line"/>
    </contour>
  </outline>
</glyph>
<glyph name="vscript" format="2">
  <advance width="1228"/>
  <unicode hex="028B"/>
  <outline>
    <contour>
      <point x="570" y="280" type="qcurve"/>
      <point x="526" y="-20" type="line"/>
      <point x="370" y="-20"/>
      <point x="145" y="68"/>
      <point x="40" y="260"/>
      <point x="64" y="414" type="qcurve"/>
      <point x="168" y="1118" type="line"/>
      <point x="546" y="1118" type="line"/>
      <point x="442" y="414" type="line"/>
      <point x="435" y="375"/>
      <point x="455" y="314"/>
      <point x="516" y="280"/>
    </contour>
    <contour>
      <point x="526" y="-20" type="qcurve"/>
      <point x="570" y="280" type="line"/>
      <point x="623" y="280"/>
      <point x="696" y="314"/>
      <point x="738" y="375"/>
      <point x="744" y="414" type="qcurve" smooth="yes"/>
      <point x="784" y="684" type="line" smooth="yes"/>
      <point x="795" y="754"/>
      <point x="737" y="832"/>
      <point x="672" y="832" type="qcurve" smooth="yes"/>
      <point x="665" y="832"/>
      <point x="648" y="832"/>
      <point x="642" y="832" type="qcurve"/>
      <point x="642" y="1088" type="line"/>
      <point x="724" y="1112"/>
      <point x="845" y="1132"/>
      <point x="896" y="1132" type="qcurve" smooth="yes"/>
      <point x="1004" y="1132"/>
      <point x="1139" y="1052"/>
      <point x="1190" y="893"/>
      <point x="1172" y="774" type="qcurve"/>
      <point x="1120" y="414" type="line" smooth="yes"/>
      <point x="1097" y="260"/>
      <point x="934" y="68"/>
      <point x="683" y="-20"/>
    </contour>
  </outline>
</glyph>
<glyph name="wturn" format="2">
  <advance width="1796"/>
  <unicode hex="028D"/>
  <anchor x="926" y="0" name="m.uni0326"/>
  <anchor x="1117" y="1118" name="m.uni030F_1"/>
  <outline>
    <contour>
      <point x="1568" y="1118" type="line"/>
      <point x="1705" y="0" type="line"/>
      <point x="1285" y="0" type="line"/>
      <point x="1279" y="350" type="line" smooth="yes"/>
      <point x="1277" y="470"/>
      <point x="1268" y="738"/>
      <point x="1275" y="894" type="qcurve"/>
      <point x="1312" y="894" type="line"/>
      <point x="1263" y="738"/>
      <point x="1157" y="469"/>
      <point x="1112" y="350" type="qcurve" smooth="yes"/>
      <point x="979" y="0" type="line"/>
      <point x="631" y="0" type="line"/>
      <point x="618" y="350" type="line" smooth="yes"/>
      <point x="614" y="470"/>
      <point x="595" y="738"/>
      <point x="598" y="894" type="qcurve"/>
      <point x="633" y="894" type="line"/>
      <point x="589" y="738"/>
      <point x="497" y="470"/>
      <point x="455" y="350" type="qcurve" smooth="yes"/>
      <point x="333" y="0" type="line"/>
      <point x="-95" y="0" type="line"/>
      <point x="416" y="1118" type="line"/>
      <point x="828" y="1118" type="line"/>
      <point x="873" y="750" type="line" smooth="yes"/>
      <point x="880" y="697"/>
      <point x="884" y="542"/>
      <point x="888" y="384"/>
      <point x="893" y="326" type="qcurve"/>
      <point x="829" y="326" type="line"/>
      <point x="853" y="384"/>
      <point x="909" y="542"/>
      <point x="965" y="697"/>
      <point x="989" y="750" type="qcurve" smooth="yes"/>
      <point x="1156" y="1118" type="line"/>
    </contour>
  </outline>
</glyph>
<glyph name="glottalstoprevinv" format="2">
  <advance width="1224"/>
  <unicode hex="0295"/>
  <outline>
    <contour>
      <point x="636" y="576" type="qcurve" smooth="yes"/>
      <point x="784" y="576" type="line"/>
      <point x="734" y="276" type="line"/>
      <point x="594" y="276" type="line" smooth="yes"/>
      <point x="417" y="276"/>
      <point x="200" y="418"/>
      <point x="119" y="666"/>
      <point x="146" y="826" type="qcurve" smooth="yes"/>
      <point x="168" y="954" type="line" smooth="yes"/>
      <point x="196" y="1117"/>
      <point x="359" y="1368"/>
      <point x="620" y="1510"/>
      <point x="796" y="1510" type="qcurve" smooth="yes"/>
      <point x="939" y="1510"/>
      <point x="1142" y="1409"/>
      <point x="1234" y="1209"/>
      <point x="1208" y="1058" type="qcurve"/>
      <point x="856" y="1058" type="line"/>
      <point x="866" y="1122"/>
      <point x="815" y="1210"/>
      <point x="738" y="1210" type="qcurve" smooth="yes"/>
      <point x="664" y="1210"/>
      <point x="589" y="1128"/>
      <point x="556" y="1010"/>
      <point x="546" y="954" type="qcurve"/>
      <point x="526" y="826" type="line"/>
      <point x="516" y="771"/>
      <point x="509" y="655"/>
      <point x="560" y="576"/>
    </contour>
    <contour>
      <point x="344" y="0" type="line"/>
      <point x="440" y="576" type="line"/>
      <point x="818" y="576" type="line"/>
      <point x="722" y="0" type="line"/>
    </contour>
  </outline>
</glyph>
<glyph name="dyogh" format="2">
  <advance width="2119"/>
  <unicode hex="02A4"/>
  <anchor x="717" y="0" name="m.uni0326"/>
  <anchor x="559" y="1346" name="m.uni030F_1"/>
  <outline>
    <contour>
      <point x="1122" y="-64" type="line"/>
      <point x="1125" y="-85"/>
      <point x="1169" y="-116"/>
      <point x="1247" y="-133"/>
      <point x="1299" y="-133" type="qcurve" smooth="yes"/>
      <point x="1359" y="-133"/>
      <point x="1455" y="-89"/>
      <point x="1516" y="-7"/>
      <point x="1525" y="48" type="qcurve" smooth="yes"/>
      <point x="1533" y="96"/>
      <point x="1493" y="165"/>
      <point x="1404" y="202"/>
      <point x="1338" y="202" type="qcurve" smooth="yes"/>
      <point x="1229" y="202" type="line"/>
      <point x="1277" y="487" type="line"/>
      <point x="1613" y="786" type="line"/>
      <point x="1614" y="794" type="line"/>
      <point x="1160" y="794" type="line"/>
      <point x="1214" y="1118" type="line"/>
      <point x="2084" y="1118" type="line"/>
      <point x="2036" y="826" type="line"/>
      <point x="1569" y="432" type="line"/>
      <point x="1567" y="420" type="line"/>
      <point x="1696" y="404"/>
      <point x="1856" y="320"/>
      <point x="1937" y="205"/>
      <point x="1958" y="76"/>
      <point x="1947" y="14" type="qcurve"/>
      <point x="1924" y="-128"/>
      <point x="1719" y="-329"/>
      <point x="1415" y="-434"/>
      <point x="1241" y="-434" type="qcurve" smooth="yes"/>
      <point x="1077" y="-434"/>
      <point x="840" y="-341"/>
      <point x="717" y="-174"/>
      <point x="723" y="-64" type="qcurve"/>
    </contour>
    <contour>
      <point x="428" y="-14" type="qcurve" smooth="yes"/>
      <point x="268" y="-14"/>
      <point x="52" y="206"/>
      <point x="52" y="426" type="qcurve" smooth="yes"/>
      <point x="52" y="553"/>
      <point x="119" y="803"/>
      <point x="251" y="1009"/>
      <point x="445" y="1132"/>
      <point x="572" y="1132" type="qcurve" smooth="yes"/>
      <point x="661" y="1132"/>
      <point x="783" y="1069"/>
      <point x="854" y="967"/>
      <point x="866" y="910" type="qcurve"/>
      <point x="876" y="910" type="line"/>
      <point x="972" y="1490" type="line"/>
      <point x="1374" y="1490" type="line"/>
      <point x="1127" y="0" type="line"/>
      <point x="729" y="0" type="line"/>
      <point x="763" y="184" type="line"/>
      <point x="750" y="184" type="line"/>
      <point x="718" y="120"/>
      <point x="623" y="32"/>
      <point x="501" y="-14"/>
    </contour>
    <contour>
      <point x="586" y="294" type="qcurve" smooth="yes"/>
      <point x="648" y="294"/>
      <point x="742" y="363"/>
      <point x="806" y="475"/>
      <point x="839" y="603"/>
      <point x="839" y="663" type="qcurve" smooth="yes"/>
      <point x="839" y="740"/>
      <point x="775" y="824"/>
      <point x="714" y="824" type="qcurve" smooth="yes"/>
      <point x="651" y="824"/>
      <point x="557" y="753"/>
      <point x="495" y="639"/>
      <point x="464" y="509"/>
      <point x="464" y="450" type="qcurve" smooth="yes"/>
      <point x="464" y="375"/>
      <point x="525" y="294"/>
    </contour>
  </outline>
</glyph>
<glyph name="uni02A8" format="2">
  <advance width="1894"/>
  <unicode hex="02A8"/>
  <outline>
    <contour>
      <point x="1207" y="-20" type="qcurve" smooth="yes"/>
      <point x="1023" y="-20"/>
      <point x="785" y="125"/>
      <point x="690" y="384"/>
      <point x="718" y="556" type="qcurve" smooth="yes"/>
      <point x="747" y="728"/>
      <point x="927" y="987"/>
      <point x="1211" y="1132"/>
      <point x="1393" y="1132" type="qcurve" smooth="yes"/>
      <point x="1557" y="1132"/>
      <point x="1777" y="1013"/>
      <point x="1874" y="798"/>
      <point x="1852" y="652" type="qcurve"/>
      <point x="1478" y="652" type="line"/>
      <point x="1484" y="739"/>
      <point x="1416" y="832"/>
      <point x="1348" y="832" type="qcurve" smooth="yes"/>
      <point x="1296" y="832"/>
      <point x="1208" y="772"/>
      <point x="1144" y="650"/>
      <point x="1128" y="558" type="qcurve" smooth="yes"/>
      <point x="1110" y="449"/>
      <point x="1157" y="331"/>
      <point x="1263" y="286"/>
      <point x="1333" y="286" type="qcurve" smooth="yes"/>
      <point x="1367" y="286"/>
      <point x="1407" y="293"/>
      <point x="1425" y="309"/>
      <point x="1427" y="320" type="qcurve" smooth="yes"/>
      <point x="1429" y="332"/>
      <point x="1405" y="352"/>
      <point x="1376" y="352" type="qcurve" smooth="yes"/>
      <point x="1336" y="352"/>
      <point x="1223" y="316"/>
      <point x="1104" y="257"/>
      <point x="1053" y="222" type="qcurve"/>
      <point x="979" y="169"/>
      <point x="802" y="61"/>
      <point x="583" y="-12"/>
      <point x="446" y="-12" type="qcurve" smooth="yes"/>
      <point x="314" y="-12"/>
      <point x="160" y="66"/>
      <point x="106" y="217"/>
      <point x="124" y="326" type="qcurve" smooth="yes"/>
      <point x="299" y="1384" type="line"/>
      <point x="701" y="1384" type="line"/>
      <point x="527" y="334" type="line"/>
      <point x="522" y="300"/>
      <point x="552" y="264"/>
      <point x="592" y="264" type="qcurve" smooth="yes"/>
      <point x="641" y="264"/>
      <point x="754" y="319"/>
      <point x="841" y="382" type="qcurve" smooth="yes"/>
      <point x="968" y="473"/>
      <point x="1198" y="584"/>
      <point x="1406" y="634"/>
      <point x="1499" y="634" type="qcurve" smooth="yes"/>
      <point x="1663" y="634"/>
      <point x="1822" y="498"/>
      <point x="1802" y="376" type="qcurve" smooth="yes"/>
      <point x="1786" y="276"/>
      <point x="1633" y="95"/>
      <point x="1378" y="-20"/>
    </contour>
    <contour>
      <point x="65" y="826" type="line"/>
      <point x="113" y="1118" type="line"/>
      <point x="849" y="1118" type="line"/>
      <point x="801" y="826" type="line"/>
    </contour>
  </outline>
</glyph>
<glyph name="w.sups" format="2">
  <advance width="1184"/>
  <unicode hex="02B7"/>
  <outline>
    <contour>
      <point x="242" y="744" type="line"/>
      <point x="166" y="1490" type="line"/>
      <point x="434" y="1490" type="line"/>
      <point x="448" y="1064" type="line"/>
      <point x="456" y="1064" type="line"/>
      <point x="616" y="1490" type="line"/>
      <point x="878" y="1490" type="line"/>
      <point x="898" y="1068" type="line"/>
      <point x="908" y="1068" type="line"/>
      <point x="1058" y="1490" type="line"/>
      <point x="1326" y="1490" type="line"/>
      <point x="1004" y="744" type="line"/>
      <point x="730" y="744" type="line"/>
      <point x="696" y="1140" type="line"/>
      <point x="680" y="1140" type="line"/>
      <point x="514" y="744" type="line"/>
    </contour>
  </outline>
</glyph>
<glyph name="uni02BD" format="2">
  <advance width="646"/>
  <unicode hex="02BD"/>
  <outline>
    <contour>
      <point x="344" y="992" type="line"/>
      <point x="333" y="1032"/>
      <point x="297" y="1180"/>
      <point x="276" y="1373"/>
      <point x="286" y="1478" type="qcurve"/>
      <point x="292" y="1560" type="line"/>
      <point x="594" y="1560" type="line"/>
      <point x="582" y="1478" type="line"/>
      <point x="565" y="1379"/>
      <point x="568" y="1186"/>
      <point x="585" y="1032"/>
      <point x="590" y="992" type="qcurve"/>
    </contour>
  </outline>
</glyph>
<glyph name="l.sups" format="2">
  <advance width="392"/>
  <unicode hex="02E1"/>
  <outline>
    <contour>
      <point x="524" y="1736" type="line"/>
      <point x="360" y="744" type="line"/>
      <point x="96" y="744" type="line"/>
      <point x="262" y="1736" type="line"/>
    </contour>
  </outline>
</glyph>
<glyph name="s.sups" format="2">
  <advance width="794"/>
  <unicode hex="02E2"/>
  <outline>
    <contour>
      <point x="856" y="1262" type="qcurve"/>
      <point x="616" y="1246" type="line"/>
      <point x="617" y="1265"/>
      <point x="578" y="1309"/>
      <point x="532" y="1310" type="qcurve"/>
      <point x="500" y="1309"/>
      <point x="435" y="1284"/>
      <point x="430" y="1260" type="qcurve"/>
      <point x="429" y="1247"/>
      <point x="453" y="1230"/>
      <point x="494" y="1222" type="qcurve" smooth="yes"/>
      <point x="632" y="1196" type="line" smooth="yes"/>
      <point x="745" y="1174"/>
      <point x="847" y="1066"/>
      <point x="832" y="980" type="qcurve" smooth="yes"/>
      <point x="819" y="903"/>
      <point x="707" y="791"/>
      <point x="539" y="730"/>
      <point x="440" y="730" type="qcurve" smooth="yes"/>
      <point x="276" y="730"/>
      <point x="100" y="860"/>
      <point x="104" y="972" type="qcurve"/>
      <point x="364" y="990" type="line"/>
      <point x="366" y="955"/>
      <point x="414" y="922"/>
      <point x="454" y="922" type="qcurve" smooth="yes"/>
      <point x="493" y="922"/>
      <point x="554" y="948"/>
      <point x="558" y="972" type="qcurve" smooth="yes"/>
      <point x="560" y="987"/>
      <point x="534" y="1003"/>
      <point x="494" y="1010" type="qcurve" smooth="yes"/>
      <point x="364" y="1032" type="line" smooth="yes"/>
      <point x="250" y="1052"/>
      <point x="153" y="1171"/>
      <point x="168" y="1262" type="qcurve" smooth="yes"/>
      <point x="186" y="1369"/>
      <point x="387" y="1498"/>
      <point x="544" y="1498" type="qcurve" smooth="yes"/>
      <point x="705" y="1498"/>
      <point x="862" y="1369"/>
    </contour>
  </outline>
</glyph>
<glyph name="uni0295.numr" format="2">
  <advance width="1038"/>
  <unicode hex="02E4"/>
  <outline>
    <contour>
      <point x="744" y="1152" type="line"/>
      <point x="755" y="1205"/>
      <point x="703" y="1260"/>
      <point x="660" y="1260" type="qcurve" smooth="yes"/>
      <point x="605" y="1260"/>
      <point x="518" y="1163"/>
      <point x="504" y="1082" type="qcurve"/>
      <point x="494" y="1012"/>
      <point x="539" y="922"/>
      <point x="588" y="922" type="qcurve" smooth="yes"/>
      <point x="702" y="922" type="line"/>
      <point x="672" y="750" type="line"/>
      <point x="504" y="750" type="line"/>
      <point x="410" y="751"/>
      <point x="293" y="853"/>
      <point x="248" y="1013"/>
      <point x="262" y="1100" type="qcurve" smooth="yes"/>
      <point x="282" y="1219"/>
      <point x="396" y="1382"/>
      <point x="568" y="1466"/>
      <point x="674" y="1466" type="qcurve" smooth="yes"/>
      <point x="780" y="1466"/>
      <point x="921" y="1384"/>
      <point x="981" y="1242"/>
      <point x="966" y="1152" type="qcurve"/>
    </contour>
    <contour>
      <point x="660" y="654" type="line"/>
      <point x="418" y="654" type="line"/>
      <point x="466" y="922" type="line"/>
      <point x="706" y="922" type="line"/>
    </contour>
  </outline>
</glyph>
<glyph name="uni0306" format="2">
  <unicode hex="0306"/>
  <anchor x="653" y="1118" name="_m.uni030F_1"/>
  <anchor x="653" y="1118" name="_t.uni030F"/>
  <anchor x="733" y="1599" name="t.uni030F"/>
  <outline>
    <contour>
      <point x="592" y="1240" type="qcurve" smooth="yes"/>
      <point x="480" y="1240"/>
      <point x="318" y="1329"/>
      <point x="241" y="1481"/>
      <point x="256" y="1574" type="qcurve"/>
      <point x="468" y="1574" type="line"/>
      <point x="458" y="1516"/>
      <point x="549" y="1435"/>
      <point x="625" y="1435" type="qcurve" smooth="yes"/>
      <point x="675" y="1435"/>
      <point x="762" y="1472"/>
      <point x="820" y="1535"/>
      <point x="826" y="1574" type="qcurve"/>
      <point x="1040" y="1574" type="line"/>
      <point x="1025" y="1481"/>
      <point x="896" y="1329"/>
      <point x="704" y="1240"/>
    </contour>
  </outline>
</glyph>
<glyph name="uni035A" format="2">
  <unicode hex="035A"/>
  <outline>
    <contour>
      <point x="-1240" y="-300" type="qcurve" smooth="yes"/>
      <point x="-1231" y="-246"/>
      <point x="-1154" y="-154"/>
      <point x="-1037" y="-98"/>
      <point x="-968" y="-98" type="qcurve"/>
      <point x="-864" y="-99"/>
      <point x="-752" y="-219"/>
      <point x="-766" y="-300" type="qcurve"/>
      <point x="-774" y="-352"/>
      <point x="-850" y="-441"/>
      <point x="-966" y="-494"/>
      <point x="-1036" y="-494" type="qcurve"/>
      <point x="-1139" y="-495"/>
      <point x="-1253" y="-378"/>
    </contour>
    <contour>
      <point x="-1108" y="-300" type="qcurve"/>
      <point x="-1115" y="-341"/>
      <point x="-1069" y="-399"/>
      <point x="-1018" y="-398" type="qcurve"/>
      <point x="-985" y="-398"/>
      <point x="-933" y="-372"/>
      <point x="-900" y="-327"/>
      <point x="-896" y="-300" type="qcurve" smooth="yes"/>
      <point x="-890" y="-256"/>
      <point x="-936" y="-198"/>
      <point x="-986" y="-198" type="qcurve" smooth="yes"/>
      <point x="-1018" y="-198"/>
      <point x="-1071" y="-224"/>
      <point x="-1104" y="-270"/>
    </contour>
    <contour>
      <point x="-888" y="-300" type="qcurve" smooth="yes"/>
      <point x="-879" y="-246"/>
      <point x="-802" y="-154"/>
      <point x="-685" y="-98"/>
      <point x="-616" y="-98" type="qcurve"/>
      <point x="-515" y="-99"/>
      <point x="-403" y="-219"/>
      <point x="-416" y="-300" type="qcurve" smooth="yes"/>
      <point x="-425" y="-352"/>
      <point x="-501" y="-441"/>
      <point x="-616" y="-494"/>
      <point x="-684" y="-494" type="qcurve"/>
      <point x="-787" y="-495"/>
      <point x="-901" y="-378"/>
    </contour>
    <contour>
      <point x="-760" y="-300" type="qcurve" smooth="yes"/>
      <point x="-767" y="-341"/>
      <point x="-717" y="-399"/>
      <point x="-666" y="-398" type="qcurve"/>
      <point x="-633" y="-398"/>
      <point x="-581" y="-372"/>
      <point x="-548" y="-327"/>
      <point x="-544" y="-300" type="qcurve" smooth="yes"/>
      <point x="-538" y="-258"/>
      <point x="-584" y="-198"/>
      <point x="-634" y="-198" type="qcurve" smooth="yes"/>
      <point x="-668" y="-198"/>
      <point x="-722" y="-226"/>
      <point x="-755" y="-272"/>
    </contour>
  </outline>
</glyph>
<glyph name="uni0361" format="2">
  <unicode hex="0361"/>
  <outline>
    <contour>
      <point x="800" y="1080" type="qcurve"/>
      <point x="546" y="1080" type="line"/>
      <point x="528" y="1103"/>
      <point x="477" y="1170"/>
      <point x="376" y="1237"/>
      <point x="192" y="1282"/>
      <point x="40" y="1282" type="qcurve" smooth="yes"/>
      <point x="-113" y="1282"/>
      <point x="-309" y="1237"/>
      <point x="-430" y="1170"/>
      <point x="-503" y="1103"/>
      <point x="-532" y="1080" type="qcurve"/>
      <point x="-786" y="1080" type="line"/>
      <point x="-747" y="1151"/>
      <point x="-626" y="1294"/>
      <point x="-433" y="1414"/>
      <point x="-138" y="1486"/>
      <point x="76" y="1486" type="qcurve" smooth="yes"/>
      <point x="288" y="1486"/>
      <point x="556" y="1414"/>
      <point x="709" y="1294"/>
      <point x="782" y="1151"/>
    </contour>
  </outline>
</glyph>
<glyph name="uni0368" format="2">
  <unicode hex="0368"/>
  <outline>
    <contour>
      <point x="-576" y="1186" type="qcurve"/>
      <point x="-664" y="1187"/>
      <point x="-773" y="1259"/>
      <point x="-814" y="1387"/>
      <point x="-800" y="1470" type="qcurve"/>
      <point x="-800" y="1478" type="line"/>
      <point x="-777" y="1600"/>
      <point x="-615" y="1760"/>
      <point x="-482" y="1760" type="qcurve" smooth="yes"/>
      <point x="-369" y="1760"/>
      <point x="-259" y="1635"/>
      <point x="-280" y="1530" type="qcurve"/>
      <point x="-448" y="1530" type="line"/>
      <point x="-441" y="1568"/>
      <point x="-472" y="1617"/>
      <point x="-512" y="1618" type="qcurve"/>
      <point x="-552" y="1618"/>
      <point x="-593" y="1574"/>
      <point x="-610" y="1510"/>
      <point x="-616" y="1478" type="qcurve"/>
      <point x="-616" y="1470" type="line"/>
      <point x="-622" y="1436"/>
      <point x="-626" y="1371"/>
      <point x="-598" y="1330"/>
      <point x="-558" y="1330" type="qcurve"/>
      <point x="-525" y="1329"/>
      <point x="-472" y="1365"/>
      <point x="-468" y="1402" type="qcurve"/>
      <point x="-300" y="1402" type="line"/>
      <point x="-309" y="1335"/>
      <point x="-389" y="1239"/>
      <point x="-508" y="1187"/>
    </contour>
  </outline>
</glyph>
<glyph name="uni036C" format="2">
  <unicode hex="036C"/>
  <outline>
    <contour>
      <point x="-440" y="1618" type="line"/>
      <point x="-506" y="1202" type="line"/>
      <point x="-690" y="1202" type="line"/>
      <point x="-600" y="1754" type="line"/>
      <point x="-434" y="1754" type="line"/>
    </contour>
    <contour>
      <point x="-262" y="1752" type="qcurve"/>
      <point x="-294" y="1568" type="line"/>
      <point x="-302" y="1570"/>
      <point x="-328" y="1577"/>
      <point x="-354" y="1576" type="qcurve"/>
      <point x="-405" y="1577"/>
      <point x="-477" y="1540"/>
      <point x="-486" y="1492" type="qcurve"/>
      <point x="-538" y="1492" type="line"/>
      <point x="-518" y="1608"/>
      <point x="-385" y="1760"/>
      <point x="-312" y="1760" type="qcurve" smooth="yes"/>
      <point x="-284" y="1760"/>
    </contour>
  </outline>
</glyph>
<glyph name="Psi" format="2">
  <advance width="1856"/>
  <unicode hex="03A8"/>
  <outline>
    <contour>
      <point x="1514" y="1490" type="line"/>
      <point x="1914" y="1490" type="line"/>
      <point x="1838" y="1032" type="line" smooth="yes"/>
      <point x="1797" y="782"/>
      <point x="1554" y="472"/>
      <point x="1210" y="328"/>
      <point x="1017" y="328" type="qcurve" smooth="yes"/>
      <point x="761" y="328" type="line" smooth="yes"/>
      <point x="616" y="328"/>
      <point x="375" y="408"/>
      <point x="209" y="577"/>
      <point x="143" y="845"/>
      <point x="174" y="1032" type="qcurve" smooth="yes"/>
      <point x="250" y="1490" type="line"/>
      <point x="650" y="1490" type="line"/>
      <point x="574" y="1032" type="line" smooth="yes"/>
      <point x="550" y="885"/>
      <point x="569" y="725"/>
      <point x="680" y="663"/>
      <point x="793" y="663" type="qcurve" smooth="yes"/>
      <point x="1097" y="663" type="line" smooth="yes"/>
      <point x="1210" y="663"/>
      <point x="1341" y="725"/>
      <point x="1414" y="885"/>
      <point x="1438" y="1032" type="qcurve" smooth="yes"/>
    </contour>
    <contour>
      <point x="890" y="1490" type="line"/>
      <point x="1274" y="1490" type="line"/>
      <point x="1027" y="0" type="line"/>
      <point x="643" y="0" type="line"/>
    </contour>
  </outline>
</glyph>
<glyph name="beta" format="2">
  <advance width="1272"/>
  <unicode hex="03B2"/>
  <outline>
    <contour>
      <point x="-59" y="-418" type="line"/>
      <point x="164" y="931" type="line" smooth="yes"/>
      <point x="197" y="1129"/>
      <point x="359" y="1386"/>
      <point x="609" y="1510"/>
      <point x="774" y="1510" type="qcurve" smooth="yes"/>
      <point x="939" y="1510"/>
      <point x="1172" y="1397"/>
      <point x="1282" y="1196"/>
      <point x="1260" y="1063" type="qcurve" smooth="yes"/>
      <point x="1240" y="939"/>
      <point x="1100" y="803"/>
      <point x="870" y="740"/>
      <point x="714" y="723" type="qcurve"/>
      <point x="729" y="813" type="line"/>
      <point x="839" y="801"/>
      <point x="1026" y="755"/>
      <point x="1159" y="670"/>
      <point x="1220" y="530"/>
      <point x="1202" y="424" type="qcurve" smooth="yes"/>
      <point x="1180" y="292"/>
      <point x="1031" y="96"/>
      <point x="813" y="-12"/>
      <point x="688" y="-12" type="qcurve" smooth="yes"/>
      <point x="578" y="-12"/>
      <point x="459" y="67"/>
      <point x="412" y="206"/>
      <point x="410" y="295" type="qcurve"/>
      <point x="443" y="295" type="line"/>
      <point x="325" y="-418" type="line"/>
    </contour>
    <contour>
      <point x="629" y="314" type="qcurve" smooth="yes"/>
      <point x="683" y="314"/>
      <point x="767" y="353"/>
      <point x="822" y="424"/>
      <point x="830" y="473" type="qcurve" smooth="yes"/>
      <point x="843" y="548"/>
      <point x="763" y="635"/>
      <point x="682" y="635" type="qcurve" smooth="yes"/>
      <point x="599" y="635" type="line"/>
      <point x="638" y="871" type="line"/>
      <point x="694" y="871" type="line" smooth="yes"/>
      <point x="740" y="871"/>
      <point x="812" y="906"/>
      <point x="859" y="972"/>
      <point x="866" y="1016" type="qcurve" smooth="yes"/>
      <point x="877" y="1085"/>
      <point x="811" y="1166"/>
      <point x="743" y="1166" type="qcurve" smooth="yes"/>
      <point x="695" y="1166"/>
      <point x="619" y="1127"/>
      <point x="569" y="1057"/>
      <point x="561" y="1008" type="qcurve" smooth="yes"/>
      <point x="476" y="497" type="line" smooth="yes"/>
      <point x="467" y="441"/>
      <point x="498" y="359"/>
      <point x="573" y="314"/>
    </contour>
  </outline>
</glyph>
<glyph name="gamma" format="2">
  <advance width="1294"/>
  <unicode hex="03B3"/>
  <outline>
    <contour>
      <point x="339" y="-112" type="line"/>
      <point x="105" y="1118" type="line"/>
      <point x="527" y="1118" type="line"/>
      <point x="588" y="608" type="line" smooth="yes"/>
      <point x="602" y="495"/>
      <point x="611" y="258"/>
      <point x="613" y="120" type="qcurve"/>
      <point x="550" y="120" type="line"/>
      <point x="597" y="258"/>
      <point x="683" y="494"/>
      <point x="734" y="608" type="qcurve" smooth="yes"/>
      <point x="959" y="1118" type="line"/>
      <point x="1375" y="1118" type="line"/>
      <point x="731" y="-112" type="line"/>
    </contour>
    <contour>
      <point x="285" y="-418" type="line"/>
      <point x="355" y="8" type="line"/>
      <point x="757" y="8" type="line"/>
      <point x="687" y="-418" type="line"/>
    </contour>
  </outline>
</glyph>
<glyph name="rho" format="2">
  <advance width="1321"/>
  <unicode hex="03C1"/>
  <anchor x="828" y="1118" name="m.uni030F_1"/>
  <outline>
    <contour>
      <point x="-60" y="-418" type="line"/>
      <point x="97" y="529" type="line" smooth="yes"/>
      <point x="126" y="705"/>
      <point x="305" y="977"/>
      <point x="589" y="1132"/>
      <point x="775" y="1132" type="qcurve" smooth="yes"/>
      <point x="948" y="1132"/>
      <point x="1186" y="992"/>
      <point x="1288" y="726"/>
      <point x="1256" y="536" type="qcurve" smooth="yes"/>
      <point x="1227" y="360"/>
      <point x="1065" y="114"/>
      <point x="844" y="-14"/>
      <point x="724" y="-14" type="qcurve" smooth="yes"/>
      <point x="646" y="-14"/>
      <point x="532" y="38"/>
      <point x="461" y="127"/>
      <point x="447" y="184" type="qcurve"/>
      <point x="441" y="184" type="line"/>
      <point x="342" y="-418" type="line"/>
    </contour>
    <contour>
      <point x="629" y="294" type="qcurve" smooth="yes"/>
      <point x="684" y="294"/>
      <point x="772" y="358"/>
      <point x="832" y="477"/>
      <point x="846" y="560" type="qcurve" smooth="yes"/>
      <point x="860" y="643"/>
      <point x="838" y="761"/>
      <point x="771" y="824"/>
      <point x="716" y="824" type="qcurve" smooth="yes"/>
      <point x="661" y="824"/>
      <point x="570" y="761"/>
      <point x="508" y="643"/>
      <point x="494" y="560" type="qcurve" smooth="yes"/>
      <point x="481" y="479"/>
      <point x="504" y="359"/>
      <point x="573" y="294"/>
    </contour>
  </outline>
</glyph>
<glyph name="sigma" format="2">
  <advance width="1380"/>
  <unicode hex="03C3"/>
  <outline>
    <contour>
      <point x="544" y="-20" type="qcurve" smooth="yes"/>
      <point x="362" y="-20"/>
      <point x="126" y="121"/>
      <point x="31" y="377"/>
      <point x="59" y="549" type="qcurve" smooth="yes"/>
      <point x="87" y="720"/>
      <point x="267" y="976"/>
      <point x="550" y="1118"/>
      <point x="732" y="1118" type="qcurve" smooth="yes"/>
      <point x="1439" y="1118" type="line"/>
      <point x="1391" y="826" type="line"/>
      <point x="905" y="826" type="line"/>
      <point x="682" y="818" type="line"/>
      <point x="629" y="818"/>
      <point x="543" y="757"/>
      <point x="484" y="638"/>
      <point x="469" y="549" type="qcurve" smooth="yes"/>
      <point x="455" y="462"/>
      <point x="475" y="342"/>
      <point x="540" y="280"/>
      <point x="593" y="280" type="qcurve" smooth="yes"/>
      <point x="645" y="280"/>
      <point x="730" y="342"/>
      <point x="791" y="462"/>
      <point x="805" y="549" type="qcurve" smooth="yes"/>
      <point x="820" y="638"/>
      <point x="799" y="757"/>
      <point x="734" y="818"/>
      <point x="682" y="818" type="qcurve"/>
      <point x="698" y="914" type="line"/>
      <point x="827" y="914"/>
      <point x="1030" y="857"/>
      <point x="1164" y="744"/>
      <point x="1220" y="581"/>
      <point x="1202" y="474" type="qcurve" smooth="yes"/>
      <point x="1180" y="339"/>
      <point x="1006" y="114"/>
      <point x="726" y="-20"/>
    </contour>
  </outline>
</glyph>
<glyph name="phi" format="2">
  <advance width="1769"/>
  <unicode hex="03C6"/>
  <outline>
    <contour>
      <point x="510" y="-418" type="line"/>
      <point x="694" y="696" type="line"/>
      <point x="715" y="818"/>
      <point x="839" y="1021"/>
      <point x="1064" y="1142"/>
      <point x="1236" y="1142" type="qcurve" smooth="yes"/>
      <point x="1408" y="1142"/>
      <point x="1640" y="998"/>
      <point x="1738" y="743"/>
      <point x="1710" y="574" type="qcurve" smooth="yes"/>
      <point x="1681" y="397"/>
      <point x="1476" y="128"/>
      <point x="1141" y="-24"/>
      <point x="915" y="-24" type="qcurve" smooth="yes"/>
      <point x="645" y="-24" type="line" smooth="yes"/>
      <point x="418" y="-24"/>
      <point x="141" y="129"/>
      <point x="34" y="395"/>
      <point x="62" y="563" type="qcurve" smooth="yes"/>
      <point x="86" y="703"/>
      <point x="222" y="939"/>
      <point x="429" y="1106"/>
      <point x="557" y="1142" type="qcurve"/>
      <point x="650" y="846" type="line"/>
      <point x="602" y="828"/>
      <point x="520" y="750"/>
      <point x="463" y="639"/>
      <point x="452" y="571" type="qcurve" smooth="yes"/>
      <point x="439" y="493"/>
      <point x="476" y="365"/>
      <point x="592" y="288"/>
      <point x="697" y="288" type="qcurve" smooth="yes"/>
      <point x="967" y="288" type="line" smooth="yes"/>
      <point x="1074" y="288"/>
      <point x="1219" y="364"/>
      <point x="1303" y="502"/>
      <point x="1318" y="596" type="qcurve" smooth="yes"/>
      <point x="1330" y="667"/>
      <point x="1314" y="772"/>
      <point x="1259" y="830"/>
      <point x="1212" y="830" type="qcurve" smooth="yes"/>
      <point x="1156" y="830"/>
      <point x="1097" y="754"/>
      <point x="1069" y="637"/>
      <point x="1058" y="574" type="qcurve" smooth="yes"/>
      <point x="894" y="-418" type="line"/>
    </contour>
  </outline>
</glyph>
<glyph name="omega" format="2">
  <advance width="1756"/>
  <unicode hex="03C9"/>
  <anchor x="861" y="0" name="m.uni0326"/>
  <anchor x="1046" y="1118" name="m.uni030F_1"/>
  <outline>
    <contour>
      <point x="437" y="-16" type="qcurve" smooth="yes"/>
      <point x="310" y="-16"/>
      <point x="115" y="104"/>
      <point x="24" y="336"/>
      <point x="52" y="502" type="qcurve" smooth="yes"/>
      <point x="74" y="631"/>
      <point x="189" y="876"/>
      <point x="334" y="1069"/>
      <point x="400" y="1118" type="qcurve"/>
      <point x="792" y="1118" type="line"/>
      <point x="701" y="1022"/>
      <point x="560" y="835"/>
      <point x="468" y="632"/>
      <point x="448" y="514" type="qcurve" smooth="yes"/>
      <point x="429" y="396"/>
      <point x="477" y="283"/>
      <point x="541" y="283" type="qcurve" smooth="yes"/>
      <point x="600" y="283"/>
      <point x="670" y="379"/>
      <point x="686" y="480" type="qcurve"/>
      <point x="727" y="722" type="line"/>
      <point x="1085" y="722" type="line"/>
      <point x="1044" y="480" type="line"/>
      <point x="1028" y="379"/>
      <point x="1067" y="283"/>
      <point x="1125" y="283" type="qcurve" smooth="yes"/>
      <point x="1189" y="283"/>
      <point x="1275" y="396"/>
      <point x="1294" y="514" type="qcurve" smooth="yes"/>
      <point x="1314" y="633"/>
      <point x="1288" y="836"/>
      <point x="1210" y="1024"/>
      <point x="1150" y="1118" type="qcurve"/>
      <point x="1542" y="1118" type="line"/>
      <point x="1593" y="1069"/>
      <point x="1674" y="876"/>
      <point x="1708" y="631"/>
      <point x="1686" y="502" type="qcurve" smooth="yes"/>
      <point x="1659" y="336"/>
      <point x="1491" y="104"/>
      <point x="1257" y="-16"/>
      <point x="1129" y="-16" type="qcurve" smooth="yes"/>
      <point x="986" y="-16"/>
      <point x="849" y="131"/>
      <point x="827" y="395"/>
      <point x="856" y="570" type="qcurve"/>
      <point x="904" y="570" type="line"/>
      <point x="875" y="395"/>
      <point x="766" y="131"/>
      <point x="580" y="-16"/>
    </contour>
  </outline>
</glyph>
<glyph name="phigreek" format="2">
  <advance width="1646"/>
  <unicode hex="03D5"/>
  <outline>
    <contour>
      <point x="545" y="-20" type="line" smooth="yes"/>
      <point x="363" y="-20"/>
      <point x="127" y="125"/>
      <point x="33" y="384"/>
      <point x="61" y="556" type="qcurve" smooth="yes"/>
      <point x="90" y="728"/>
      <point x="270" y="987"/>
      <point x="553" y="1132"/>
      <point x="735" y="1132" type="qcurve" smooth="yes"/>
      <point x="1101" y="1132" type="line" smooth="yes"/>
      <point x="1284" y="1132"/>
      <point x="1519" y="987"/>
      <point x="1614" y="728"/>
      <point x="1585" y="556" type="qcurve" smooth="yes"/>
      <point x="1557" y="384"/>
      <point x="1376" y="125"/>
      <point x="1094" y="-20"/>
      <point x="911" y="-20" type="qcurve" smooth="yes"/>
    </contour>
    <contour>
      <point x="594" y="280" type="qcurve" smooth="yes"/>
      <point x="960" y="280" type="line" smooth="yes"/>
      <point x="1013" y="280"/>
      <point x="1100" y="346"/>
      <point x="1161" y="471"/>
      <point x="1175" y="558" type="qcurve" smooth="yes"/>
      <point x="1190" y="646"/>
      <point x="1170" y="768"/>
      <point x="1105" y="832"/>
      <point x="1052" y="832" type="qcurve" smooth="yes"/>
      <point x="686" y="832" type="line" smooth="yes"/>
      <point x="633" y="832"/>
      <point x="547" y="768"/>
      <point x="486" y="646"/>
      <point x="471" y="558" type="qcurve" smooth="yes"/>
      <point x="457" y="471"/>
      <point x="476" y="346"/>
      <point x="541" y="280"/>
    </contour>
    <contour>
      <point x="479" y="-418" type="line"/>
      <point x="798" y="1512" type="line"/>
      <point x="1164" y="1512" type="line"/>
      <point x="845" y="-418" type="line"/>
    </contour>
  </outline>
</glyph>
<glyph name="uni03FD" format="2">
  <advance width="1690"/>
  <unicode hex="03FD"/>
  <outline>
    <contour>
      <point x="192" y="518" type="qcurve"/>
      <point x="582" y="518" type="line"/>
      <point x="565" y="405"/>
      <point x="664" y="294"/>
      <point x="786" y="294" type="qcurve" smooth="yes"/>
      <point x="895" y="294"/>
      <point x="1026" y="384"/>
      <point x="1098" y="563"/>
      <point x="1118" y="698" type="qcurve"/>
      <point x="1130" y="786" type="line"/>
      <point x="1151" y="927"/>
      <point x="1144" y="1104"/>
      <point x="1050" y="1188"/>
      <point x="938" y="1188" type="qcurve" smooth="yes"/>
      <point x="831" y="1188"/>
      <point x="679" y="1098"/>
      <point x="656" y="982" type="qcurve"/>
      <point x="270" y="982" type="line"/>
      <point x="304" y="1145"/>
      <point x="506" y="1381"/>
      <point x="811" y="1508"/>
      <point x="996" y="1508" type="qcurve" smooth="yes"/>
      <point x="1203" y="1508"/>
      <point x="1464" y="1336"/>
      <point x="1563" y="1013"/>
      <point x="1528" y="786" type="qcurve"/>
      <point x="1516" y="702" type="line" smooth="yes"/>
      <point x="1482" y="475"/>
      <point x="1268" y="152"/>
      <point x="944" y="-20"/>
      <point x="744" y="-20" type="qcurve" smooth="yes"/>
      <point x="551" y="-20"/>
      <point x="296" y="119"/>
      <point x="180" y="363"/>
    </contour>
  </outline>
</glyph>
<glyph name="uni0404" format="2">
  <advance width="1531"/>
  <unicode hex="0404"/>
  <anchor x="680" y="0" name="m.uni0326"/>
  <anchor x="927" y="1490" name="m.uni030F_1"/>
  <outline>
    <contour>
      <point x="693" y="-20" type="qcurve" smooth="yes"/>
      <point x="488" y="-20"/>
      <point x="192" y="156"/>
      <point x="60" y="497"/>
      <point x="101" y="744" type="qcurve" smooth="yes"/>
      <point x="143" y="993"/>
      <point x="391" y="1335"/>
      <point x="746" y="1510"/>
      <point x="946" y="1510" type="qcurve" smooth="yes"/>
      <point x="1085" y="1510"/>
      <point x="1308" y="1435"/>
      <point x="1462" y="1291"/>
      <point x="1537" y="1081"/>
      <point x="1529" y="946" type="qcurve"/>
      <point x="1119" y="946" type="line"/>
      <point x="1120" y="1003"/>
      <point x="1094" y="1084"/>
      <point x="1036" y="1137"/>
      <point x="946" y="1162"/>
      <point x="884" y="1162" type="qcurve" smooth="yes"/>
      <point x="783" y="1162"/>
      <point x="635" y="1068"/>
      <point x="540" y="882"/>
      <point x="517" y="744" type="qcurve" smooth="yes"/>
      <point x="493" y="600"/>
      <point x="528" y="416"/>
      <point x="645" y="328"/>
      <point x="744" y="328" type="qcurve" smooth="yes"/>
      <point x="806" y="328"/>
      <point x="904" y="353"/>
      <point x="981" y="406"/>
      <point x="1036" y="487"/>
      <point x="1054" y="544" type="qcurve"/>
      <point x="1464" y="544" type="line"/>
      <point x="1441" y="449"/>
      <point x="1317" y="251"/>
      <point x="1121" y="83"/>
      <point x="857" y="-20"/>
    </contour>
    <contour>
      <point x="441" y="594" type="line"/>
      <point x="494" y="912" type="line"/>
      <point x="1007" y="912" type="line"/>
      <point x="954" y="594" type="line"/>
    </contour>
  </outline>
</glyph>
<glyph name="uni040A" format="2">
  <advance width="2308"/>
  <unicode hex="040A"/>
  <outline>
    <contour>
      <point x="3" y="0" type="line"/>
      <point x="250" y="1490" type="line"/>
      <point x="654" y="1490" type="line"/>
      <point x="576" y="1022" type="line"/>
      <point x="1258" y="1022" type="line"/>
      <point x="1207" y="712" type="line"/>
      <point x="525" y="712" type="line"/>
      <point x="407" y="0" type="line"/>
    </contour>
    <contour>
      <point x="1350" y="1022" type="line"/>
      <point x="1698" y="1022" type="line" smooth="yes"/>
      <point x="1891" y="1022"/>
      <point x="2151" y="899"/>
      <point x="2266" y="672"/>
      <point x="2240" y="516" type="qcurve" smooth="yes"/>
      <point x="2214" y="358"/>
      <point x="2031" y="126"/>
      <point x="1738" y="0"/>
      <point x="1545" y="0" type="qcurve" smooth="yes"/>
      <point x="933" y="0" type="line"/>
      <point x="1180" y="1490" type="line"/>
      <point x="1584" y="1490" type="line"/>
      <point x="1390" y="318" type="line"/>
      <point x="1582" y="318" type="line" smooth="yes"/>
      <point x="1654" y="318"/>
      <point x="1761" y="365"/>
      <point x="1829" y="455"/>
      <point x="1839" y="520" type="qcurve" smooth="yes"/>
      <point x="1849" y="582"/>
      <point x="1819" y="667"/>
      <point x="1735" y="712"/>
      <point x="1663" y="712" type="qcurve" smooth="yes"/>
      <point x="1299" y="712" type="line"/>
    </contour>
  </outline>
</glyph>
<glyph name="uni0411" format="2">
  <advance width="1326"/>
  <unicode hex="0411"/>
  <outline>
    <contour>
      <point x="3" y="0" type="line"/>
      <point x="250" y="1490" type="line"/>
      <point x="1306" y="1490" type="line"/>
      <point x="1253" y="1170" type="line"/>
      <point x="601" y="1170" type="line"/>
      <point x="555" y="894" type="line"/>
      <point x="853" y="894" type="line" smooth="yes"/>
      <point x="1074" y="894"/>
      <point x="1298" y="681"/>
      <point x="1263" y="471" type="qcurve" smooth="yes"/>
      <point x="1239" y="327"/>
      <point x="1087" y="115"/>
      <point x="853" y="0"/>
      <point x="705" y="0" type="qcurve" smooth="yes"/>
    </contour>
    <contour>
      <point x="457" y="304" type="line"/>
      <point x="677" y="304" type="line" smooth="yes"/>
      <point x="753" y="304"/>
      <point x="865" y="396"/>
      <point x="876" y="463" type="qcurve" smooth="yes"/>
      <point x="887" y="530"/>
      <point x="806" y="622"/>
      <point x="730" y="622" type="qcurve" smooth="yes"/>
      <point x="510" y="622" type="line"/>
    </contour>
  </outline>
</glyph>
<glyph name="uni042A" format="2">
  <advance width="1722"/>
  <unicode hex="042A"/>
  <outline>
    <contour>
      <point x="156" y="1164" type="line"/>
      <point x="210" y="1490" type="line"/>
      <point x="808" y="1490" type="line"/>
      <point x="754" y="1164" type="line"/>
    </contour>
    <contour>
      <point x="764" y="1022" type="line"/>
      <point x="1112" y="1022" type="line" smooth="yes"/>
      <point x="1305" y="1022"/>
      <point x="1565" y="899"/>
      <point x="1680" y="672"/>
      <point x="1654" y="516" type="qcurve" smooth="yes"/>
      <point x="1628" y="358"/>
      <point x="1445" y="126"/>
      <point x="1152" y="0"/>
      <point x="959" y="0" type="qcurve" smooth="yes"/>
      <point x="347" y="0" type="line"/>
      <point x="594" y="1490" type="line"/>
      <point x="998" y="1490" type="line"/>
      <point x="804" y="318" type="line"/>
      <point x="996" y="318" type="line" smooth="yes"/>
      <point x="1068" y="318"/>
      <point x="1175" y="365"/>
      <point x="1243" y="455"/>
      <point x="1253" y="520" type="qcurve" smooth="yes"/>
      <point x="1263" y="582"/>
      <point x="1233" y="667"/>
      <point x="1149" y="712"/>
      <point x="1077" y="712" type="qcurve" smooth="yes"/>
      <point x="713" y="712" type="line"/>
    </contour>
  </outline>
</glyph>
<glyph name="uni0432" format="2">
  <advance width="1203"/>
  <unicode hex="0432"/>
  <outline>
    <contour>
      <point x="10" y="0" type="line"/>
      <point x="195" y="1118" type="line"/>
      <point x="683" y="1118" type="line" smooth="yes"/>
      <point x="908" y="1118"/>
      <point x="1142" y="964"/>
      <point x="1116" y="812" type="qcurve"/>
      <point x="1103" y="729"/>
      <point x="937" y="601"/>
      <point x="796" y="578" type="qcurve"/>
      <point x="921" y="573"/>
      <point x="1065" y="492"/>
      <point x="1120" y="372"/>
      <point x="1109" y="308" type="qcurve" smooth="yes"/>
      <point x="1092" y="207"/>
      <point x="958" y="69"/>
      <point x="731" y="0"/>
      <point x="574" y="0" type="qcurve" smooth="yes"/>
    </contour>
    <contour>
      <point x="429" y="282" type="line"/>
      <point x="621" y="282" type="line" smooth="yes"/>
      <point x="670" y="282"/>
      <point x="732" y="329"/>
      <point x="739" y="370" type="qcurve" smooth="yes"/>
      <point x="746" y="411"/>
      <point x="699" y="460"/>
      <point x="650" y="460" type="qcurve" smooth="yes"/>
      <point x="458" y="460" type="line"/>
    </contour>
    <contour>
      <point x="492" y="664" type="line"/>
      <point x="620" y="664" type="line" smooth="yes"/>
      <point x="667" y="664"/>
      <point x="727" y="707"/>
      <point x="733" y="744" type="qcurve" smooth="yes"/>
      <point x="740" y="783"/>
      <point x="687" y="826"/>
      <point x="635" y="826" type="qcurve" smooth="yes"/>
      <point x="519" y="826" type="line"/>
    </contour>
  </outline>
</glyph>
<glyph name="uni043F" format="2">
  <advance width="1301"/>
  <unicode hex="043F"/>
  <outline>
    <contour>
      <point x="1291" y="1118" type="line"/>
      <point x="1106" y="0" type="line"/>
      <point x="704" y="0" type="line"/>
      <point x="839" y="818" type="line"/>
      <point x="547" y="818" type="line"/>
      <point x="412" y="0" type="line"/>
      <point x="10" y="0" type="line"/>
      <point x="195" y="1118" type="line"/>
    </contour>
  </outline>
</glyph>
<glyph name="uni044A" format="2">
  <advance width="1451"/>
  <unicode hex="044A"/>
  <outline>
    <contour>
      <point x="65" y="826" type="line"/>
      <point x="113" y="1118" type="line"/>
      <point x="511" y="1118" type="line"/>
      <point x="463" y="826" type="line"/>
    </contour>
    <contour>
      <point x="566" y="814" type="line"/>
      <point x="910" y="814" type="line" smooth="yes"/>
      <point x="1071" y="814"/>
      <point x="1288" y="713"/>
      <point x="1385" y="529"/>
      <point x="1364" y="402" type="qcurve" smooth="yes"/>
      <point x="1344" y="279"/>
      <point x="1186" y="98"/>
      <point x="936" y="0"/>
      <point x="775" y="0" type="qcurve" smooth="yes"/>
      <point x="199" y="0" type="line"/>
      <point x="384" y="1118" type="line"/>
      <point x="786" y="1118" type="line"/>
      <point x="651" y="300" type="line"/>
      <point x="825" y="300" type="line" smooth="yes"/>
      <point x="890" y="300"/>
      <point x="968" y="354"/>
      <point x="976" y="404" type="qcurve" smooth="yes"/>
      <point x="985" y="457"/>
      <point x="925" y="514"/>
      <point x="860" y="514" type="qcurve" smooth="yes"/>
      <point x="516" y="514" type="line"/>
    </contour>
  </outline>
</glyph>
<glyph name="uni0454" format="2">
  <advance width="1236"/>
  <unicode hex="0454"/>
  <outline>
    <contour>
      <point x="544" y="-20" type="qcurve" smooth="yes"/>
      <point x="362" y="-20"/>
      <point x="127" y="125"/>
      <point x="33" y="384"/>
      <point x="61" y="556" type="qcurve" smooth="yes"/>
      <point x="90" y="728"/>
      <point x="270" y="987"/>
      <point x="552" y="1132"/>
      <point x="734" y="1132" type="qcurve" smooth="yes"/>
      <point x="899" y="1132"/>
      <point x="1120" y="1013"/>
      <point x="1216" y="798"/>
      <point x="1193" y="652" type="qcurve"/>
      <point x="821" y="652" type="line"/>
      <point x="825" y="711"/>
      <point x="796" y="791"/>
      <point x="736" y="832"/>
      <point x="691" y="832" type="qcurve" smooth="yes"/>
      <point x="638" y="832"/>
      <point x="550" y="772"/>
      <point x="487" y="650"/>
      <point x="471" y="558" type="qcurve" smooth="yes"/>
      <point x="456" y="467"/>
      <point x="478" y="343"/>
      <point x="546" y="280"/>
      <point x="599" y="280" type="qcurve" smooth="yes"/>
      <point x="643" y="280"/>
      <point x="720" y="324"/>
      <point x="776" y="407"/>
      <point x="790" y="466" type="qcurve"/>
      <point x="1162" y="466" type="line"/>
      <point x="1136" y="318"/>
      <point x="969" y="99"/>
      <point x="710" y="-20"/>
    </contour>
    <contour>
      <point x="423" y="461" type="line"/>
      <point x="456" y="657" type="line"/>
      <point x="736" y="657" type="line"/>
      <point x="703" y="461" type="line"/>
    </contour>
  </outline>
</glyph>
<glyph name="uni0464" format="2">
  <advance width="2150"/>
  <unicode hex="0464"/>
  <outline>
    <contour>
      <point x="1530" y="882" type="line"/>
      <point x="1480" y="578" type="line"/>
      <point x="430" y="578" type="line"/>
      <point x="480" y="882" type="line"/>
    </contour>
    <contour>
      <point x="2144" y="1022" type="qcurve"/>
      <point x="1748" y="954" type="line"/>
      <point x="1738" y="1005"/>
      <point x="1698" y="1081"/>
      <point x="1638" y="1130"/>
      <point x="1559" y="1154"/>
      <point x="1510" y="1154" type="qcurve"/>
      <point x="1424" y="1155"/>
      <point x="1284" y="1076"/>
      <point x="1184" y="895"/>
      <point x="1158" y="742" type="qcurve" smooth="yes"/>
      <point x="1133" y="589"/>
      <point x="1173" y="411"/>
      <point x="1288" y="335"/>
      <point x="1374" y="334" type="qcurve"/>
      <point x="1421" y="334"/>
      <point x="1504" y="356"/>
      <point x="1577" y="402"/>
      <point x="1640" y="474"/>
      <point x="1666" y="524" type="qcurve"/>
      <point x="2048" y="456" type="line"/>
      <point x="1996" y="345"/>
      <point x="1845" y="169"/>
      <point x="1655" y="45"/>
      <point x="1436" y="-20"/>
      <point x="1314" y="-20" type="qcurve" smooth="yes"/>
      <point x="1117" y="-20"/>
      <point x="835" y="157"/>
      <point x="711" y="498"/>
      <point x="750" y="742" type="qcurve"/>
      <point x="791" y="987"/>
      <point x="1028" y="1330"/>
      <point x="1370" y="1510"/>
      <point x="1568" y="1510" type="qcurve" smooth="yes"/>
      <point x="1684" y="1510"/>
      <point x="1880" y="1447"/>
      <point x="2032" y="1322"/>
      <point x="2129" y="1141"/>
    </contour>
    <contour>
      <point x="654" y="1490" type="line"/>
      <point x="408" y="0" type="line"/>
      <point x="2" y="0" type="line"/>
      <point x="250" y="1490" type="line"/>
    </contour>
  </outline>
</glyph>
<glyph name="uni0474" format="2">
  <advance width="1646"/>
  <unicode hex="0474"/>
  <anchor x="1072" y="1490" name="m.uni030F_1"/>
  <outline>
    <contour>
      <point x="1106" y="1108" type="line" smooth="yes"/>
      <point x="1204" y="1324"/>
      <point x="1469" y="1510"/>
      <point x="1659" y="1510" type="qcurve" smooth="yes"/>
      <point x="1757" y="1510" type="line"/>
      <point x="1699" y="1158" type="line"/>
      <point x="1655" y="1158" type="line" smooth="yes"/>
      <point x="1613" y="1158"/>
      <point x="1551" y="1112"/>
      <point x="1525" y="1062" type="qcurve"/>
      <point x="997" y="0" type="line"/>
      <point x="445" y="0" type="line"/>
      <point x="200" y="1490" type="line"/>
      <point x="658" y="1490" type="line"/>
      <point x="788" y="440" type="line"/>
      <point x="800" y="440" type="line"/>
    </contour>
  </outline>
</glyph>
<glyph name="uni0481" format="2">
  <advance width="1236"/>
  <unicode hex="0481"/>
  <outline>
    <contour>
      <point x="789" y="280" type="line"/>
      <point x="686" y="-346" type="line"/>
      <point x="308" y="-346" type="line"/>
      <point x="411" y="280" type="line"/>
    </contour>
    <contour>
      <point x="544" y="-20" type="line"/>
      <point x="362" y="-20"/>
      <point x="127" y="125"/>
      <point x="33" y="384"/>
      <point x="61" y="556" type="qcurve" smooth="yes"/>
      <point x="90" y="728"/>
      <point x="270" y="987"/>
      <point x="552" y="1132"/>
      <point x="734" y="1132" type="qcurve" smooth="yes"/>
      <point x="899" y="1132"/>
      <point x="1120" y="1013"/>
      <point x="1216" y="798"/>
      <point x="1193" y="652" type="qcurve"/>
      <point x="821" y="652" type="line"/>
      <point x="825" y="711"/>
      <point x="796" y="791"/>
      <point x="736" y="832"/>
      <point x="691" y="832" type="qcurve" smooth="yes"/>
      <point x="638" y="832"/>
      <point x="550" y="772"/>
      <point x="487" y="650"/>
      <point x="471" y="558" type="qcurve" smooth="yes"/>
      <point x="456" y="467"/>
      <point x="478" y="343"/>
      <point x="546" y="280"/>
      <point x="599" y="280" type="qcurve"/>
    </contour>
  </outline>
</glyph>
<glyph name="uni0484" format="2">
  <unicode hex="0484"/>
  <outline>
    <contour>
      <point x="-888" y="1438" type="line"/>
      <point x="-882" y="1438" type="line" smooth="yes"/>
      <point x="-798" y="1438"/>
      <point x="-647" y="1473"/>
      <point x="-509" y="1520"/>
      <point x="-380" y="1556"/>
      <point x="-318" y="1556" type="qcurve" smooth="yes"/>
      <point x="-202" y="1556"/>
      <point x="-85" y="1452"/>
      <point x="-102" y="1342" type="qcurve"/>
      <point x="-110" y="1304" type="line"/>
      <point x="-254" y="1304" type="line"/>
      <point x="-250" y="1320" type="line"/>
      <point x="-239" y="1375"/>
      <point x="-296" y="1423"/>
      <point x="-344" y="1422" type="qcurve"/>
      <point x="-389" y="1422"/>
      <point x="-505" y="1387"/>
      <point x="-647" y="1339"/>
      <point x="-810" y="1304"/>
      <point x="-902" y="1304" type="qcurve" smooth="yes"/>
      <point x="-910" y="1304" type="line"/>
    </contour>
  </outline>
</glyph>
<glyph name="uni048F" format="2">
  <advance width="1254"/>
  <unicode hex="048F"/>
  <anchor x="243" y="-402" name="m.uni0326"/>
  <anchor x="834" y="1118" name="m.uni030F_1"/>
  <outline>
    <contour>
      <point x="684" y="532" type="line"/>
      <point x="1032" y="-8" type="line"/>
      <point x="920" y="-78" type="line"/>
      <point x="574" y="462" type="line"/>
    </contour>
    <contour>
      <point x="-52" y="-418" type="line"/>
      <point x="203" y="1118" type="line"/>
      <point x="601" y="1118" type="line"/>
      <point x="565" y="922" type="line"/>
      <point x="574" y="922" type="line"/>
      <point x="605" y="979"/>
      <point x="701" y="1075"/>
      <point x="829" y="1132"/>
      <point x="906" y="1132" type="qcurve" smooth="yes"/>
      <point x="1006" y="1132"/>
      <point x="1174" y="1040"/>
      <point x="1277" y="846"/>
      <point x="1277" y="694" type="qcurve" smooth="yes"/>
      <point x="1277" y="583"/>
      <point x="1219" y="337"/>
      <point x="1094" y="122"/>
      <point x="895" y="-14"/>
      <point x="754" y="-14" type="qcurve" smooth="yes"/>
      <point x="670" y="-14"/>
      <point x="549" y="44"/>
      <point x="476" y="139"/>
      <point x="462" y="196" type="qcurve"/>
      <point x="450" y="196" type="line"/>
      <point x="350" y="-418" type="line"/>
    </contour>
    <contour>
      <point x="616" y="294" type="qcurve" smooth="yes"/>
      <point x="686" y="294"/>
      <point x="781" y="373"/>
      <point x="839" y="493"/>
      <point x="865" y="619"/>
      <point x="865" y="667" type="qcurve" smooth="yes"/>
      <point x="865" y="743"/>
      <point x="805" y="824"/>
      <point x="744" y="824" type="qcurve" smooth="yes"/>
      <point x="682" y="824"/>
      <point x="587" y="755"/>
      <point x="523" y="644"/>
      <point x="490" y="516"/>
      <point x="490" y="457" type="qcurve" smooth="yes"/>
      <point x="490" y="380"/>
      <point x="555" y="294"/>
    </contour>
  </outline>
</glyph>
<glyph name="uni0490" format="2">
  <advance width="1203"/>
  <unicode hex="0490"/>
  <anchor x="814" y="1490" name="m.uni030F_1"/>
  <outline>
    <contour>
      <point x="861" y="1164" type="line"/>
      <point x="964" y="1788" type="line"/>
      <point x="1350" y="1788" type="line"/>
      <point x="1247" y="1164" type="line"/>
    </contour>
    <contour>
      <point x="1298" y="1490" type="line"/>
      <point x="1244" y="1164" type="line"/>
      <point x="600" y="1164" type="line"/>
      <point x="407" y="0" type="line"/>
      <point x="3" y="0" type="line"/>
      <point x="250" y="1490" type="line"/>
    </contour>
  </outline>
</glyph>
<glyph name="uni04A0" format="2">
  <advance width="1898"/>
  <unicode hex="04A0"/>
  <anchor x="1267" y="1490" name="m.uni030F_1"/>
  <outline>
    <contour>
      <point x="789" y="1490" type="line"/>
      <point x="735" y="1164" type="line"/>
      <point x="156" y="1164" type="line"/>
      <point x="210" y="1490" type="line"/>
    </contour>
    <contour>
      <point x="346" y="0" type="line"/>
      <point x="593" y="1490" type="line"/>
      <point x="997" y="1490" type="line"/>
      <point x="903" y="922" type="line"/>
      <point x="1027" y="922" type="line"/>
      <point x="1490" y="1490" type="line"/>
      <point x="1980" y="1490" type="line"/>
      <point x="1351" y="762" type="line"/>
      <point x="1759" y="0" type="line"/>
      <point x="1301" y="0" type="line"/>
      <point x="998" y="602" type="line"/>
      <point x="850" y="602" type="line"/>
      <point x="750" y="0" type="line"/>
    </contour>
  </outline>
</glyph>
<glyph name="uni04A1" format="2">
  <advance width="1456"/>
  <unicode hex="04A1"/>
  <anchor x="1016" y="1118" name="m.uni030F_1"/>
  <outline>
    <contour>
      <point x="65" y="826" type="line"/>
      <point x="113" y="1118" type="line"/>
      <point x="511" y="1118" type="line"/>
      <point x="463" y="826" type="line"/>
    </contour>
    <contour>
      <point x="199" y="0" type="line"/>
      <point x="384" y="1118" type="line"/>
      <point x="786" y="1118" type="line"/>
      <point x="715" y="686" type="line"/>
      <point x="777" y="686" type="line"/>
      <point x="1094" y="1118" type="line"/>
      <point x="1554" y="1118" type="line"/>
      <point x="1102" y="552" type="line"/>
      <point x="1371" y="0" type="line"/>
      <point x="905" y="0" type="line"/>
      <point x="747" y="386" type="line"/>
      <point x="665" y="386" type="line"/>
      <point x="601" y="0" type="line"/>
    </contour>
  </outline>
</glyph>
<glyph name="uni04A4" format="2">
  <advance width="2090"/>
  <unicode hex="04A4"/>
  <anchor x="694" y="0" name="m.uni0326"/>
  <anchor x="941" y="1490" name="m.uni030F_1"/>
  <anchor x="253" y="0" name="m.uni0327_3"/>
  <outline>
    <contour>
      <point x="2188" y="1490" type="line"/>
      <point x="2132" y="1164" type="line"/>
      <point x="1478" y="1164" type="line"/>
      <point x="1190" y="1490" type="line"/>
    </contour>
    <contour>
      <point x="3" y="0" type="line"/>
      <point x="250" y="1490" type="line"/>
      <point x="654" y="1490" type="line"/>
      <point x="560" y="924" type="line"/>
      <point x="1096" y="924" type="line"/>
      <point x="1190" y="1490" type="line"/>
      <point x="1594" y="1490" type="line"/>
      <point x="1347" y="0" type="line"/>
      <point x="943" y="0" type="line"/>
      <point x="1042" y="598" type="line"/>
      <point x="506" y="598" type="line"/>
      <point x="407" y="0" type="line"/>
    </contour>
  </outline>
</glyph>
<glyph name="uni04A9" format="2">
  <advance width="1824"/>
  <unicode hex="04A9"/>
  <outline>
    <contour>
      <point x="694" y="-20" type="qcurve" smooth="yes"/>
      <point x="450" y="-20"/>
      <point x="150" y="125"/>
      <point x="33" y="384"/>
      <point x="61" y="556" type="qcurve" smooth="yes"/>
      <point x="90" y="728"/>
      <point x="286" y="987"/>
      <point x="584" y="1132"/>
      <point x="766" y="1132" type="qcurve"/>
      <point x="717" y="832" type="line"/>
      <point x="664" y="832"/>
      <point x="562" y="768"/>
      <point x="486" y="646"/>
      <point x="471" y="558" type="qcurve" smooth="yes"/>
      <point x="457" y="471"/>
      <point x="505" y="342"/>
      <point x="659" y="272"/>
      <point x="802" y="272" type="qcurve" smooth="yes"/>
      <point x="901" y="272"/>
      <point x="1047" y="310"/>
      <point x="1146" y="381"/>
      <point x="1203" y="484"/>
      <point x="1214" y="548" type="qcurve" smooth="yes"/>
      <point x="1220" y="582"/>
      <point x="1211" y="629"/>
      <point x="1184" y="654"/>
      <point x="1162" y="654" type="qcurve" smooth="yes"/>
      <point x="1141" y="654"/>
      <point x="1106" y="626"/>
      <point x="1082" y="571"/>
      <point x="1075" y="532" type="qcurve" smooth="yes"/>
      <point x="1066" y="478"/>
      <point x="1087" y="384"/>
      <point x="1162" y="314"/>
      <point x="1233" y="295" type="qcurve"/>
      <point x="1268" y="279"/>
      <point x="1375" y="259"/>
      <point x="1432" y="259" type="qcurve" smooth="yes"/>
      <point x="1471" y="259"/>
      <point x="1576" y="294"/>
      <point x="1626" y="320" type="qcurve"/>
      <point x="1705" y="39" type="line"/>
      <point x="1624" y="4"/>
      <point x="1416" y="-20"/>
      <point x="1331" y="-20" type="qcurve" smooth="yes"/>
      <point x="1166" y="-20"/>
      <point x="912" y="54"/>
      <point x="830" y="138" type="qcurve"/>
      <point x="748" y="218"/>
      <point x="656" y="416"/>
      <point x="676" y="538" type="qcurve" smooth="yes"/>
      <point x="698" y="670"/>
      <point x="850" y="862"/>
      <point x="1078" y="966"/>
      <point x="1214" y="966" type="qcurve" smooth="yes"/>
      <point x="1352" y="966"/>
      <point x="1542" y="863"/>
      <point x="1628" y="678"/>
      <point x="1607" y="554" type="qcurve" smooth="yes"/>
      <point x="1592" y="464"/>
      <point x="1469" y="294"/>
      <point x="1280" y="150"/>
      <point x="1052" y="41"/>
      <point x="809" y="-20"/>
    </contour>
  </outline>
</glyph>
<glyph name="k.sups" format="2">
  <advance width="840"/>
  <unicode hex="1D4F"/>
  <outline>
    <contour>
      <point x="370" y="934" type="line"/>
      <point x="418" y="1242" type="line"/>
      <point x="456" y="1242" type="line"/>
      <point x="690" y="1490" type="line"/>
      <point x="990" y="1490" type="line"/>
      <point x="608" y="1102" type="line"/>
      <point x="546" y="1102" type="line"/>
    </contour>
    <contour>
      <point x="96" y="744" type="line"/>
      <point x="262" y="1736" type="line"/>
      <point x="524" y="1736" type="line"/>
      <point x="360" y="744" type="line"/>
    </contour>
    <contour>
      <point x="570" y="744" type="line"/>
      <point x="434" y="1038" type="line"/>
      <point x="640" y="1228" type="line"/>
      <point x="882" y="744" type="line"/>
    </contour>
  </outline>
</glyph>
<glyph name="p.sups" format="2">
  <advance width="890"/>
  <unicode hex="1D56"/>
  <outline>
    <contour>
      <point x="52" y="466" type="line"/>
      <point x="224" y="1490" type="line"/>
      <point x="482" y="1490" type="line"/>
      <point x="466" y="1394" type="line"/>
      <point x="480" y="1394" type="line"/>
      <point x="490" y="1406"/>
      <point x="538" y="1456"/>
      <point x="623" y="1498"/>
      <point x="690" y="1498" type="qcurve" smooth="yes"/>
      <point x="771" y="1498"/>
      <point x="900" y="1418"/>
      <point x="962" y="1251"/>
      <point x="940" y="1120" type="qcurve" smooth="yes"/>
      <point x="918" y="988"/>
      <point x="805" y="816"/>
      <point x="649" y="734"/>
      <point x="562" y="734" type="qcurve" smooth="yes"/>
      <point x="499" y="734"/>
      <point x="429" y="771"/>
      <point x="395" y="818"/>
      <point x="386" y="832" type="qcurve"/>
      <point x="376" y="832" type="line"/>
      <point x="318" y="466" type="line"/>
    </contour>
    <contour>
      <point x="418" y="1118" type="qcurve" smooth="yes"/>
      <point x="405" y="1035"/>
      <point x="456" y="943"/>
      <point x="514" y="942" type="qcurve"/>
      <point x="580" y="943"/>
      <point x="657" y="1039"/>
      <point x="670" y="1118" type="qcurve" smooth="yes"/>
      <point x="683" y="1196"/>
      <point x="633" y="1289"/>
      <point x="568" y="1288" type="qcurve"/>
      <point x="527" y="1289"/>
      <point x="466" y="1249"/>
      <point x="427" y="1173"/>
    </contour>
  </outline>
</glyph>
<glyph name="uni1DD1" format="2">
  <unicode hex="1DD1"/>
  <outline>
    <contour>
      <point x="-448" y="1280" type="qcurve" smooth="yes"/>
      <point x="-425" y="1280"/>
      <point x="-391" y="1311"/>
      <point x="-384" y="1342" type="qcurve"/>
      <point x="-380" y="1377"/>
      <point x="-407" y="1412"/>
      <point x="-448" y="1414" type="qcurve"/>
      <point x="-424" y="1556" type="line"/>
      <point x="-378" y="1556"/>
      <point x="-292" y="1508"/>
      <point x="-244" y="1414"/>
      <point x="-256" y="1344" type="qcurve" smooth="yes"/>
      <point x="-274" y="1244"/>
      <point x="-400" y="1135"/>
      <point x="-474" y="1134" type="qcurve"/>
      <point x="-556" y="1135"/>
      <point x="-630" y="1219"/>
      <point x="-632" y="1306" type="qcurve" smooth="yes"/>
      <point x="-634" y="1371"/>
      <point x="-668" y="1396"/>
      <point x="-680" y="1396" type="qcurve" smooth="yes"/>
      <point x="-705" y="1396"/>
      <point x="-743" y="1365"/>
      <point x="-744" y="1342" type="qcurve"/>
      <point x="-751" y="1313"/>
      <point x="-720" y="1287"/>
      <point x="-686" y="1288" type="qcurve"/>
      <point x="-712" y="1132" type="line"/>
      <point x="-800" y="1132"/>
      <point x="-888" y="1243"/>
      <point x="-870" y="1342" type="qcurve"/>
      <point x="-855" y="1437"/>
      <point x="-721" y="1542"/>
      <point x="-648" y="1542" type="qcurve" smooth="yes"/>
      <point x="-575" y="1542"/>
      <point x="-502" y="1460"/>
      <point x="-498" y="1374" type="qcurve"/>
      <point x="-493" y="1315"/>
      <point x="-466" y="1280"/>
    </contour>
  </outline>
</glyph>
<glyph name="uni1DE2" format="2">
  <unicode hex="1DE2"/>
  <outline>
    <contour>
      <point x="-530" y="1394" type="qcurve"/>
      <point x="-710" y="1394" type="line"/>
      <point x="-690" y="1536" type="line"/>
      <point x="-552" y="1536" type="line" smooth="yes"/>
      <point x="-513" y="1536"/>
      <point x="-466" y="1568"/>
      <point x="-462" y="1594" type="qcurve"/>
      <point x="-460" y="1614"/>
      <point x="-495" y="1655"/>
      <point x="-536" y="1656" type="qcurve"/>
      <point x="-590" y="1656" type="line"/>
      <point x="-664" y="1202" type="line"/>
      <point x="-846" y="1202" type="line"/>
      <point x="-748" y="1798" type="line"/>
      <point x="-510" y="1798" type="line" smooth="yes"/>
      <point x="-393" y="1798"/>
      <point x="-262" y="1697"/>
      <point x="-276" y="1612" type="qcurve" smooth="yes"/>
      <point x="-286" y="1546"/>
      <point x="-388" y="1460"/>
      <point x="-472" y="1440" type="qcurve"/>
      <point x="-477" y="1438"/>
      <point x="-496" y="1408"/>
      <point x="-492" y="1408" type="qcurve"/>
      <point x="-508" y="1404"/>
      <point x="-503" y="1390"/>
    </contour>
    <contour>
      <point x="-570" y="1394" type="qcurve"/>
      <point x="-512" y="1466" type="line"/>
      <point x="-414" y="1466"/>
      <point x="-326" y="1418"/>
      <point x="-308" y="1347"/>
      <point x="-314" y="1312" type="qcurve"/>
      <point x="-320" y="1286" type="line"/>
      <point x="-318" y="1288"/>
      <point x="-321" y="1254"/>
      <point x="-323" y="1215"/>
      <point x="-318" y="1208" type="qcurve"/>
      <point x="-318" y="1202" type="line"/>
      <point x="-506" y="1202" type="line"/>
      <point x="-510" y="1210"/>
      <point x="-500" y="1277"/>
      <point x="-500" y="1286" type="qcurve"/>
      <point x="-494" y="1312" type="line"/>
      <point x="-487" y="1349"/>
      <point x="-526" y="1393"/>
    </contour>
  </outline>
</glyph>
<glyph name="uni1DE3" format="2">
  <unicode hex="1DE3"/>
  <outline>
    <contour>
      <point x="-640" y="1568" type="qcurve"/>
      <point x="-706" y="1684" type="line"/>
      <point x="-667" y="1702"/>
      <point x="-605" y="1731"/>
      <point x="-531" y="1748"/>
      <point x="-474" y="1748" type="qcurve" smooth="yes"/>
      <point x="-385" y="1748"/>
      <point x="-270" y="1647"/>
      <point x="-286" y="1560" type="qcurve"/>
      <point x="-294" y="1509"/>
      <point x="-360" y="1445"/>
      <point x="-484" y="1401"/>
      <point x="-582" y="1378" type="qcurve"/>
      <point x="-626" y="1484" type="line"/>
      <point x="-555" y="1495"/>
      <point x="-472" y="1539"/>
      <point x="-468" y="1566" type="qcurve"/>
      <point x="-464" y="1583"/>
      <point x="-494" y="1606"/>
      <point x="-520" y="1606" type="qcurve" smooth="yes"/>
      <point x="-549" y="1606"/>
      <point x="-594" y="1590"/>
    </contour>
    <contour>
      <point x="-526" y="1202" type="line"/>
      <point x="-626" y="1484" type="line"/>
      <point x="-462" y="1490" type="line"/>
      <point x="-346" y="1214" type="line"/>
      <point x="-346" y="1202" type="line"/>
    </contour>
  </outline>
</glyph>
<glyph name="uni1DE8" format="2">
  <unicode hex="1DE8"/>
  <outline>
    <contour>
      <point x="-846" y="1202" type="line"/>
      <point x="-718" y="1990" type="line"/>
      <point x="-536" y="1990" type="line"/>
      <point x="-642" y="1338" type="line"/>
      <point x="-690" y="1202" type="line"/>
    </contour>
    <contour>
      <point x="-538" y="1192" type="qcurve"/>
      <point x="-601" y="1193"/>
      <point x="-675" y="1271"/>
      <point x="-706" y="1397"/>
      <point x="-706" y="1468" type="qcurve" smooth="yes"/>
      <point x="-706" y="1470" type="line"/>
      <point x="-669" y="1588"/>
      <point x="-543" y="1760"/>
      <point x="-448" y="1760" type="qcurve" smooth="yes"/>
      <point x="-336" y="1760"/>
      <point x="-270" y="1608"/>
      <point x="-270" y="1480" type="qcurve" smooth="yes"/>
      <point x="-270" y="1472" type="line" smooth="yes"/>
      <point x="-270" y="1391"/>
      <point x="-343" y="1265"/>
      <point x="-465" y="1193"/>
    </contour>
    <contour>
      <point x="-564" y="1336" type="qcurve"/>
      <point x="-511" y="1335"/>
      <point x="-454" y="1419"/>
      <point x="-454" y="1472" type="qcurve" smooth="yes"/>
      <point x="-454" y="1480" type="line" smooth="yes"/>
      <point x="-454" y="1538"/>
      <point x="-465" y="1623"/>
      <point x="-518" y="1624" type="qcurve"/>
      <point x="-574" y="1623"/>
      <point x="-628" y="1543"/>
      <point x="-638" y="1478" type="qcurve"/>
      <point x="-638" y="1470" type="line"/>
      <point x="-652" y="1409"/>
      <point x="-616" y="1335"/>
    </contour>
  </outline>
</glyph>
<glyph name="uni1DEB" format="2">
  <unicode hex="1DEB"/>
  <outline>
    <contour>
      <point x="-314" y="1760" type="line"/>
      <point x="-334" y="1634" type="line"/>
      <point x="-678" y="1634" type="line"/>
      <point x="-658" y="1760" type="line"/>
    </contour>
    <contour>
      <point x="-480" y="1202" type="line"/>
      <point x="-666" y="1202" type="line"/>
      <point x="-568" y="1812" type="line"/>
      <point x="-551" y="1906"/>
      <point x="-415" y="2007"/>
      <point x="-312" y="2008" type="qcurve"/>
      <point x="-285" y="2007"/>
      <point x="-237" y="2000"/>
      <point x="-226" y="1998" type="qcurve"/>
      <point x="-248" y="1858" type="line"/>
      <point x="-255" y="1863"/>
      <point x="-275" y="1865"/>
      <point x="-290" y="1864" type="qcurve"/>
      <point x="-331" y="1865"/>
      <point x="-377" y="1836"/>
      <point x="-382" y="1812" type="qcurve"/>
    </contour>
  </outline>
</glyph>
<glyph name="uni1DEE" format="2">
  <unicode hex="1DEE"/>
  <outline>
    <contour>
      <point x="-832" y="1612" type="line"/>
      <point x="-938" y="960" type="line"/>
      <point x="-1124" y="960" type="line"/>
      <point x="-996" y="1748" type="line"/>
      <point x="-836" y="1748" type="line"/>
    </contour>
    <contour>
      <point x="-682" y="1758" type="qcurve" smooth="yes"/>
      <point x="-609" y="1758"/>
      <point x="-535" y="1685"/>
      <point x="-508" y="1559"/>
      <point x="-508" y="1478" type="qcurve" smooth="yes"/>
      <point x="-508" y="1470" type="line" smooth="yes"/>
      <point x="-508" y="1342"/>
      <point x="-666" y="1190"/>
      <point x="-776" y="1190" type="qcurve" smooth="yes"/>
      <point x="-872" y="1190"/>
      <point x="-946" y="1352"/>
      <point x="-944" y="1470" type="qcurve"/>
      <point x="-944" y="1472" type="line"/>
      <point x="-921" y="1544"/>
      <point x="-846" y="1674"/>
      <point x="-745" y="1758"/>
    </contour>
    <contour>
      <point x="-756" y="1614" type="qcurve"/>
      <point x="-808" y="1615"/>
      <point x="-878" y="1542"/>
      <point x="-878" y="1480" type="qcurve" smooth="yes"/>
      <point x="-878" y="1472" type="line" smooth="yes"/>
      <point x="-878" y="1399"/>
      <point x="-857" y="1327"/>
      <point x="-804" y="1326" type="qcurve"/>
      <point x="-754" y="1327"/>
      <point x="-688" y="1410"/>
      <point x="-688" y="1470" type="qcurve" smooth="yes"/>
      <point x="-688" y="1478" type="line" smooth="yes"/>
      <point x="-688" y="1534"/>
      <point x="-703" y="1615"/>
    </contour>
  </outline>
</glyph>
<glyph name="uni1DEF" format="2">
  <unicode hex="1DEF"/>
  <outline>
    <contour>
      <point x="-480" y="1202" type="line"/>
      <point x="-664" y="1202" type="line"/>
      <point x="-564" y="1812" type="line" smooth="yes"/>
      <point x="-549" y="1906"/>
      <point x="-413" y="2007"/>
      <point x="-308" y="2008" type="qcurve"/>
      <point x="-284" y="2007"/>
      <point x="-239" y="2000"/>
      <point x="-226" y="1998" type="qcurve"/>
      <point x="-244" y="1858" type="line"/>
      <point x="-253" y="1863"/>
      <point x="-276" y="1865"/>
      <point x="-290" y="1864" type="qcurve"/>
      <point x="-332" y="1865"/>
      <point x="-377" y="1834"/>
      <point x="-382" y="1812" type="qcurve"/>
    </contour>
    <contour>
      <point x="-574" y="1754" type="line"/>
      <point x="-390" y="1754" type="line"/>
      <point x="-492" y="1146" type="line"/>
      <point x="-507" y="1052"/>
      <point x="-640" y="948"/>
      <point x="-744" y="948" type="qcurve" smooth="yes"/>
      <point x="-769" y="948"/>
      <point x="-810" y="956"/>
      <point x="-830" y="960" type="qcurve"/>
      <point x="-808" y="1096" type="line"/>
      <point x="-802" y="1092"/>
      <point x="-780" y="1091"/>
      <point x="-766" y="1090" type="qcurve"/>
      <point x="-724" y="1091"/>
      <point x="-677" y="1122"/>
      <point x="-674" y="1146" type="qcurve"/>
    </contour>
  </outline>
</glyph>
<glyph name="uni1E9D" format="2">
  <advance width="824"/>
  <unicode hex="1E9D"/>
  <outline>
    <contour>
      <point x="468" y="0" type="line"/>
      <point x="90" y="0" type="line"/>
      <point x="282" y="1160" type="line" smooth="yes"/>
      <point x="314" y="1355"/>
      <point x="593" y="1556"/>
      <point x="794" y="1556" type="qcurve" smooth="yes"/>
      <point x="844" y="1556"/>
      <point x="929" y="1542"/>
      <point x="960" y="1534" type="qcurve"/>
      <point x="916" y="1250" type="line"/>
      <point x="890" y="1260"/>
      <point x="834" y="1260" type="qcurve" smooth="yes"/>
      <point x="762" y="1260"/>
      <point x="668" y="1211"/>
      <point x="660" y="1160" type="qcurve" smooth="yes"/>
    </contour>
    <contour>
      <point x="884" y="1196" type="line"/>
      <point x="850" y="984" type="line"/>
      <point x="94" y="984" type="line"/>
      <point x="128" y="1196" type="line"/>
    </contour>
  </outline>
</glyph>
<glyph name="uni1EFC" format="2">
  <advance width="1492"/>
  <unicode hex="1EFC"/>
  <outline>
    <contour>
      <point x="818" y="710" type="qcurve"/>
      <point x="1050" y="966" type="line"/>
      <point x="1132" y="917"/>
      <point x="1266" y="770"/>
      <point x="1333" y="586"/>
      <point x="1314" y="480" type="qcurve"/>
      <point x="1287" y="319"/>
      <point x="1103" y="95"/>
      <point x="831" y="-20"/>
      <point x="672" y="-20" type="qcurve" smooth="yes"/>
      <point x="547" y="-20"/>
      <point x="341" y="51"/>
      <point x="202" y="197"/>
      <point x="147" y="422"/>
      <point x="172" y="576" type="qcurve"/>
      <point x="184" y="642" type="line"/>
      <point x="216" y="838"/>
      <point x="415" y="1142"/>
      <point x="701" y="1356"/>
      <point x="1027" y="1475"/>
      <point x="1186" y="1486" type="qcurve"/>
      <point x="1166" y="1182" type="line"/>
      <point x="1074" y="1169"/>
      <point x="888" y="1102"/>
      <point x="724" y="972"/>
      <point x="603" y="758"/>
      <point x="576" y="596" type="qcurve" smooth="yes"/>
      <point x="562" y="510" type="line" smooth="yes"/>
      <point x="552" y="446"/>
      <point x="569" y="348"/>
      <point x="640" y="294"/>
      <point x="712" y="294" type="qcurve" smooth="yes"/>
      <point x="764" y="294"/>
      <point x="850" y="333"/>
      <point x="908" y="406"/>
      <point x="916" y="456" type="qcurve"/>
      <point x="926" y="503"/>
      <point x="910" y="591"/>
      <point x="861" y="672"/>
    </contour>
  </outline>
</glyph>
<glyph name="uni1EFE" format="2">
  <advance width="1606"/>
  <unicode hex="1EFE"/>
  <outline>
    <contour>
      <point x="814" y="690" type="line"/>
      <point x="1336" y="1490" type="line"/>
      <point x="1750" y="1490" type="line"/>
      <point x="862" y="230" type="line"/>
      <point x="798" y="526" type="line"/>
    </contour>
    <contour>
      <point x="762" y="1490" type="line"/>
      <point x="1006" y="672" type="line"/>
      <point x="916" y="472" type="line"/>
      <point x="718" y="472" type="line"/>
      <point x="350" y="1490" type="line"/>
    </contour>
    <contour>
      <point x="402" y="-20" type="qcurve" smooth="yes"/>
      <point x="274" y="-20"/>
      <point x="81" y="102"/>
      <point x="-12" y="309"/>
      <point x="8" y="434" type="qcurve" smooth="yes"/>
      <point x="29" y="559"/>
      <point x="190" y="768"/>
      <point x="423" y="894"/>
      <point x="552" y="894" type="qcurve" smooth="yes"/>
      <point x="679" y="894"/>
      <point x="873" y="772"/>
      <point x="968" y="565"/>
      <point x="946" y="434" type="qcurve" smooth="yes"/>
      <point x="926" y="310"/>
      <point x="764" y="104"/>
      <point x="531" y="-20"/>
    </contour>
    <contour>
      <point x="454" y="290" type="qcurve"/>
      <point x="495" y="291"/>
      <point x="566" y="325"/>
      <point x="615" y="392"/>
      <point x="622" y="440" type="qcurve"/>
      <point x="636" y="509"/>
      <point x="562" y="585"/>
      <point x="500" y="584" type="qcurve"/>
      <point x="458" y="585"/>
      <point x="388" y="551"/>
      <point x="341" y="486"/>
      <point x="332" y="440" type="qcurve"/>
      <point x="321" y="367"/>
      <point x="390" y="291"/>
    </contour>
  </outline>
</glyph>
<glyph name="uni1FEF" format="2">
  <advance width="822"/>
  <unicode hex="1FEF"/>
  <outline>
    <contour>
      <point x="681" y="1256" type="line"/>
      <point x="457" y="1256" type="line"/>
      <point x="367" y="1582" type="line"/>
      <point x="703" y="1582" type="line"/>
    </contour>
  </outline>
</glyph>
<glyph name="uni203B" format="2">
  <advance width="1952"/>
  <unicode hex="203B"/>
  <outline>
    <contour>
      <point x="610" y="186" type="line"/>
      <point x="430" y="392" type="line"/>
      <point x="1382" y="1186" type="line"/>
      <point x="1560" y="980" type="line"/>
    </contour>
    <contour>
      <point x="1216" y="186" type="line"/>
      <point x="526" y="980" type="line"/>
      <point x="776" y="1186" type="line"/>
      <point x="1464" y="392" type="line"/>
    </contour>
    <contour>
      <point x="250" y="684" type="qcurve"/>
      <point x="261" y="754"/>
      <point x="395" y="847"/>
      <point x="486" y="846" type="qcurve"/>
      <point x="574" y="847"/>
      <point x="677" y="754"/>
      <point x="666" y="684" type="qcurve"/>
      <point x="656" y="612"/>
      <point x="523" y="515"/>
      <point x="434" y="514" type="qcurve"/>
      <point x="343" y="515"/>
      <point x="240" y="612"/>
    </contour>
    <contour>
      <point x="704" y="162" type="qcurve"/>
      <point x="718" y="237"/>
      <point x="849" y="332"/>
      <point x="940" y="332" type="qcurve" smooth="yes"/>
      <point x="1030" y="332"/>
      <point x="1131" y="237"/>
      <point x="1118" y="162" type="qcurve" smooth="yes"/>
      <point x="1107" y="93"/>
      <point x="974" y="0"/>
      <point x="884" y="0" type="qcurve" smooth="yes"/>
      <point x="793" y="0"/>
      <point x="694" y="93"/>
    </contour>
    <contour>
      <point x="878" y="1204" type="qcurve" smooth="yes"/>
      <point x="890" y="1278"/>
      <point x="1021" y="1373"/>
      <point x="1112" y="1374" type="qcurve"/>
      <point x="1201" y="1373"/>
      <point x="1303" y="1278"/>
      <point x="1292" y="1204" type="qcurve"/>
      <point x="1279" y="1134"/>
      <point x="1146" y="1041"/>
      <point x="1056" y="1042" type="qcurve"/>
      <point x="965" y="1041"/>
      <point x="866" y="1134"/>
    </contour>
    <contour>
      <point x="1326" y="684" type="qcurve"/>
      <point x="1338" y="754"/>
      <point x="1471" y="847"/>
      <point x="1562" y="846" type="qcurve"/>
      <point x="1652" y="847"/>
      <point x="1754" y="754"/>
      <point x="1742" y="684" type="qcurve"/>
      <point x="1732" y="612"/>
      <point x="1600" y="515"/>
      <point x="1510" y="514" type="qcurve"/>
      <point x="1419" y="515"/>
      <point x="1316" y="612"/>
    </contour>
  </outline>
</glyph>
<glyph name="uni2050" format="2">
  <advance width="1774"/>
  <unicode hex="2050"/>
  <outline>
    <contour>
      <point x="966" y="1558" type="qcurve"/>
      <point x="1173" y="1559"/>
      <point x="1530" y="1490"/>
      <point x="1799" y="1373"/>
      <point x="1874" y="1300" type="qcurve"/>
      <point x="1780" y="1180" type="line"/>
      <point x="1705" y="1210"/>
      <point x="1473" y="1272"/>
      <point x="1178" y="1314"/>
      <point x="1008" y="1314" type="qcurve" smooth="yes"/>
      <point x="755" y="1314"/>
      <point x="394" y="1228"/>
      <point x="298" y="1180" type="qcurve"/>
      <point x="148" y="1300" type="line"/>
      <point x="216" y="1377"/>
      <point x="442" y="1494"/>
      <point x="760" y="1559"/>
    </contour>
    <contour>
      <point x="712" y="-494" type="qcurve" smooth="yes"/>
      <point x="506" y="-494"/>
      <point x="188" y="-430"/>
      <point x="-38" y="-313"/>
      <point x="-106" y="-236" type="qcurve"/>
      <point x="44" y="-116" type="line"/>
      <point x="140" y="-164"/>
      <point x="501" y="-250"/>
      <point x="754" y="-250" type="qcurve" smooth="yes"/>
      <point x="924" y="-250"/>
      <point x="1219" y="-208"/>
      <point x="1451" y="-145"/>
      <point x="1526" y="-116" type="qcurve"/>
      <point x="1620" y="-236" type="line"/>
      <point x="1545" y="-308"/>
      <point x="1276" y="-426"/>
      <point x="919" y="-494"/>
    </contour>
  </outline>
</glyph>
<glyph name="uni2054" format="2">
  <advance width="1798"/>
  <unicode hex="2054"/>
  <outline>
    <contour>
      <point x="788" y="-116" type="qcurve" smooth="yes"/>
      <point x="994" y="-116"/>
      <point x="1326" y="-185"/>
      <point x="1557" y="-303"/>
      <point x="1608" y="-376" type="qcurve"/>
      <point x="1474" y="-494" type="line"/>
      <point x="1377" y="-450"/>
      <point x="1002" y="-364"/>
      <point x="748" y="-364" type="qcurve" smooth="yes"/>
      <point x="498" y="-364"/>
      <point x="105" y="-445"/>
      <point x="-8" y="-498" type="qcurve"/>
      <point x="-116" y="-376" type="line"/>
      <point x="-27" y="-301"/>
      <point x="233" y="-184"/>
      <point x="576" y="-116"/>
    </contour>
  </outline>
</glyph>
<glyph name="zero.sups" format="2">
  <advance width="978"/>
  <unicode hex="2070"/>
  <outline>
    <contour>
      <point x="514" y="722" type="qcurve"/>
      <point x="312" y="721"/>
      <point x="125" y="967"/>
      <point x="162" y="1190" type="qcurve" smooth="yes"/>
      <point x="200" y="1413"/>
      <point x="468" y="1649"/>
      <point x="670" y="1650" type="qcurve"/>
      <point x="866" y="1649"/>
      <point x="1063" y="1420"/>
      <point x="1024" y="1184" type="qcurve" smooth="yes"/>
      <point x="989" y="975"/>
      <point x="726" y="721"/>
    </contour>
    <contour>
      <point x="550" y="946" type="qcurve"/>
      <point x="622" y="945"/>
      <point x="728" y="1062"/>
      <point x="750" y="1184" type="qcurve" smooth="yes"/>
      <point x="775" y="1319"/>
      <point x="708" y="1431"/>
      <point x="634" y="1432" type="qcurve"/>
      <point x="564" y="1431"/>
      <point x="458" y="1315"/>
      <point x="436" y="1190" type="qcurve" smooth="yes"/>
      <point x="412" y="1057"/>
      <point x="485" y="945"/>
    </contour>
  </outline>
</glyph>
<glyph name="four.sups" format="2">
  <advance width="962"/>
  <unicode hex="2074"/>
  <outline>
    <contour>
      <point x="108" y="876" type="line"/>
      <point x="140" y="1088" type="line"/>
      <point x="632" y="1638" type="line"/>
      <point x="814" y="1638" type="line"/>
      <point x="770" y="1356" type="line"/>
      <point x="670" y="1356" type="line"/>
      <point x="408" y="1100" type="line"/>
      <point x="408" y="1090" type="line"/>
      <point x="1004" y="1090" type="line"/>
      <point x="974" y="876" type="line"/>
    </contour>
    <contour>
      <point x="568" y="744" type="line"/>
      <point x="600" y="940" type="line"/>
      <point x="620" y="1036" type="line"/>
      <point x="722" y="1638" type="line"/>
      <point x="972" y="1638" type="line"/>
      <point x="824" y="744" type="line"/>
    </contour>
  </outline>
</glyph>
<glyph name="uni20A0" format="2">
  <advance width="1608"/>
  <unicode hex="20A0"/>
  <outline>
    <contour>
      <point x="628" y="680" type="qcurve"/>
      <point x="578" y="378" type="line"/>
      <point x="406" y="378"/>
      <point x="175" y="502"/>
      <point x="74" y="722"/>
      <point x="96" y="864" type="qcurve"/>
      <point x="128" y="1056" type="line"/>
      <point x="154" y="1199"/>
      <point x="327" y="1415"/>
      <point x="597" y="1536"/>
      <point x="768" y="1536" type="qcurve" smooth="yes"/>
      <point x="1011" y="1536"/>
      <point x="1257" y="1319"/>
      <point x="1236" y="1096" type="qcurve"/>
      <point x="856" y="1096" type="line"/>
      <point x="850" y="1164"/>
      <point x="796" y="1233"/>
      <point x="716" y="1234" type="qcurve"/>
      <point x="653" y="1234"/>
      <point x="569" y="1188"/>
      <point x="522" y="1109"/>
      <point x="512" y="1056" type="qcurve"/>
      <point x="480" y="864" type="line"/>
      <point x="472" y="810"/>
      <point x="494" y="727"/>
      <point x="564" y="681"/>
    </contour>
    <contour>
      <point x="1516" y="306" type="line"/>
      <point x="1464" y="0" type="line"/>
      <point x="744" y="0" type="line"/>
      <point x="798" y="306" type="line"/>
    </contour>
    <contour>
      <point x="1068" y="1036" type="line"/>
      <point x="896" y="0" type="line"/>
      <point x="512" y="0" type="line"/>
      <point x="684" y="1036" type="line"/>
    </contour>
    <contour>
      <point x="1486" y="686" type="line"/>
      <point x="1438" y="378" type="line"/>
      <point x="808" y="378" type="line"/>
      <point x="858" y="686" type="line"/>
    </contour>
    <contour>
      <point x="1634" y="1036" type="line"/>
      <point x="1586" y="730" type="line"/>
      <point x="866" y="730" type="line"/>
      <point x="916" y="1036" type="line"/>
    </contour>
  </outline>
</glyph>
<glyph name="uni20B0" format="2">
  <advance width="1684"/>
  <unicode hex="20B0"/>
  <outline>
    <contour>
      <point x="72" y="0" type="line"/>
      <point x="574" y="722" type="line"/>
      <point x="846" y="386" type="line"/>
      <point x="894" y="434" type="line"/>
      <point x="1011" y="593"/>
      <point x="1162" y="811"/>
      <point x="1250" y="962"/>
      <point x="1294" y="1076"/>
      <point x="1304" y="1132" type="qcurve"/>
      <point x="1311" y="1180"/>
      <point x="1284" y="1260"/>
      <point x="1222" y="1260" type="qcurve" smooth="yes"/>
      <point x="1157" y="1260"/>
      <point x="1103" y="1170"/>
      <point x="1094" y="1120" type="qcurve"/>
      <point x="1084" y="1057"/>
      <point x="1096" y="919"/>
      <point x="1108" y="846" type="qcurve"/>
      <point x="1246" y="204" type="line" smooth="yes"/>
      <point x="1265" y="115"/>
      <point x="1282" y="-8"/>
      <point x="1282" y="-103"/>
      <point x="1274" y="-152" type="qcurve" smooth="yes"/>
      <point x="1251" y="-293"/>
      <point x="1043" y="-436"/>
      <point x="894" y="-436" type="qcurve" smooth="yes"/>
      <point x="820" y="-436"/>
      <point x="701" y="-406"/>
      <point x="648" y="-386" type="qcurve"/>
      <point x="698" y="-94" type="line"/>
      <point x="751" y="-115"/>
      <point x="830" y="-137"/>
      <point x="864" y="-136" type="qcurve"/>
      <point x="921" y="-137"/>
      <point x="953" y="-88"/>
      <point x="954" y="-66" type="qcurve"/>
      <point x="964" y="-23"/>
      <point x="919" y="155"/>
      <point x="890" y="264" type="qcurve"/>
      <point x="786" y="684" type="line" smooth="yes"/>
      <point x="773" y="736"/>
      <point x="751" y="900"/>
      <point x="747" y="1082"/>
      <point x="760" y="1160" type="qcurve" smooth="yes"/>
      <point x="784" y="1297"/>
      <point x="933" y="1474"/>
      <point x="1145" y="1560"/>
      <point x="1262" y="1560" type="qcurve" smooth="yes"/>
      <point x="1387" y="1560"/>
      <point x="1562" y="1469"/>
      <point x="1641" y="1299"/>
      <point x="1620" y="1178" type="qcurve"/>
      <point x="1602" y="1061"/>
      <point x="1494" y="834"/>
      <point x="1302" y="566"/>
      <point x="1013" y="218"/>
      <point x="814" y="-20" type="qcurve"/>
      <point x="546" y="232" type="line"/>
      <point x="386" y="0" type="line"/>
    </contour>
  </outline>
</glyph>
<glyph name="uni20B2" format="2">
  <advance width="1546"/>
  <unicode hex="20B2"/>
  <anchor x="693" y="0" name="m.uni0326"/>
  <anchor x="948" y="1490" name="m.uni030F_1"/>
  <outline>
    <contour>
      <point x="642" y="-186" type="line"/>
      <point x="950" y="1676" type="line"/>
      <point x="1070" y="1676" type="line"/>
      <point x="762" y="-186" type="line"/>
    </contour>
    <contour>
      <point x="726" y="-20" type="qcurve" smooth="yes"/>
      <point x="531" y="-20"/>
      <point x="246" y="129"/>
      <point x="91" y="405"/>
      <point x="91" y="597" type="qcurve" smooth="yes"/>
      <point x="91" y="784"/>
      <point x="213" y="1115"/>
      <point x="438" y="1367"/>
      <point x="748" y="1510"/>
      <point x="936" y="1510" type="qcurve" smooth="yes"/>
      <point x="1062" y="1510"/>
      <point x="1283" y="1440"/>
      <point x="1447" y="1306"/>
      <point x="1534" y="1117"/>
      <point x="1526" y="998" type="qcurve"/>
      <point x="1118" y="998" type="line"/>
      <point x="1115" y="1036"/>
      <point x="1087" y="1096"/>
      <point x="1039" y="1137"/>
      <point x="971" y="1158"/>
      <point x="927" y="1158" type="qcurve" smooth="yes"/>
      <point x="821" y="1158"/>
      <point x="662" y="1060"/>
      <point x="556" y="897"/>
      <point x="503" y="700"/>
      <point x="503" y="600" type="qcurve" smooth="yes"/>
      <point x="503" y="471"/>
      <point x="623" y="332"/>
      <point x="747" y="332" type="qcurve" smooth="yes"/>
      <point x="844" y="332"/>
      <point x="986" y="392"/>
      <point x="1071" y="498"/>
      <point x="1082" y="565" type="qcurve"/>
      <point x="1148" y="544" type="line"/>
      <point x="809" y="544" type="line"/>
      <point x="856" y="832" type="line"/>
      <point x="1516" y="832" type="line"/>
      <point x="1480" y="613" type="line" smooth="yes"/>
      <point x="1455" y="460"/>
      <point x="1320" y="224"/>
      <point x="1120" y="63"/>
      <point x="868" y="-20"/>
    </contour>
  </outline>
</glyph>
<glyph name="uni20B3" format="2">
  <advance width="1629"/>
  <unicode hex="20B3"/>
  <anchor x="829" y="0" name="m.uni0326"/>
  <anchor x="1076" y="1490" name="m.uni030F_1"/>
  <outline>
    <contour>
      <point x="56" y="614" type="line"/>
      <point x="80" y="760" type="line"/>
      <point x="1616" y="760" type="line"/>
      <point x="1592" y="614" type="line"/>
    </contour>
    <contour>
      <point x="7" y="322" type="line"/>
      <point x="31" y="468" type="line"/>
      <point x="1567" y="468" type="line"/>
      <point x="1543" y="322" type="line"/>
    </contour>
    <contour>
      <point x="-46" y="0" type="line"/>
      <point x="684" y="1490" type="line"/>
      <point x="1236" y="1490" type="line"/>
      <point x="1490" y="0" type="line"/>
      <point x="1048" y="0" type="line"/>
      <point x="971" y="578" type="line" smooth="yes"/>
      <point x="946" y="766"/>
      <point x="915" y="1171"/>
      <point x="904" y="1371" type="qcurve"/>
      <point x="996" y="1371" type="line"/>
      <point x="921" y="1171"/>
      <point x="768" y="766"/>
      <point x="683" y="578" type="qcurve" smooth="yes"/>
      <point x="422" y="0" type="line"/>
    </contour>
  </outline>
</glyph>
<glyph name="uni20BA" format="2">
  <advance width="1408"/>
  <unicode hex="20BA"/>
  <outline>
    <contour>
      <point x="792" y="1490" type="line"/>
      <point x="544" y="0" type="line"/>
      <point x="148" y="6" type="line"/>
      <point x="392" y="1490" type="line"/>
    </contour>
    <contour>
      <point x="928" y="724" type="qcurve"/>
      <point x="1336" y="724" type="line"/>
      <point x="1299" y="501"/>
      <point x="1067" y="167"/>
      <point x="728" y="-20"/>
      <point x="532" y="-20" type="qcurve" smooth="yes"/>
      <point x="403" y="-20"/>
      <point x="216" y="-5"/>
      <point x="148" y="6" type="qcurve"/>
      <point x="584" y="294" type="line"/>
      <point x="680" y="294"/>
      <point x="819" y="400"/>
      <point x="908" y="594"/>
    </contour>
    <contour>
      <point x="948" y="1368" type="line"/>
      <point x="908" y="1126" type="line"/>
      <point x="192" y="994" type="line"/>
      <point x="230" y="1234" type="line"/>
    </contour>
    <contour>
      <point x="894" y="1038" type="line"/>
      <point x="856" y="802" type="line"/>
      <point x="136" y="672" type="line"/>
      <point x="178" y="910" type="line"/>
    </contour>
  </outline>
</glyph>
<glyph name="uni20BB" format="2">
  <advance width="2068"/>
  <unicode hex="20BB"/>
  <outline>
    <contour>
      <point x="1068" y="986" type="qcurve" smooth="yes"/>
      <point x="974" y="422" type="line" smooth="yes"/>
      <point x="967" y="380"/>
      <point x="1014" y="296"/>
      <point x="1134" y="242"/>
      <point x="1234" y="242" type="qcurve"/>
      <point x="1192" y="0" type="line"/>
      <point x="1002" y="0"/>
      <point x="766" y="60"/>
      <point x="640" y="161"/>
      <point x="594" y="282"/>
      <point x="597" y="407"/>
      <point x="606" y="460" type="qcurve" smooth="yes"/>
      <point x="710" y="1082" type="line" smooth="yes"/>
      <point x="718" y="1132"/>
      <point x="693" y="1196"/>
      <point x="642" y="1196" type="qcurve" smooth="yes"/>
      <point x="610" y="1196"/>
      <point x="551" y="1177"/>
      <point x="544" y="1138" type="qcurve" smooth="yes"/>
      <point x="537" y="1098"/>
      <point x="607" y="1082"/>
      <point x="638" y="1082" type="qcurve" smooth="yes"/>
      <point x="1408" y="1082" type="line"/>
      <point x="1368" y="840" type="line"/>
      <point x="558" y="840" type="line"/>
      <point x="367" y="841"/>
      <point x="205" y="999"/>
      <point x="224" y="1126" type="qcurve"/>
      <point x="246" y="1257"/>
      <point x="475" y="1414"/>
      <point x="686" y="1414" type="qcurve" smooth="yes"/>
      <point x="864" y="1414"/>
      <point x="1042" y="1301"/>
      <point x="1088" y="1107"/>
    </contour>
    <contour>
      <point x="384" y="280" type="line"/>
      <point x="308" y="562" type="line"/>
      <point x="1114" y="808" type="line"/>
      <point x="1198" y="666" type="line"/>
      <point x="1400" y="756" type="line"/>
      <point x="1502" y="594" type="line"/>
      <point x="1554" y="602"/>
      <point x="1608" y="665"/>
      <point x="1614" y="702" type="qcurve" smooth="yes"/>
      <point x="1628" y="780"/>
      <point x="1516" y="841"/>
      <point x="1368" y="840" type="qcurve"/>
      <point x="1408" y="1082" type="line"/>
      <point x="1569" y="1082"/>
      <point x="1793" y="1032"/>
      <point x="1928" y="935"/>
      <point x="1978" y="797"/>
      <point x="1964" y="710" type="qcurve" smooth="yes"/>
      <point x="1945" y="598"/>
      <point x="1814" y="442"/>
      <point x="1637" y="346"/>
      <point x="1454" y="302"/>
      <point x="1384" y="302" type="qcurve"/>
      <point x="1292" y="434" type="line"/>
      <point x="1082" y="332" type="line"/>
      <point x="992" y="482" type="line"/>
    </contour>
  </outline>
</glyph>
<glyph name="uni2183" format="2">
  <advance width="1690"/>
  <unicode hex="2183"/>
  <outline>
    <contour>
      <point x="194" y="504" type="qcurve"/>
      <point x="574" y="504" type="line"/>
      <point x="557" y="383"/>
      <point x="679" y="282"/>
      <point x="792" y="282" type="qcurve" smooth="yes"/>
      <point x="903" y="282"/>
      <point x="1037" y="370"/>
      <point x="1114" y="555"/>
      <point x="1138" y="698" type="qcurve" smooth="yes"/>
      <point x="1154" y="794" type="line" smooth="yes"/>
      <point x="1177" y="932"/>
      <point x="1157" y="1116"/>
      <point x="1048" y="1208"/>
      <point x="936" y="1208" type="qcurve"/>
      <point x="812" y="1207"/>
      <point x="672" y="1094"/>
      <point x="648" y="978" type="qcurve"/>
      <point x="270" y="978" type="line"/>
      <point x="309" y="1125"/>
      <point x="497" y="1366"/>
      <point x="791" y="1510"/>
      <point x="988" y="1510" type="qcurve" smooth="yes"/>
      <point x="1191" y="1510"/>
      <point x="1452" y="1338"/>
      <point x="1558" y="1017"/>
      <point x="1526" y="792" type="qcurve" smooth="yes"/>
      <point x="1512" y="698" type="line"/>
      <point x="1481" y="474"/>
      <point x="1273" y="152"/>
      <point x="950" y="-20"/>
      <point x="744" y="-20" type="qcurve" smooth="yes"/>
      <point x="557" y="-20"/>
      <point x="298" y="111"/>
      <point x="176" y="347"/>
    </contour>
  </outline>
</glyph>
<glyph name="arrowleft" format="2">
  <advance width="1954"/>
  <unicode hex="2190"/>
  <outline>
    <contour>
      <point x="874" y="-136" type="line"/>
      <point x="217" y="652" type="line"/>
      <point x="1135" y="1438" type="line"/>
      <point x="1307" y="1234" type="line"/>
      <point x="1015" y="982" type="line" smooth="yes"/>
      <point x="966" y="940"/>
      <point x="839" y="850"/>
      <point x="709" y="765"/>
      <point x="598" y="695"/>
      <point x="565" y="674" type="qcurve"/>
      <point x="576" y="746" type="line"/>
      <point x="615" y="754"/>
      <point x="757" y="781"/>
      <point x="911" y="802"/>
      <point x="968" y="802" type="qcurve" smooth="yes"/>
      <point x="1738" y="802" type="line"/>
      <point x="1688" y="500" type="line"/>
      <point x="918" y="500" type="line" smooth="yes"/>
      <point x="861" y="500"/>
      <point x="714" y="521"/>
      <point x="581" y="548"/>
      <point x="545" y="556" type="qcurve"/>
      <point x="557" y="627" type="line"/>
      <point x="584" y="606"/>
      <point x="675" y="533"/>
      <point x="779" y="446"/>
      <point x="874" y="358"/>
      <point x="905" y="321" type="qcurve" smooth="yes"/>
      <point x="1115" y="70" type="line"/>
    </contour>
  </outline>
</glyph>
<glyph name="arrowright" format="2">
  <advance width="1954"/>
  <unicode hex="2192"/>
  <outline>
    <contour>
      <point x="848" y="-136" type="line"/>
      <point x="677" y="70" type="line"/>
      <point x="969" y="321" type="line" smooth="yes"/>
      <point x="1012" y="358"/>
      <point x="1137" y="446"/>
      <point x="1271" y="533"/>
      <point x="1386" y="606"/>
      <point x="1419" y="627" type="qcurve"/>
      <point x="1407" y="556" type="line"/>
      <point x="1369" y="548"/>
      <point x="1227" y="521"/>
      <point x="1073" y="500"/>
      <point x="1016" y="500" type="qcurve" smooth="yes"/>
      <point x="246" y="500" type="line"/>
      <point x="296" y="802" type="line"/>
      <point x="1066" y="802" type="line" smooth="yes"/>
      <point x="1123" y="802"/>
      <point x="1270" y="781"/>
      <point x="1403" y="754"/>
      <point x="1438" y="746" type="qcurve"/>
      <point x="1427" y="674" type="line"/>
      <point x="1392" y="703"/>
      <point x="1262" y="805"/>
      <point x="1125" y="926"/>
      <point x="1078" y="982" type="qcurve" smooth="yes"/>
      <point x="869" y="1234" type="line"/>
      <point x="1109" y="1438" type="line"/>
      <point x="1767" y="652" type="line"/>
    </contour>
  </outline>
</glyph>
<glyph name="arrowdown" format="2">
  <advance width="1978"/>
  <unicode hex="2193"/>
  <outline>
    <contour>
      <point x="1809" y="756" type="line"/>
      <point x="891" y="-32" type="line"/>
      <point x="235" y="756" type="line"/>
      <point x="474" y="962" type="line"/>
      <point x="684" y="711" type="line" smooth="yes"/>
      <point x="731" y="655"/>
      <point x="825" y="498"/>
      <point x="904" y="352"/>
      <point x="926" y="312" type="qcurve"/>
      <point x="854" y="312" type="line"/>
      <point x="852" y="349"/>
      <point x="848" y="486"/>
      <point x="852" y="637"/>
      <point x="861" y="694" type="qcurve" smooth="yes"/>
      <point x="993" y="1490" type="line"/>
      <point x="1295" y="1490" type="line"/>
      <point x="1163" y="694" type="line" smooth="yes"/>
      <point x="1154" y="637"/>
      <point x="1107" y="486"/>
      <point x="1058" y="349"/>
      <point x="1044" y="312" type="qcurve"/>
      <point x="973" y="312" type="line"/>
      <point x="999" y="342"/>
      <point x="1089" y="445"/>
      <point x="1196" y="564"/>
      <point x="1302" y="674"/>
      <point x="1345" y="711" type="qcurve" smooth="yes"/>
      <point x="1638" y="962" type="line"/>
    </contour>
  </outline>
</glyph>
<glyph name="arrowupdn" format="2">
  <advance width="1799"/>
  <unicode hex="2195"/>
  <outline>
    <contour>
      <point x="721" y="-519" type="line"/>
      <point x="140" y="179" type="line"/>
      <point x="379" y="385" type="line"/>
      <point x="513" y="224" type="line" smooth="yes"/>
      <point x="544" y="187"/>
      <point x="614" y="77"/>
      <point x="681" y="-42"/>
      <point x="737" y="-145"/>
      <point x="753" y="-175" type="qcurve"/>
      <point x="682" y="-175" type="line"/>
      <point x="680" y="-138"/>
      <point x="676" y="-1"/>
      <point x="680" y="150"/>
      <point x="689" y="207" type="qcurve" smooth="yes"/>
      <point x="837" y="1097" type="line" smooth="yes"/>
      <point x="846" y="1154"/>
      <point x="892" y="1305"/>
      <point x="942" y="1442"/>
      <point x="956" y="1479" type="qcurve"/>
      <point x="1027" y="1479" type="line"/>
      <point x="1001" y="1449"/>
      <point x="911" y="1346"/>
      <point x="804" y="1227"/>
      <point x="698" y="1117"/>
      <point x="655" y="1080" type="qcurve" smooth="yes"/>
      <point x="467" y="919" type="line"/>
      <point x="296" y="1125" type="line"/>
      <point x="1109" y="1823" type="line"/>
      <point x="1690" y="1124" type="line"/>
      <point x="1451" y="919" type="line"/>
      <point x="1316" y="1080" type="line" smooth="yes"/>
      <point x="1269" y="1136"/>
      <point x="1174" y="1293"/>
      <point x="1096" y="1439"/>
      <point x="1074" y="1479" type="qcurve"/>
      <point x="1146" y="1479" type="line"/>
      <point x="1148" y="1442"/>
      <point x="1152" y="1305"/>
      <point x="1148" y="1154"/>
      <point x="1139" y="1097" type="qcurve" smooth="yes"/>
      <point x="991" y="207" type="line" smooth="yes"/>
      <point x="982" y="150"/>
      <point x="935" y="-1"/>
      <point x="886" y="-138"/>
      <point x="872" y="-175" type="qcurve"/>
      <point x="800" y="-175" type="line"/>
      <point x="826" y="-145"/>
      <point x="912" y="-45"/>
      <point x="1017" y="70"/>
      <point x="1125" y="182"/>
      <point x="1174" y="224" type="qcurve" smooth="yes"/>
      <point x="1363" y="385" type="line"/>
      <point x="1534" y="180" type="line"/>
    </contour>
  </outline>
</glyph>
<glyph name="uni2197" format="2">
  <advance width="1615"/>
  <unicode hex="2197"/>
  <outline>
    <contour>
      <point x="1272" y="0" type="line"/>
      <point x="973" y="0" type="line"/>
      <point x="1032" y="358" type="line" smooth="yes"/>
      <point x="1041" y="410"/>
      <point x="1079" y="551"/>
      <point x="1126" y="697"/>
      <point x="1169" y="821"/>
      <point x="1181" y="857" type="qcurve"/>
      <point x="1230" y="806" type="line"/>
      <point x="1205" y="775"/>
      <point x="1107" y="659"/>
      <point x="995" y="538"/>
      <point x="948" y="497" type="qcurve" smooth="yes"/>
      <point x="343" y="-23" type="line"/>
      <point x="165" y="191" type="line"/>
      <point x="771" y="710" type="line" smooth="yes"/>
      <point x="818" y="750"/>
      <point x="954" y="842"/>
      <point x="1083" y="921"/>
      <point x="1118" y="941" type="qcurve"/>
      <point x="1159" y="882" type="line"/>
      <point x="1110" y="874"/>
      <point x="929" y="843"/>
      <point x="728" y="818"/>
      <point x="648" y="818" type="qcurve" smooth="yes"/>
      <point x="292" y="818" type="line"/>
      <point x="342" y="1118" type="line"/>
      <point x="1457" y="1118" type="line"/>
    </contour>
  </outline>
</glyph>
<glyph name="uni2198" format="2">
  <advance width="1616"/>
  <unicode hex="2198"/>
  <outline>
    <contour>
      <point x="1458" y="1118" type="line"/>
      <point x="1273" y="0" type="line"/>
      <point x="158" y="0" type="line"/>
      <point x="208" y="300" type="line"/>
      <point x="564" y="300" type="line" smooth="yes"/>
      <point x="644" y="300"/>
      <point x="836" y="275"/>
      <point x="1007" y="244"/>
      <point x="1053" y="236" type="qcurve"/>
      <point x="992" y="177" type="line"/>
      <point x="964" y="198"/>
      <point x="861" y="276"/>
      <point x="755" y="368"/>
      <point x="721" y="408" type="qcurve" smooth="yes"/>
      <point x="287" y="927" type="line"/>
      <point x="537" y="1141" type="line"/>
      <point x="970" y="621" type="line" smooth="yes"/>
      <point x="1004" y="581"/>
      <point x="1075" y="459"/>
      <point x="1135" y="344"/>
      <point x="1150" y="312" type="qcurve"/>
      <point x="1083" y="261" type="line"/>
      <point x="1083" y="297"/>
      <point x="1082" y="421"/>
      <point x="1083" y="567"/>
      <point x="1091" y="708"/>
      <point x="1100" y="760" type="qcurve" smooth="yes"/>
      <point x="1159" y="1118" type="line"/>
    </contour>
  </outline>
</glyph>
<glyph name="uni21AA" format="2">
  <advance width="2398"/>
  <unicode hex="21AA"/>
  <outline>
    <contour>
      <point x="1292" y="-136" type="line"/>
      <point x="1121" y="70" type="line"/>
      <point x="1413" y="321" type="line" smooth="yes"/>
      <point x="1456" y="358"/>
      <point x="1581" y="446"/>
      <point x="1714" y="533"/>
      <point x="1830" y="606"/>
      <point x="1863" y="627" type="qcurve"/>
      <point x="1851" y="556" type="line"/>
      <point x="1813" y="548"/>
      <point x="1671" y="521"/>
      <point x="1517" y="500"/>
      <point x="1460" y="500" type="qcurve" smooth="yes"/>
      <point x="704" y="500" type="line" smooth="yes"/>
      <point x="547" y="500"/>
      <point x="328" y="632"/>
      <point x="231" y="866"/>
      <point x="256" y="1018" type="qcurve" smooth="yes"/>
      <point x="281" y="1170"/>
      <point x="456" y="1404"/>
      <point x="719" y="1536"/>
      <point x="875" y="1536" type="qcurve" smooth="yes"/>
      <point x="985" y="1536" type="line"/>
      <point x="935" y="1234" type="line"/>
      <point x="825" y="1234" type="line" smooth="yes"/>
      <point x="759" y="1234"/>
      <point x="653" y="1181"/>
      <point x="585" y="1085"/>
      <point x="574" y="1018" type="qcurve" smooth="yes"/>
      <point x="563" y="952"/>
      <point x="599" y="855"/>
      <point x="688" y="802"/>
      <point x="754" y="802" type="qcurve" smooth="yes"/>
      <point x="1510" y="802" type="line" smooth="yes"/>
      <point x="1567" y="802"/>
      <point x="1714" y="781"/>
      <point x="1847" y="754"/>
      <point x="1882" y="746" type="qcurve"/>
      <point x="1871" y="674" type="line"/>
      <point x="1836" y="703"/>
      <point x="1706" y="805"/>
      <point x="1570" y="926"/>
      <point x="1523" y="982" type="qcurve" smooth="yes"/>
      <point x="1313" y="1234" type="line"/>
      <point x="1553" y="1438" type="line"/>
      <point x="2211" y="652" type="line"/>
    </contour>
  </outline>
</glyph>
<glyph name="integral" format="2">
  <advance width="839"/>
  <unicode hex="222B"/>
  <outline>
    <contour>
      <point x="-44" y="-484" type="qcurve" smooth="yes"/>
      <point x="-94" y="-484"/>
      <point x="-200" y="-478"/>
      <point x="-240" y="-470" type="qcurve"/>
      <point x="-177" y="-174" type="line"/>
      <point x="-156" y="-178"/>
      <point x="-104" y="-184"/>
      <point x="-78" y="-184" type="qcurve" smooth="yes"/>
      <point x="-13" y="-184"/>
      <point x="61" y="-114"/>
      <point x="73" y="-40" type="qcurve" smooth="yes"/>
      <point x="268" y="1135" type="line" smooth="yes"/>
      <point x="293" y="1287"/>
      <point x="434" y="1495"/>
      <point x="658" y="1603"/>
      <point x="807" y="1603" type="qcurve" smooth="yes"/>
      <point x="864" y="1603"/>
      <point x="957" y="1594"/>
      <point x="1006" y="1581" type="qcurve"/>
      <point x="932" y="1293" type="line"/>
      <point x="908" y="1297"/>
      <point x="842" y="1301"/>
      <point x="803" y="1301" type="qcurve" smooth="yes"/>
      <point x="748" y="1301"/>
      <point x="689" y="1249"/>
      <point x="680" y="1195" type="qcurve" smooth="yes"/>
      <point x="480" y="-10" type="line" smooth="yes"/>
      <point x="455" y="-163"/>
      <point x="317" y="-374"/>
      <point x="100" y="-484"/>
    </contour>
  </outline>
</glyph>
<glyph name="placeofinterestsign" format="2">
  <advance width="1926"/>
  <unicode hex="2318"/>
  <outline>
    <contour>
      <point x="446" y="-32" type="qcurve" smooth="yes"/>
      <point x="348" y="-32"/>
      <point x="202" y="65"/>
      <point x="132" y="227"/>
      <point x="148" y="326" type="qcurve" smooth="yes"/>
      <point x="165" y="425"/>
      <point x="288" y="588"/>
      <point x="466" y="686"/>
      <point x="564" y="686" type="qcurve" smooth="yes"/>
      <point x="690" y="686" type="line"/>
      <point x="712" y="806" type="line"/>
      <point x="584" y="806" type="line" smooth="yes"/>
      <point x="486" y="806"/>
      <point x="340" y="903"/>
      <point x="270" y="1065"/>
      <point x="286" y="1164" type="qcurve" smooth="yes"/>
      <point x="303" y="1263"/>
      <point x="426" y="1425"/>
      <point x="605" y="1522"/>
      <point x="704" y="1522" type="qcurve" smooth="yes"/>
      <point x="803" y="1522"/>
      <point x="950" y="1425"/>
      <point x="1020" y="1263"/>
      <point x="1004" y="1164" type="qcurve" smooth="yes"/>
      <point x="984" y="1038" type="line"/>
      <point x="1104" y="1038" type="line"/>
      <point x="1124" y="1164" type="line" smooth="yes"/>
      <point x="1140" y="1263"/>
      <point x="1264" y="1425"/>
      <point x="1443" y="1522"/>
      <point x="1542" y="1522" type="qcurve" smooth="yes"/>
      <point x="1641" y="1522"/>
      <point x="1787" y="1425"/>
      <point x="1857" y="1263"/>
      <point x="1840" y="1164" type="qcurve" smooth="yes"/>
      <point x="1824" y="1065"/>
      <point x="1700" y="903"/>
      <point x="1521" y="806"/>
      <point x="1422" y="806" type="qcurve" smooth="yes"/>
      <point x="1298" y="806" type="line"/>
      <point x="1278" y="686" type="line"/>
      <point x="1402" y="686" type="line" smooth="yes"/>
      <point x="1501" y="686"/>
      <point x="1648" y="588"/>
      <point x="1719" y="425"/>
      <point x="1702" y="326" type="qcurve" smooth="yes"/>
      <point x="1686" y="227"/>
      <point x="1562" y="65"/>
      <point x="1383" y="-32"/>
      <point x="1284" y="-32" type="qcurve" smooth="yes"/>
      <point x="1186" y="-32"/>
      <point x="1039" y="65"/>
      <point x="970" y="227"/>
      <point x="986" y="326" type="qcurve" smooth="yes"/>
      <point x="1006" y="452" type="line"/>
      <point x="886" y="452" type="line"/>
      <point x="866" y="326" type="line"/>
      <point x="849" y="227"/>
      <point x="725" y="65"/>
      <point x="546" y="-32"/>
    </contour>
    <contour>
      <point x="484" y="200" type="qcurve"/>
      <point x="519" y="201"/>
      <point x="582" y="235"/>
      <point x="626" y="292"/>
      <point x="632" y="326" type="qcurve" smooth="yes"/>
      <point x="654" y="452" type="line"/>
      <point x="542" y="452" type="line" smooth="yes"/>
      <point x="507" y="452"/>
      <point x="437" y="419"/>
      <point x="388" y="363"/>
      <point x="382" y="326" type="qcurve" smooth="yes"/>
      <point x="374" y="277"/>
      <point x="432" y="201"/>
    </contour>
    <contour>
      <point x="624" y="1038" type="qcurve"/>
      <point x="750" y="1038" type="line"/>
      <point x="770" y="1164" type="line" smooth="yes"/>
      <point x="778" y="1216"/>
      <point x="733" y="1289"/>
      <point x="680" y="1288" type="qcurve"/>
      <point x="646" y="1289"/>
      <point x="577" y="1257"/>
      <point x="526" y="1201"/>
      <point x="520" y="1164" type="qcurve" smooth="yes"/>
      <point x="511" y="1115"/>
      <point x="572" y="1039"/>
    </contour>
    <contour>
      <point x="1336" y="1038" type="line"/>
      <point x="1462" y="1038" type="line"/>
      <point x="1496" y="1039"/>
      <point x="1558" y="1070"/>
      <point x="1602" y="1127"/>
      <point x="1608" y="1164" type="qcurve" smooth="yes"/>
      <point x="1616" y="1212"/>
      <point x="1570" y="1289"/>
      <point x="1518" y="1288" type="qcurve"/>
      <point x="1483" y="1289"/>
      <point x="1412" y="1255"/>
      <point x="1363" y="1199"/>
      <point x="1358" y="1164" type="qcurve"/>
    </contour>
    <contour>
      <point x="1322" y="200" type="qcurve"/>
      <point x="1356" y="201"/>
      <point x="1419" y="232"/>
      <point x="1464" y="289"/>
      <point x="1470" y="326" type="qcurve" smooth="yes"/>
      <point x="1477" y="373"/>
      <point x="1430" y="452"/>
      <point x="1378" y="452" type="qcurve" smooth="yes"/>
      <point x="1240" y="452" type="line"/>
      <point x="1218" y="326" type="line" smooth="yes"/>
      <point x="1209" y="274"/>
      <point x="1268" y="201"/>
    </contour>
    <contour>
      <point x="924" y="686" type="line"/>
      <point x="1044" y="686" type="line"/>
      <point x="1064" y="806" type="line"/>
      <point x="944" y="806" type="line"/>
    </contour>
  </outline>
</glyph>
<glyph name="circlewhite" format="2">
  <advance width="1874"/>
  <unicode hex="25CB"/>
  <outline>
    <contour>
      <point x="845" y="-24" type="qcurve" smooth="yes"/>
      <point x="687" y="-24"/>
      <point x="428" y="96"/>
      <point x="251" y="307"/>
      <point x="178" y="585"/>
      <point x="204" y="744" type="qcurve" smooth="yes"/>
      <point x="231" y="903"/>
      <point x="398" y="1182"/>
      <point x="644" y="1393"/>
      <point x="941" y="1512"/>
      <point x="1099" y="1512" type="qcurve" smooth="yes"/>
      <point x="1259" y="1512"/>
      <point x="1518" y="1393"/>
      <point x="1693" y="1182"/>
      <point x="1766" y="903"/>
      <point x="1740" y="744" type="qcurve" smooth="yes"/>
      <point x="1715" y="585"/>
      <point x="1550" y="307"/>
      <point x="1304" y="96"/>
      <point x="1005" y="-24"/>
    </contour>
    <contour>
      <point x="893" y="268" type="qcurve" smooth="yes"/>
      <point x="993" y="268"/>
      <point x="1179" y="342"/>
      <point x="1332" y="473"/>
      <point x="1434" y="645"/>
      <point x="1450" y="744" type="qcurve" smooth="yes"/>
      <point x="1466" y="843"/>
      <point x="1421" y="1017"/>
      <point x="1312" y="1148"/>
      <point x="1151" y="1222"/>
      <point x="1051" y="1222" type="qcurve" smooth="yes"/>
      <point x="953" y="1222"/>
      <point x="769" y="1147"/>
      <point x="616" y="1016"/>
      <point x="512" y="843"/>
      <point x="496" y="744" type="qcurve" smooth="yes"/>
      <point x="480" y="646"/>
      <point x="525" y="473"/>
      <point x="634" y="342"/>
      <point x="795" y="268"/>
    </contour>
  </outline>
</glyph>
<glyph name="openbullet" format="2">
  <advance width="816"/>
  <unicode hex="25E6"/>
  <outline>
    <contour>
      <point x="358" y="274" type="qcurve" smooth="yes"/>
      <point x="271" y="274"/>
      <point x="141" y="359"/>
      <point x="79" y="505"/>
      <point x="94" y="594" type="qcurve" smooth="yes"/>
      <point x="108" y="683"/>
      <point x="217" y="828"/>
      <point x="377" y="914"/>
      <point x="466" y="914" type="qcurve" smooth="yes"/>
      <point x="555" y="914"/>
      <point x="685" y="828"/>
      <point x="748" y="683"/>
      <point x="734" y="594" type="qcurve" smooth="yes"/>
      <point x="719" y="505"/>
      <point x="607" y="359"/>
      <point x="447" y="274"/>
    </contour>
    <contour>
      <point x="390" y="462" type="qcurve"/>
      <point x="445" y="463"/>
      <point x="535" y="539"/>
      <point x="544" y="594" type="qcurve" smooth="yes"/>
      <point x="553" y="648"/>
      <point x="488" y="724"/>
      <point x="434" y="724" type="qcurve" smooth="yes"/>
      <point x="379" y="724"/>
      <point x="291" y="648"/>
      <point x="282" y="594" type="qcurve" smooth="yes"/>
      <point x="274" y="539"/>
      <point x="335" y="463"/>
    </contour>
  </outline>
</glyph>
<glyph name="uni25EF" format="2">
  <advance width="2847"/>
  <unicode hex="25EF"/>
  <outline>
    <contour>
      <point x="1243" y="-654" type="qcurve" smooth="yes"/>
      <point x="1008" y="-654"/>
      <point x="607" y="-511"/>
      <point x="295" y="-249"/>
      <point x="93" y="107"/>
      <point x="20" y="534"/>
      <point x="59" y="770" type="qcurve" smooth="yes"/>
      <point x="97" y="998"/>
      <point x="304" y="1410"/>
      <point x="614" y="1753"/>
      <point x="1000" y="2006"/>
      <point x="1436" y="2144"/>
      <point x="1665" y="2144" type="qcurve" smooth="yes"/>
      <point x="1900" y="2144"/>
      <point x="2301" y="2000"/>
      <point x="2613" y="1738"/>
      <point x="2815" y="1381"/>
      <point x="2888" y="954"/>
      <point x="2849" y="718" type="qcurve" smooth="yes"/>
      <point x="2811" y="490"/>
      <point x="2604" y="79"/>
      <point x="2294" y="-264"/>
      <point x="1908" y="-516"/>
      <point x="1472" y="-654"/>
    </contour>
    <contour>
      <point x="1243" y="-422" type="qcurve" smooth="yes"/>
      <point x="1438" y="-422"/>
      <point x="1811" y="-302"/>
      <point x="2142" y="-85"/>
      <point x="2409" y="209"/>
      <point x="2587" y="562"/>
      <point x="2619" y="756" type="qcurve" smooth="yes"/>
      <point x="2651" y="950"/>
      <point x="2594" y="1297"/>
      <point x="2433" y="1586"/>
      <point x="2182" y="1796"/>
      <point x="1857" y="1912"/>
      <point x="1665" y="1912" type="qcurve" smooth="yes"/>
      <point x="1470" y="1912"/>
      <point x="1097" y="1792"/>
      <point x="766" y="1575"/>
      <point x="499" y="1280"/>
      <point x="321" y="928"/>
      <point x="289" y="734" type="qcurve" smooth="yes"/>
      <point x="257" y="540"/>
      <point x="314" y="192"/>
      <point x="475" y="-96"/>
      <point x="726" y="-307"/>
      <point x="1051" y="-422"/>
    </contour>
  </outline>
</glyph>
<glyph name="uni2606" format="2">
  <advance width="2142"/>
  <unicode hex="2606"/>
  <outline>
    <contour>
      <point x="1042" y="382" type="line"/>
      <point x="426" y="-14" type="line"/>
      <point x="750" y="632" type="line"/>
      <point x="264" y="1030" type="line"/>
      <point x="940" y="1030" type="line"/>
      <point x="1256" y="1676" type="line"/>
      <point x="1358" y="1030" type="line"/>
      <point x="2034" y="1030" type="line"/>
      <point x="1416" y="632" type="line"/>
      <point x="1526" y="-14" type="line"/>
    </contour>
    <contour>
      <point x="1080" y="616" type="line"/>
      <point x="1240" y="484" type="line"/>
      <point x="1204" y="704" type="line"/>
      <point x="1418" y="840" type="line"/>
      <point x="1190" y="840" type="line"/>
      <point x="1154" y="1064" type="line"/>
      <point x="1046" y="840" type="line"/>
      <point x="818" y="840" type="line"/>
      <point x="984" y="704" type="line"/>
      <point x="874" y="484" type="line"/>
    </contour>
  </outline>
</glyph>
<glyph name="sun" format="2">
  <advance width="2188"/>
  <unicode hex="263C"/>
  <outline>
    <contour>
      <point x="1070" y="416" type="qcurve" smooth="yes"/>
      <point x="978" y="416"/>
      <point x="844" y="505"/>
      <point x="782" y="654"/>
      <point x="796" y="744" type="qcurve" smooth="yes"/>
      <point x="811" y="835"/>
      <point x="923" y="984"/>
      <point x="1088" y="1074"/>
      <point x="1180" y="1074" type="qcurve" smooth="yes"/>
      <point x="1269" y="1074"/>
      <point x="1404" y="984"/>
      <point x="1470" y="834"/>
      <point x="1454" y="744" type="qcurve" smooth="yes"/>
      <point x="1438" y="654"/>
      <point x="1323" y="505"/>
      <point x="1160" y="416"/>
    </contour>
    <contour>
      <point x="1102" y="610" type="qcurve"/>
      <point x="1138" y="611"/>
      <point x="1205" y="647"/>
      <point x="1253" y="708"/>
      <point x="1258" y="744" type="qcurve" smooth="yes"/>
      <point x="1264" y="782"/>
      <point x="1238" y="843"/>
      <point x="1184" y="879"/>
      <point x="1148" y="878" type="qcurve"/>
      <point x="1110" y="879"/>
      <point x="1044" y="843"/>
      <point x="998" y="782"/>
      <point x="990" y="744" type="qcurve" smooth="yes"/>
      <point x="983" y="708"/>
      <point x="1008" y="647"/>
      <point x="1064" y="611"/>
    </contour>
    <contour>
      <point x="1112" y="1218" type="line"/>
      <point x="1186" y="1662" type="line"/>
      <point x="1366" y="1662" type="line"/>
      <point x="1294" y="1218" type="line"/>
    </contour>
    <contour>
      <point x="1566" y="1016" type="line"/>
      <point x="1462" y="1144" type="line"/>
      <point x="1826" y="1458" type="line"/>
      <point x="1934" y="1330" type="line"/>
    </contour>
    <contour>
      <point x="1584" y="654" type="line"/>
      <point x="1614" y="834" type="line"/>
      <point x="2056" y="834" type="line"/>
      <point x="2026" y="654" type="line"/>
    </contour>
    <contour>
      <point x="1590" y="32" type="line"/>
      <point x="1328" y="346" type="line"/>
      <point x="1480" y="474" type="line"/>
      <point x="1742" y="160" type="line"/>
    </contour>
    <contour>
      <point x="882" y="-172" type="line"/>
      <point x="956" y="270" type="line"/>
      <point x="1136" y="270" type="line"/>
      <point x="1064" y="-172" type="line"/>
    </contour>
    <contour>
      <point x="420" y="32" type="line"/>
      <point x="316" y="160" type="line"/>
      <point x="682" y="474" type="line"/>
      <point x="786" y="346" type="line"/>
    </contour>
    <contour>
      <point x="194" y="654" type="line"/>
      <point x="222" y="834" type="line"/>
      <point x="664" y="834" type="line"/>
      <point x="636" y="654" type="line"/>
    </contour>
    <contour>
      <point x="770" y="1016" type="line"/>
      <point x="508" y="1330" type="line"/>
      <point x="656" y="1458" type="line"/>
      <point x="920" y="1144" type="line"/>
    </contour>
  </outline>
</glyph>
<glyph name="uni2913" format="2">
  <advance width="1802"/>
  <unicode hex="2913"/>
  <outline>
    <contour>
      <point x="109" y="0" type="line"/>
      <point x="159" y="302" type="line"/>
      <point x="1557" y="302" type="line"/>
      <point x="1507" y="0" type="line"/>
    </contour>
    <contour>
      <point x="831" y="1053" type="qcurve" smooth="yes"/>
      <point x="904" y="1490" type="line"/>
      <point x="1206" y="1490" type="line"/>
      <point x="1133" y="1053" type="line" smooth="yes"/>
      <point x="1124" y="996"/>
      <point x="1077" y="845"/>
      <point x="1027" y="708"/>
      <point x="1013" y="671" type="qcurve"/>
      <point x="941" y="671" type="line"/>
      <point x="967" y="701"/>
      <point x="1053" y="801"/>
      <point x="1157" y="916"/>
      <point x="1266" y="1028"/>
      <point x="1315" y="1070" type="qcurve" smooth="yes"/>
      <point x="1504" y="1231" type="line"/>
      <point x="1675" y="1026" type="line"/>
      <point x="862" y="327" type="line"/>
      <point x="281" y="1025" type="line"/>
      <point x="520" y="1231" type="line"/>
      <point x="654" y="1070" type="line" smooth="yes"/>
      <point x="685" y="1033"/>
      <point x="755" y="923"/>
      <point x="822" y="804"/>
      <point x="878" y="701"/>
      <point x="894" y="671" type="qcurve"/>
      <point x="823" y="671" type="line"/>
      <point x="821" y="708"/>
      <point x="817" y="845"/>
      <point x="822" y="996"/>
    </contour>
  </outline>
</glyph>
<glyph name="one.tf.ss01" format="2">
  <advance width="1328"/>
  <unicode hex="E072"/>
  <unicode hex="E07C"/>
  <outline>
    <contour>
      <point x="82" y="0" type="line"/>
      <point x="135" y="322" type="line"/>
      <point x="1166" y="322" type="line"/>
      <point x="1113" y="0" type="line"/>
    </contour>
    <contour>
      <point x="414" y="0" type="line"/>
      <point x="575" y="973" type="line"/>
      <point x="590" y="947" type="line"/>
      <point x="537" y="947"/>
      <point x="430" y="947"/>
      <point x="324" y="947"/>
      <point x="210" y="947" type="qcurve"/>
      <point x="259" y="1243" type="line"/>
      <point x="401" y="1243" type="line" smooth="yes"/>
      <point x="476" y="1243"/>
      <point x="599" y="1294"/>
      <point x="686" y="1402"/>
      <point x="706" y="1488" type="qcurve"/>
      <point x="1060" y="1488" type="line"/>
      <point x="814" y="0" type="line"/>
    </contour>
  </outline>
</glyph>
<glyph name="zero.tf.slash" format="2">
  <advance width="1328"/>
  <unicode hex="E07B"/>
  <anchor x="814" y="1490" name="m.uni030F_1"/>
  <outline>
    <contour>
      <point x="380" y="168" type="line"/>
      <point x="246" y="226" type="line"/>
      <point x="998" y="1326" type="line"/>
      <point x="1136" y="1274" type="line"/>
    </contour>
    <contour>
      <point x="585" y="-20" type="qcurve" smooth="yes"/>
      <point x="320" y="-20"/>
      <point x="64" y="272"/>
      <point x="64" y="536" type="qcurve" smooth="yes"/>
      <point x="64" y="653"/>
      <point x="107" y="919"/>
      <point x="206" y="1175"/>
      <point x="374" y="1385"/>
      <point x="624" y="1510"/>
      <point x="797" y="1510" type="qcurve" smooth="yes"/>
      <point x="1061" y="1510"/>
      <point x="1317" y="1217"/>
      <point x="1317" y="952" type="qcurve" smooth="yes"/>
      <point x="1317" y="836"/>
      <point x="1275" y="571"/>
      <point x="1176" y="315"/>
      <point x="1009" y="105"/>
      <point x="758" y="-20"/>
    </contour>
    <contour>
      <point x="598" y="308" type="qcurve" smooth="yes"/>
      <point x="678" y="308"/>
      <point x="791" y="412"/>
      <point x="865" y="576"/>
      <point x="907" y="763"/>
      <point x="924" y="935"/>
      <point x="924" y="991" type="qcurve" smooth="yes"/>
      <point x="924" y="1094"/>
      <point x="856" y="1184"/>
      <point x="784" y="1184" type="qcurve" smooth="yes"/>
      <point x="708" y="1184"/>
      <point x="597" y="1083"/>
      <point x="522" y="921"/>
      <point x="478" y="735"/>
      <point x="458" y="561"/>
      <point x="458" y="501" type="qcurve" smooth="yes"/>
      <point x="458" y="398"/>
      <point x="525" y="308"/>
    </contour>
  </outline>
</glyph>
<glyph name="n.numr" format="2">
  <advance width="872"/>
  <unicode hex="E0A6"/>
  <outline>
    <contour>
      <point x="434" y="1192" type="qcurve" smooth="yes"/>
      <point x="360" y="744" type="line"/>
      <point x="94" y="744" type="line"/>
      <point x="226" y="1536" type="line"/>
      <point x="476" y="1536" type="line"/>
      <point x="454" y="1402" type="line"/>
      <point x="466" y="1402" type="line"/>
      <point x="501" y="1467"/>
      <point x="625" y="1545"/>
      <point x="712" y="1544" type="qcurve"/>
      <point x="828" y="1545"/>
      <point x="943" y="1394"/>
      <point x="920" y="1254" type="qcurve" smooth="yes"/>
      <point x="836" y="744" type="line"/>
      <point x="572" y="744" type="line"/>
      <point x="648" y="1208" type="line"/>
      <point x="659" y="1267"/>
      <point x="617" y="1327"/>
      <point x="568" y="1326" type="qcurve"/>
      <point x="519" y="1327"/>
      <point x="445" y="1260"/>
    </contour>
  </outline>
</glyph>
<glyph name="bracketleft.sups" format="2">
  <advance width="602"/>
  <unicode hex="E0A7"/>
  <outline>
    <contour>
      <point x="146" y="536" type="line"/>
      <point x="350" y="1766" type="line"/>
      <point x="782" y="1766" type="line"/>
      <point x="750" y="1568" type="line"/>
      <point x="574" y="1568" type="line"/>
      <point x="434" y="734" type="line"/>
      <point x="610" y="734" type="line"/>
      <point x="578" y="536" type="line"/>
    </contour>
  </outline>
</glyph>
<glyph name="bracketright.sups" format="2">
  <advance width="602"/>
  <unicode hex="E0A8"/>
  <outline>
    <contour>
      <point x="16" y="536" type="line"/>
      <point x="50" y="734" type="line"/>
      <point x="226" y="734" type="line"/>
      <point x="364" y="1568" type="line"/>
      <point x="188" y="1568" type="line"/>
      <point x="220" y="1766" type="line"/>
      <point x="652" y="1766" type="line"/>
      <point x="448" y="536" type="line"/>
    </contour>
  </outline>
</glyph>
<glyph name="one.dnom" format="2">
  <advance width="734"/>
  <unicode hex="E0B5"/>
  <outline>
    <contour>
      <point x="219" y="0" type="line"/>
      <point x="315" y="578" type="line"/>
      <point x="309" y="578" type="line"/>
      <point x="104" y="464" type="line"/>
      <point x="137" y="664" type="line"/>
      <point x="368" y="792" type="line"/>
      <point x="582" y="792" type="line"/>
      <point x="451" y="0" type="line"/>
    </contour>
  </outline>
</glyph>
<glyph name="three.dnom" format="2">
  <advance width="890"/>
  <unicode hex="E0B7"/>
  <outline>
    <contour>
      <point x="340" y="-12" type="qcurve" smooth="yes"/>
      <point x="174" y="-12"/>
      <point x="3" y="127"/>
      <point x="16" y="230" type="qcurve"/>
      <point x="256" y="230" type="line"/>
      <point x="258" y="206"/>
      <point x="316" y="182"/>
      <point x="362" y="182" type="qcurve" smooth="yes"/>
      <point x="417" y="182"/>
      <point x="499" y="214"/>
      <point x="504" y="244" type="qcurve" smooth="yes"/>
      <point x="509" y="273"/>
      <point x="449" y="311"/>
      <point x="382" y="312" type="qcurve"/>
      <point x="266" y="312" type="line"/>
      <point x="295" y="492" type="line"/>
      <point x="411" y="492" type="line" smooth="yes"/>
      <point x="461" y="492"/>
      <point x="527" y="526"/>
      <point x="532" y="556" type="qcurve" smooth="yes"/>
      <point x="537" y="584"/>
      <point x="490" y="618"/>
      <point x="440" y="618" type="qcurve" smooth="yes"/>
      <point x="397" y="618"/>
      <point x="324" y="591"/>
      <point x="316" y="568" type="qcurve"/>
      <point x="88" y="568" type="line"/>
      <point x="103" y="638"/>
      <point x="216" y="743"/>
      <point x="384" y="803"/>
      <point x="479" y="802" type="qcurve"/>
      <point x="626" y="803"/>
      <point x="780" y="664"/>
      <point x="764" y="570" type="qcurve" smooth="yes"/>
      <point x="754" y="507"/>
      <point x="652" y="422"/>
      <point x="581" y="414" type="qcurve"/>
      <point x="579" y="404" type="line"/>
      <point x="675" y="398"/>
      <point x="758" y="304"/>
      <point x="746" y="230" type="qcurve" smooth="yes"/>
      <point x="734" y="159"/>
      <point x="619" y="49"/>
      <point x="443" y="-12"/>
    </contour>
  </outline>
</glyph>
<glyph name="six.dnom" format="2">
  <advance width="844"/>
  <unicode hex="E0BA"/>
  <outline>
    <contour>
      <point x="335" y="-12" type="qcurve" smooth="yes"/>
      <point x="269" y="-12"/>
      <point x="139" y="22"/>
      <point x="40" y="108"/>
      <point x="-3" y="263"/>
      <point x="17" y="384" type="qcurve" smooth="yes"/>
      <point x="44" y="544"/>
      <point x="184" y="728"/>
      <point x="376" y="806"/>
      <point x="482" y="806" type="qcurve" smooth="yes"/>
      <point x="622" y="806"/>
      <point x="789" y="668"/>
      <point x="793" y="568" type="qcurve"/>
      <point x="557" y="568" type="line"/>
      <point x="544" y="587"/>
      <point x="484" y="602"/>
      <point x="449" y="602" type="qcurve" smooth="yes"/>
      <point x="375" y="602"/>
      <point x="270" y="523"/>
      <point x="259" y="460" type="qcurve"/>
      <point x="269" y="460" type="line"/>
      <point x="315" y="506"/>
      <point x="436" y="550"/>
      <point x="502" y="550" type="qcurve" smooth="yes"/>
      <point x="585" y="550"/>
      <point x="705" y="481"/>
      <point x="761" y="361"/>
      <point x="748" y="282" type="qcurve" smooth="yes"/>
      <point x="734" y="195"/>
      <point x="621" y="63"/>
      <point x="445" y="-12"/>
    </contour>
    <contour>
      <point x="366" y="178" type="qcurve"/>
      <point x="421" y="177"/>
      <point x="510" y="233"/>
      <point x="517" y="276" type="qcurve" smooth="yes"/>
      <point x="523" y="316"/>
      <point x="462" y="372"/>
      <point x="405" y="372" type="qcurve" smooth="yes"/>
      <point x="372" y="372"/>
      <point x="312" y="350"/>
      <point x="265" y="312"/>
      <point x="250" y="286" type="qcurve"/>
      <point x="232" y="252"/>
      <point x="303" y="177"/>
    </contour>
  </outline>
</glyph>
<glyph name="nine.dnom" format="2">
  <advance width="844"/>
  <unicode hex="E0BD"/>
  <outline>
    <contour>
      <point x="454" y="806" type="qcurve" smooth="yes"/>
      <point x="521" y="806"/>
      <point x="651" y="771"/>
      <point x="749" y="685"/>
      <point x="793" y="530"/>
      <point x="773" y="410" type="qcurve" smooth="yes"/>
      <point x="746" y="250"/>
      <point x="606" y="66"/>
      <point x="413" y="-12"/>
      <point x="307" y="-12" type="qcurve" smooth="yes"/>
      <point x="162" y="-12"/>
      <point x="-2" y="129"/>
      <point x="-4" y="226" type="qcurve"/>
      <point x="232" y="226" type="line"/>
      <point x="244" y="207"/>
      <point x="304" y="192"/>
      <point x="341" y="192" type="qcurve" smooth="yes"/>
      <point x="417" y="192"/>
      <point x="520" y="273"/>
      <point x="530" y="334" type="qcurve"/>
      <point x="520" y="334" type="line"/>
      <point x="474" y="288"/>
      <point x="355" y="244"/>
      <point x="287" y="244" type="qcurve" smooth="yes"/>
      <point x="205" y="244"/>
      <point x="85" y="313"/>
      <point x="29" y="434"/>
      <point x="42" y="512" type="qcurve" smooth="yes"/>
      <point x="56" y="600"/>
      <point x="167" y="732"/>
      <point x="343" y="806"/>
    </contour>
    <contour>
      <point x="423" y="616" type="qcurve"/>
      <point x="368" y="617"/>
      <point x="279" y="562"/>
      <point x="273" y="518" type="qcurve"/>
      <point x="266" y="478"/>
      <point x="325" y="422"/>
      <point x="381" y="422" type="qcurve" smooth="yes"/>
      <point x="421" y="422"/>
      <point x="482" y="447"/>
      <point x="525" y="488"/>
      <point x="537" y="510" type="qcurve"/>
      <point x="556" y="540"/>
      <point x="488" y="617"/>
    </contour>
  </outline>
</glyph>
<glyph name="plus.numr" format="2">
  <advance width="831"/>
  <unicode hex="E0D7"/>
  <outline>
    <contour>
      <point x="362" y="846" type="line"/>
      <point x="459" y="1434" type="line"/>
      <point x="659" y="1434" type="line"/>
      <point x="562" y="846" type="line"/>
    </contour>
    <contour>
      <point x="175" y="1042" type="line"/>
      <point x="207" y="1240" type="line"/>
      <point x="849" y="1240" type="line"/>
      <point x="817" y="1042" type="line"/>
    </contour>
  </outline>
</glyph>
<glyph name="minus.numr" format="2">
  <advance width="830"/>
  <unicode hex="E0D8"/>
  <outline>
    <contour>
      <point x="848" y="1236" type="line"/>
      <point x="815" y="1038" type="line"/>
      <point x="173" y="1038" type="line"/>
      <point x="206" y="1236" type="line"/>
    </contour>
  </outline>
</glyph>
<glyph name="parenleft.numr" format="2">
  <advance width="538"/>
  <unicode hex="E0DA"/>
  <outline>
    <contour>
      <point x="203" y="1134" type="qcurve" smooth="yes"/>
      <point x="230" y="1298"/>
      <point x="368" y="1532"/>
      <point x="482" y="1624" type="qcurve"/>
      <point x="696" y="1624" type="line"/>
      <point x="647" y="1595"/>
      <point x="542" y="1436"/>
      <point x="461" y="1232"/>
      <point x="445" y="1134" type="qcurve" smooth="yes"/>
      <point x="429" y="1037"/>
      <point x="443" y="833"/>
      <point x="495" y="675"/>
      <point x="534" y="646" type="qcurve"/>
      <point x="320" y="646" type="line"/>
      <point x="231" y="742"/>
      <point x="178" y="982"/>
    </contour>
  </outline>
</glyph>
<glyph name="dieresismacroncomb.lc" format="2">
  <advance width="1330"/>
  <unicode hex="E10D"/>
  <outline>
    <contour>
      <point x="1006" y="1223" type="qcurve" smooth="yes"/>
      <point x="933" y="1223"/>
      <point x="847" y="1322"/>
      <point x="858" y="1392" type="qcurve" smooth="yes"/>
      <point x="870" y="1462"/>
      <point x="989" y="1561"/>
      <point x="1062" y="1561" type="qcurve" smooth="yes"/>
      <point x="1135" y="1561"/>
      <point x="1222" y="1462"/>
      <point x="1210" y="1392" type="qcurve" smooth="yes"/>
      <point x="1199" y="1322"/>
      <point x="1079" y="1223"/>
    </contour>
    <contour>
      <point x="544" y="1223" type="qcurve" smooth="yes"/>
      <point x="471" y="1223"/>
      <point x="385" y="1322"/>
      <point x="396" y="1392" type="qcurve" smooth="yes"/>
      <point x="408" y="1462"/>
      <point x="527" y="1561"/>
      <point x="600" y="1561" type="qcurve" smooth="yes"/>
      <point x="673" y="1561"/>
      <point x="760" y="1462"/>
      <point x="748" y="1392" type="qcurve" smooth="yes"/>
      <point x="737" y="1322"/>
      <point x="617" y="1223"/>
    </contour>
    <contour>
      <point x="1231" y="1858" type="line"/>
      <point x="1192" y="1672" type="line"/>
      <point x="592" y="1672" type="line"/>
      <point x="631" y="1858" type="line"/>
    </contour>
  </outline>
</glyph>
<glyph name="largerighthook" format="2">
  <advance width="1152"/>
  <unicode hex="E10F"/>
  <outline>
    <contour>
      <point x="247" y="-135" type="line"/>
      <point x="305" y="217" type="line"/>
      <point x="412" y="217" type="line" smooth="yes"/>
      <point x="504" y="217"/>
      <point x="627" y="310"/>
      <point x="640" y="389" type="qcurve" smooth="yes"/>
      <point x="654" y="468"/>
      <point x="561" y="560"/>
      <point x="469" y="560" type="qcurve" smooth="yes"/>
      <point x="377" y="560"/>
      <point x="254" y="468"/>
      <point x="240" y="389" type="qcurve"/>
      <point x="36" y="389" type="line"/>
      <point x="62" y="545"/>
      <point x="209" y="785"/>
      <point x="440" y="920"/>
      <point x="592" y="920" type="qcurve" smooth="yes"/>
      <point x="743" y="920"/>
      <point x="973" y="785"/>
      <point x="1086" y="545"/>
      <point x="1060" y="389" type="qcurve" smooth="yes"/>
      <point x="1035" y="233"/>
      <point x="837" y="-3"/>
      <point x="536" y="-135"/>
      <point x="354" y="-135" type="qcurve" smooth="yes"/>
    </contour>
  </outline>
</glyph>
<glyph name="q.sups" format="2">
  <advance width="884"/>
  <unicode hex="E163"/>
  <outline>
    <contour>
      <point x="802" y="466" type="line"/>
      <point x="538" y="466" type="line"/>
      <point x="600" y="832" type="line"/>
      <point x="590" y="832" type="line"/>
      <point x="576" y="818"/>
      <point x="525" y="771"/>
      <point x="442" y="734"/>
      <point x="378" y="734" type="qcurve" smooth="yes"/>
      <point x="294" y="734"/>
      <point x="166" y="816"/>
      <point x="109" y="986"/>
      <point x="130" y="1118" type="qcurve"/>
      <point x="153" y="1250"/>
      <point x="269" y="1418"/>
      <point x="424" y="1498"/>
      <point x="504" y="1498" type="qcurve" smooth="yes"/>
      <point x="571" y="1498"/>
      <point x="642" y="1458"/>
      <point x="675" y="1409"/>
      <point x="684" y="1394" type="qcurve"/>
      <point x="696" y="1394" type="line"/>
      <point x="710" y="1490" type="line"/>
      <point x="972" y="1490" type="line"/>
    </contour>
    <contour>
      <point x="652" y="1120" type="qcurve"/>
      <point x="665" y="1201"/>
      <point x="622" y="1289"/>
      <point x="558" y="1288" type="qcurve"/>
      <point x="488" y="1289"/>
      <point x="413" y="1188"/>
      <point x="402" y="1120" type="qcurve" smooth="yes"/>
      <point x="393" y="1065"/>
      <point x="406" y="985"/>
      <point x="452" y="943"/>
      <point x="494" y="942" type="qcurve"/>
      <point x="556" y="943"/>
      <point x="636" y="1033"/>
    </contour>
  </outline>
</glyph>
<glyph name="fraction.squared" format="2">
  <advance width="2828"/>
  <unicode hex="EE09"/>
  <outline>
    <contour>
      <point x="1047" y="75" type="line"/>
      <point x="809" y="314" type="line"/>
      <point x="1915" y="1415" type="line"/>
      <point x="2153" y="1176" type="line"/>
    </contour>
    <contour>
      <point x="123" y="-606" type="line"/>
      <point x="1" y="-605"/>
      <point x="-107" y="-477"/>
      <point x="-87" y="-354" type="qcurve" smooth="yes"/>
      <point x="277" y="1844" type="line"/>
      <point x="298" y="1966"/>
      <point x="448" y="2095"/>
      <point x="569" y="2094" type="qcurve"/>
      <point x="2769" y="2094" type="line"/>
      <point x="2891" y="2095"/>
      <point x="2997" y="1966"/>
      <point x="2977" y="1844" type="qcurve" smooth="yes"/>
      <point x="2613" y="-354" type="line" smooth="yes"/>
      <point x="2593" y="-477"/>
      <point x="2445" y="-605"/>
      <point x="2323" y="-606" type="qcurve"/>
    </contour>
    <contour>
      <point x="155" y="-372" type="qcurve" smooth="yes"/>
      <point x="2365" y="-372" type="line" smooth="yes"/>
      <point x="2371" y="-372"/>
      <point x="2379" y="-366"/>
      <point x="2379" y="-360" type="qcurve"/>
      <point x="2745" y="1850" type="line"/>
      <point x="2747" y="1855"/>
      <point x="2741" y="1862"/>
      <point x="2735" y="1862" type="qcurve" smooth="yes"/>
      <point x="525" y="1862" type="line" smooth="yes"/>
      <point x="519" y="1862"/>
      <point x="513" y="1855"/>
      <point x="511" y="1850" type="qcurve"/>
      <point x="145" y="-360" type="line"/>
      <point x="145" y="-366"/>
      <point x="150" y="-372"/>
    </contour>
  </outline>
</glyph>
<glyph name="_part.crossbar_compact" format="2">
  <advance width="863"/>
  <outline>
    <contour>
      <point x="62" y="689" type="line"/>
      <point x="81" y="801" type="line"/>
      <point x="863" y="801" type="line"/>
      <point x="844" y="689" type="line"/>
    </contour>
  </outline>
</glyph>
<glyph name="_part.cyrtic_hook" format="2">
  <advance width="727"/>
  <outline>
    <contour>
      <point x="62" y="-436" type="qcurve" smooth="yes"/>
      <point x="16" y="-436"/>
      <point x="-65" y="-430"/>
      <point x="-112" y="-422" type="qcurve"/>
      <point x="-50" y="-144" type="line"/>
      <point x="-32" y="-148"/>
      <point x="33" y="-154"/>
      <point x="53" y="-154" type="qcurve" smooth="yes"/>
      <point x="117" y="-154"/>
      <point x="192" y="-85"/>
      <point x="203" y="-16" type="qcurve"/>
      <point x="206" y="0" type="line"/>
      <point x="78" y="0" type="line"/>
      <point x="120" y="252" type="line"/>
      <point x="626" y="252" type="line"/>
      <point x="575" y="14" type="line" smooth="yes"/>
      <point x="528" y="-210"/>
      <point x="269" y="-436"/>
    </contour>
  </outline>
</glyph>
<glyph name="_tildecross.cn" format="2">
  <advance width="1000"/>
  <outline>
    <contour>
      <point x="690" y="628" type="qcurve" smooth="yes"/>
      <point x="619" y="628"/>
      <point x="528" y="664"/>
      <point x="466" y="712"/>
      <point x="412" y="748"/>
      <point x="378" y="748" type="qcurve" smooth="yes"/>
      <point x="333" y="748"/>
      <point x="273" y="691"/>
      <point x="259" y="636" type="qcurve"/>
      <point x="11" y="636" type="line"/>
      <point x="48" y="794"/>
      <point x="257" y="948"/>
      <point x="386" y="948" type="qcurve" smooth="yes"/>
      <point x="457" y="948"/>
      <point x="549" y="913"/>
      <point x="613" y="866"/>
      <point x="668" y="831"/>
      <point x="700" y="831" type="qcurve" smooth="yes"/>
      <point x="753" y="831"/>
      <point x="807" y="890"/>
      <point x="820" y="942" type="qcurve"/>
      <point x="1065" y="942" type="line"/>
      <point x="1030" y="788"/>
      <point x="818" y="628"/>
    </contour>
  </outline>
</glyph>
<glyph name="acutedotcomb.cn" format="2">
  <advance width="770"/>
  <outline>
    <contour>
      <point x="529" y="1658" type="line"/>
      <point x="723" y="1908" type="line"/>
      <point x="953" y="1908" type="line"/>
      <point x="711" y="1658" type="line"/>
    </contour>
    <contour>
      <point x="256" y="1866" type="qcurve" smooth="yes"/>
      <point x="264" y="1918"/>
      <point x="367" y="1990"/>
      <point x="434" y="1990" type="qcurve" smooth="yes"/>
      <point x="502" y="1990"/>
      <point x="578" y="1918"/>
      <point x="570" y="1866" type="qcurve" smooth="yes"/>
      <point x="561" y="1813"/>
      <point x="461" y="1740"/>
      <point x="393" y="1740" type="qcurve" smooth="yes"/>
      <point x="326" y="1740"/>
      <point x="247" y="1813"/>
    </contour>
  </outline>
</glyph>
